<svg width="502" height="499" viewBox="0 0 502 499" fill="none" xmlns="http://www.w3.org/2000/svg">
<path d="M294.523 4.31109C295.551 4.51508 296.578 4.71907 297.637 4.92925C336.239 12.7858 372.432 27.8437 403.523 52.3111C404.977 53.448 404.977 53.448 406.461 54.608C421.121 66.3524 435.042 79.4242 446.523 94.3111C446.946 94.8572 447.368 95.4032 447.804 95.9659C474.654 130.906 492.207 171.662 498.523 215.311C498.641 216.108 498.758 216.906 498.878 217.727C501.937 239.596 501.816 262.48 498.523 284.311C498.394 285.203 498.266 286.095 498.133 287.014C496.089 300.864 492.984 314.048 488.523 327.311C488.098 328.607 488.098 328.607 487.665 329.93C478.431 357.872 464.381 383.712 445.523 406.311C445.055 406.881 444.586 407.452 444.103 408.039C433.404 421.034 421.844 432.98 408.523 443.311C407.554 444.097 406.585 444.884 405.586 445.694C384.292 462.676 359.263 475.608 333.523 484.311C332.606 484.624 331.688 484.937 330.743 485.26C316.528 490.038 302.366 493.23 287.523 495.311C286.746 495.428 285.969 495.545 285.168 495.666C220.918 505.113 153.436 488.31 101.207 449.885C83.6079 436.724 66.8536 421.852 53.5234 404.311C53.1067 403.771 52.69 403.231 52.2607 402.674C44.5757 392.677 37.8642 382.204 31.5234 371.311C31.1615 370.699 30.7996 370.086 30.4267 369.455C19.7149 351.173 12.6659 330.79 7.52336 310.311C7.33049 309.564 7.13761 308.816 6.93889 308.046C-0.993227 276.94 -1.62564 244.061 2.52336 212.311C2.66017 211.194 2.66017 211.194 2.79973 210.055C10.0894 152.415 43.6072 93.5441 89.4609 57.5611C91.7918 55.7785 94.1521 54.0397 96.5234 52.3111C97.1792 51.8269 97.835 51.3427 98.5107 50.8438C129.905 27.7469 165.429 11.6705 203.896 4.78276C205.583 4.47991 207.267 4.16155 208.947 3.82378C235.895 -1.5546 267.632 -1.13818 294.523 4.31109Z" fill="#1A221B"/>
<path d="M334.303 94C370.076 97.7333 407.083 108.905 431.303 137C437.176 145.037 441.266 153.544 444.303 163C444.782 164.435 444.782 164.435 445.272 165.898C454.097 197.032 441.909 232.129 426.874 259.303C411.044 286.48 390.297 311.744 365.303 331C364.312 331.785 363.32 332.57 362.299 333.379C353.908 339.989 345.194 346.084 336.303 352C335.6 352.472 334.897 352.943 334.173 353.429C320.158 362.773 305.395 370.546 290.303 378C289.469 378.413 288.635 378.825 287.776 379.25C253.875 395.778 216.05 404.467 178.428 404.5C177.597 404.504 176.767 404.509 175.911 404.513C164.4 404.539 153.563 403.357 142.303 401C141.616 400.86 140.929 400.72 140.22 400.575C123.666 397.19 107.734 390.327 94.3029 380C93.7818 379.601 93.2607 379.202 92.7238 378.791C70.9957 361.925 56.7346 338.374 52.76 310.98C51.572 300.409 52.0741 289.616 52.3029 279C52.9629 279.33 53.6229 279.66 54.3029 280C54.7894 281.774 55.1913 283.571 55.5529 285.375C59.1145 300.256 68.2611 311.07 81.0827 319.017C97.4998 328.778 115.771 331.188 134.553 331.125C136.26 331.131 136.26 331.131 138.002 331.137C196.295 331.071 254.706 304.64 301.303 271C302.344 270.254 303.386 269.507 304.459 268.738C311.883 263.297 318.849 257.382 325.774 251.329C327.079 250.194 328.399 249.076 329.721 247.961C333.672 244.613 337.134 241.091 340.475 237.133C341.72 235.68 343.004 234.258 344.319 232.867C367.999 207.739 382.061 177.185 381.647 142.633C381.398 135.202 380.195 129.446 376.303 123C375.857 122.255 375.411 121.51 374.951 120.742C373.531 118.656 372.02 116.848 370.303 115C369.702 114.346 369.102 113.693 368.483 113.02C360.096 104.777 348.408 99.2688 337.026 96.5703C336.173 96.288 336.173 96.288 335.303 96C334.973 95.34 334.643 94.68 334.303 94Z" fill="#01C47A"/>
</svg>
