<svg width="512" height="512" viewBox="0 0 512 512" fill="none" xmlns="http://www.w3.org/2000/svg">
<g clip-path="url(#clip0_3011_12)">
<path d="M199 182L202 167L187 138H22.5L1 160.5L20 195.5H182L199 182Z" fill="#1831EA" stroke="#1831EA"/>
<path d="M26.4597 349H177.507L180 356.355L147.099 381.484L129.152 406H100.239H26.4597L13 391.903V364.323L26.4597 349Z" fill="#1831EA" stroke="#1831EA"/>
<path d="M397 458.5L457 450L464 444.5V417.5H139V432L163 454L397 458.5Z" fill="#AFB1FF" stroke="#AFB1FF"/>
<path d="M250.5 155V188L369.5 247H373.5L497.5 188.5V153.5H490.5L485.5 152.5L478 150L471.5 146L463 136.5L458.5 126.5L457 115.5V50.5H430L429 95.5L421 118L406.5 135L395.5 141.5L379.5 146H365L354.5 141.5L342 135L327 121L321.5 109L317.5 94V50.5H290.5V79V107V121L288 131L284.5 137L280.5 141.5L275 146L269.5 149.5L265 151L260.5 153L254 155H250.5Z" fill="#AFB1FF" stroke="#AFB1FF"/>
<path d="M301.238 35.6498C302.819 35.6333 304.4 35.6061 305.98 35.5678C322.478 35.17 322.478 35.17 327.414 39.3645C333.079 45.206 333.571 51.8996 333.504 59.6757C333.518 61.1844 333.518 61.1844 333.533 62.7236C333.561 65.9201 333.564 69.1158 333.563 72.3124C333.566 75.4982 333.576 78.6834 333.603 81.8691C333.62 83.8437 333.623 85.8184 333.61 87.793C333.7 99.7111 337.011 110.226 344.969 119.226C352.981 126.978 362.681 130.504 373.688 131.25C384.04 131.053 393.727 126.918 401.262 119.891C410.345 110.152 413.28 100.409 413.309 87.3163C413.334 85.2336 413.359 83.151 413.385 81.0683C413.414 77.812 413.438 74.5558 413.456 71.2995C413.478 68.1382 413.518 64.9774 413.559 61.8163C413.559 60.8515 413.559 59.8867 413.559 58.8926C413.655 52.2816 414.294 46.1767 418.754 40.9413C419.351 40.4863 419.948 40.0312 420.563 39.5624C421.162 39.0893 421.761 38.6162 422.379 38.1288C427.422 34.6172 434.287 35.6952 440.238 35.6498C441.819 35.6333 443.4 35.6061 444.98 35.5678C461.53 35.1687 461.53 35.1687 466.414 39.386C472.479 45.5578 472.495 52.4301 472.478 60.6273C472.47 61.3688 472.463 62.1103 472.455 62.8742C472.433 65.2219 472.437 67.5684 472.448 69.9162C472.469 75.7453 472.452 81.5741 472.426 87.4031C472.405 92.3375 472.403 97.2711 472.429 102.206C472.434 104.502 472.409 106.798 472.384 109.095C472.374 117.226 472.936 124.252 478 131C483.762 136.479 489.165 137.538 496.906 138.461C501.331 139.232 504.833 140.789 508 144C511.762 149.521 512.58 153.407 512.508 160.013C512.514 160.898 512.521 161.783 512.527 162.695C512.543 165.649 512.53 168.602 512.518 171.556C512.523 173.679 512.53 175.801 512.539 177.924C512.557 183.682 512.55 189.441 512.537 195.199C512.527 201.231 512.537 207.263 512.543 213.294C512.55 223.427 512.541 233.559 512.522 243.691C512.5 255.393 512.507 267.095 512.529 278.797C512.547 288.853 512.55 298.908 512.539 308.964C512.533 314.965 512.532 320.967 512.545 326.969C512.557 332.615 512.549 338.261 512.526 343.908C512.52 345.976 512.522 348.044 512.531 350.112C512.585 363.959 512.196 374.487 502.223 385.019C495.933 390.624 489.608 393.162 481.25 393.062C480.265 393.053 479.28 393.044 478.266 393.035C477.518 393.023 476.77 393.012 476 393C476.011 394.311 476.021 395.622 476.032 396.972C476.068 401.874 476.091 406.775 476.11 411.677C476.12 413.791 476.134 415.905 476.151 418.019C476.176 421.073 476.187 424.126 476.195 427.18C476.206 428.112 476.216 429.045 476.227 430.006C476.228 439.728 475.057 449.1 469 457C459.208 466.467 448.9 467.153 435.926 467.134C434.266 467.137 434.266 467.137 432.572 467.14C428.868 467.147 425.163 467.146 421.459 467.145C418.801 467.148 416.143 467.152 413.485 467.155C407.015 467.164 400.546 467.166 394.076 467.167C388.813 467.167 383.551 467.17 378.288 467.173C363.348 467.181 348.409 467.186 333.469 467.185C332.664 467.185 331.859 467.185 331.03 467.185C330.224 467.185 329.419 467.185 328.588 467.185C315.542 467.185 302.496 467.194 289.45 467.208C276.037 467.223 262.623 467.23 249.21 467.229C241.686 467.228 234.163 467.231 226.64 467.242C220.231 467.251 213.823 467.253 207.414 467.246C204.15 467.243 200.885 467.244 197.621 467.252C154.574 467.346 154.574 467.346 137.75 450.785C137.173 450.196 136.595 449.607 136 449C135.944 450.268 135.944 450.268 135.887 451.562C135.009 466.711 135.009 466.711 130.574 471.559C124.319 477.038 117.679 476.219 109.859 476.24C107.706 476.25 105.553 476.281 103.401 476.312C102.021 476.319 100.641 476.324 99.2619 476.328C97.3896 476.342 97.3896 476.342 95.4794 476.356C90.4725 475.843 87.2026 474.269 83.7502 470.625C80.0595 465.089 79.7341 460.661 79.8752 454.187C79.8842 453.399 79.8932 452.611 79.9025 451.799C79.9259 449.866 79.9618 447.933 80.0002 446C79.2383 446.035 78.4765 446.07 77.6916 446.105C67.4703 446.373 60.0941 444.821 52.0822 438.226C45.4214 431.103 42.8084 422.192 42.9377 412.625C42.9467 411.751 42.9557 410.877 42.965 409.976C42.9766 409.324 42.9882 408.672 43.0002 408C42.0566 408.058 41.113 408.116 40.1408 408.176C28.7297 408.577 20.0955 406.732 11.0627 399.187C3.65168 392.045 -0.128652 384.408 -0.430742 373.948C-0.461336 364.035 1.2117 355.809 7.25017 347.625C27.7049 328.1 51.0916 335 80.0002 335C80.0002 292.76 80.0002 250.52 80.0002 207C64.8202 207 49.6402 207 34.0002 207C22.1153 204.623 13.5801 201.736 6.00017 192C1.73533 184.849 -0.193866 178.895 -0.249834 170.562C-0.280772 169.417 -0.280772 169.417 -0.312334 168.248C-0.336127 164.831 -0.30832 162.585 1.30485 159.523C4.02945 157.075 6.41711 157.062 10.0002 157C12.8752 158.25 12.8752 158.25 15.0002 160C16.0795 163.238 16.1741 165.846 16.3127 169.25C16.8654 176.787 18.4036 180.403 23.8127 185.812C31.3378 190.977 39.3434 190.292 48.162 190.275C49.5983 190.279 51.0347 190.284 52.471 190.29C56.3574 190.303 60.2436 190.304 64.1301 190.302C67.3805 190.3 70.6309 190.305 73.8813 190.31C81.5522 190.321 89.223 190.322 96.894 190.316C104.795 190.31 112.696 190.322 120.596 190.343C127.392 190.361 134.188 190.367 140.984 190.364C145.038 190.362 149.091 190.364 153.144 190.378C156.957 190.391 160.77 190.389 164.582 190.376C165.977 190.373 167.372 190.376 168.767 190.384C177.648 190.433 184.994 190.222 192.313 184.687C196.891 180.109 198.194 176.525 198.5 170.125C198.325 164.231 197.111 160.279 193 156C186.764 150.878 180.886 149.876 172.904 149.873C171.704 149.87 170.504 149.867 169.268 149.864C167.965 149.866 166.662 149.868 165.319 149.871C163.922 149.869 162.526 149.867 161.129 149.865C157.346 149.861 153.563 149.862 149.779 149.866C145.813 149.868 141.846 149.866 137.879 149.864C131.216 149.862 124.554 149.865 117.891 149.87C110.201 149.875 102.511 149.873 94.8206 149.868C88.2073 149.863 81.5939 149.863 74.9806 149.865C71.0356 149.867 67.0906 149.867 63.1456 149.864C59.434 149.861 55.7223 149.863 52.0107 149.869C50.0084 149.87 48.0061 149.868 46.0038 149.864C39.8925 149.879 34.0494 150.171 28.0002 151C24.5567 150.235 23.3826 149.459 21.1252 146.75C19.7179 143.31 19.9256 141.531 21.0002 138C22.9175 135.473 23.9152 135.028 27.0002 134C29.7388 133.929 32.4504 133.906 35.1877 133.937C35.9373 133.942 36.6868 133.946 37.4592 133.951C39.3062 133.963 41.1532 133.981 43.0002 134C42.948 133.126 42.948 133.126 42.8947 132.234C42.5596 122.085 44.1605 112.861 50.8986 104.976C57.8014 98.4842 64.4256 95.8442 73.7502 95.9374C75.5059 95.951 75.5059 95.951 77.297 95.9648C78.1891 95.9764 79.0811 95.988 80.0002 95.9999C79.9654 94.8539 79.9306 93.708 79.8947 92.5273C79.8665 90.9973 79.8392 89.4674 79.8127 87.9374C79.7875 87.1852 79.7624 86.4331 79.7365 85.6581C79.6594 79.723 80.4629 74.8793 84.5353 70.2577C89.4423 66.6183 92.1981 65.8257 98.2033 65.7616C98.9187 65.7536 99.6341 65.7455 100.371 65.7372C101.888 65.7233 103.404 65.7126 104.921 65.7048C107.228 65.6876 109.533 65.6437 111.84 65.5995C113.315 65.5894 114.791 65.5809 116.266 65.5741C116.95 65.5566 117.635 65.5391 118.34 65.5211C123.354 65.5435 126.141 66.8664 130 69.9999C134.736 76.1433 135.15 80.6767 135.063 88.2499C135.058 88.995 135.054 89.7401 135.049 90.5077C135.037 92.3385 135.019 94.1692 135 95.9999C135.823 95.9535 136.645 95.9071 137.492 95.8593C146.887 95.5555 154.099 96.8531 161.75 102.5C169.412 109.799 171.596 118.75 171.951 128.919C171.986 130.613 171.996 132.306 172 134C172.979 133.965 173.957 133.93 174.965 133.894C186.767 133.651 195.014 134.907 204 143C211.743 150.618 215.213 158.76 215.313 169.562C215.301 180.91 212.363 188.569 204.371 196.836C185.797 213.788 157.951 207 135 207C135 249.24 135 291.48 135 335C151.17 335 167.34 335 184 335C194 338 194 338 197 339C199.233 337.938 201.253 336.834 203.356 335.555C203.976 335.188 204.597 334.821 205.236 334.443C207.226 333.263 209.207 332.069 211.188 330.875C212.503 330.093 213.819 329.311 215.135 328.531C219.642 325.872 219.642 325.872 224.087 323.111C226 322 226 322 228.061 321.246C230.655 320.129 232.144 319.151 234 317C235.232 311.826 235.039 306.663 234.953 301.381C234.955 299.764 234.962 298.148 234.971 296.531C234.984 293.053 234.972 289.576 234.939 286.097C234.889 280.596 234.894 275.096 234.906 269.595C234.919 260.894 234.893 252.193 234.852 243.491C234.779 227.911 234.766 212.331 234.774 196.752C234.775 191.285 234.759 185.818 234.727 180.351C234.709 176.948 234.704 173.546 234.701 170.143C234.697 168.567 234.688 166.991 234.673 165.415C234.653 163.26 234.652 161.106 234.655 158.952C234.649 157.747 234.644 156.542 234.638 155.301C235.288 149.379 238.064 145.023 242.582 141.305C246.324 139.286 250.271 138.795 254.434 138.108C261.318 136.917 265.618 134.507 270.375 129.5C274.272 123.505 274.353 118.17 274.479 111.238C274.643 106.701 275.086 103.693 278 99.9999C281 97.9999 281 97.9999 284.5 98.1874C288.025 99.0056 288.926 99.2215 291 102C293.076 113.177 292.404 127.439 286 137C276.703 149.479 267.016 153.497 252 156C251.67 166.56 251.34 177.12 251 188C253.97 188.99 256.94 189.98 260 191C261.614 191.687 263.215 192.408 264.788 193.185C265.615 193.591 266.442 193.996 267.293 194.413C268.158 194.844 269.023 195.275 269.914 195.719C270.838 196.173 271.762 196.627 272.713 197.095C274.675 198.061 276.635 199.029 278.594 199.999C282.682 202.023 286.777 204.035 290.871 206.048C292.881 207.037 294.891 208.026 296.901 209.016C303.646 212.339 310.401 215.638 317.188 218.875C318.012 219.268 318.837 219.662 319.687 220.067C325.307 222.738 330.939 225.384 336.57 228.031C337.33 228.388 338.09 228.746 338.873 229.114C342.65 230.889 346.427 232.663 350.206 234.433C350.906 234.761 351.605 235.09 352.326 235.428C353.69 236.068 355.056 236.707 356.422 237.344C361.004 239.492 365.48 241.792 369.893 244.272C373.456 245.503 376.09 244.378 379.466 242.975C380.328 242.554 381.19 242.133 382.078 241.699C383.061 241.223 384.044 240.747 385.057 240.256C386.111 239.738 387.164 239.221 388.25 238.687C390.516 237.587 392.781 236.487 395.047 235.387C396.204 234.823 397.361 234.258 398.553 233.677C403.858 231.096 409.179 228.549 414.5 226C416.584 225 418.667 224 420.75 223C424.917 221 429.083 219 433.25 217C434.282 216.505 435.314 216.009 436.377 215.499C438.455 214.502 440.533 213.504 442.612 212.507C447.896 209.971 453.179 207.434 458.461 204.894C470.956 198.89 483.466 192.922 496 187C496 176.44 496 165.88 496 155C493.69 155 491.38 155 489 155C477.329 152.714 468.536 147.38 461.614 137.666C455.663 127.833 455.409 116.822 455.426 105.672C455.413 104.146 455.399 102.62 455.383 101.094C455.345 97.1224 455.33 93.1513 455.32 89.1798C455.3 82.7828 455.244 76.386 455.191 69.9892C455.176 67.7594 455.169 65.5297 455.163 63.2999C455.156 61.947 455.149 60.5941 455.142 59.2411C455.139 58.0568 455.135 56.8724 455.131 55.6522C455.301 53.0775 455.301 53.0775 454 51.9999C452.462 51.9009 450.92 51.8691 449.379 51.8671C448.444 51.8658 447.509 51.8645 446.545 51.8632C445.069 51.869 445.069 51.869 443.563 51.8749C442.582 51.871 441.602 51.8672 440.592 51.8632C439.655 51.8645 438.719 51.8658 437.754 51.8671C436.891 51.8682 436.028 51.8694 435.139 51.8705C432.948 51.8627 432.948 51.8627 431 52.9999C430.997 53.5576 430.993 54.1154 430.989 54.69C430.947 60.5642 430.877 66.4377 430.793 72.3114C430.765 74.4953 430.743 76.6792 430.729 78.8632C430.585 99.9189 428.195 115.84 413.285 131.746C402.347 142.535 388.804 147.86 373.438 148.375C357.145 147.847 342.117 141.014 330.914 129.254C320.437 116.917 316.945 103.454 316.719 87.6054C316.7 86.6174 316.682 85.6295 316.663 84.6116C316.585 80.3984 316.516 76.1851 316.448 71.9718C316.396 68.8913 316.339 65.8108 316.281 62.7304C316.261 61.2899 316.261 61.2899 316.24 59.8203C316.224 58.9388 316.207 58.0573 316.19 57.1491C316.171 55.9804 316.171 55.9804 316.152 54.7882C316.192 52.9766 316.192 52.9766 315 51.9999C313.462 51.9009 311.92 51.8691 310.379 51.8671C309.444 51.8658 308.509 51.8645 307.545 51.8632C306.069 51.869 306.069 51.869 304.563 51.8749C303.582 51.871 302.602 51.8672 301.592 51.8632C300.655 51.8645 299.719 51.8658 298.754 51.8671C297.891 51.8682 297.028 51.8694 296.139 51.8705C293.948 51.8627 293.948 51.8627 292 52.9999C291.986 54.1954 291.986 54.1954 291.972 55.415C291.918 59.0272 291.834 62.6382 291.75 66.2499C291.736 67.5042 291.722 68.7584 291.707 70.0507C291.675 71.256 291.643 72.4612 291.61 73.703C291.578 75.3683 291.578 75.3683 291.546 77.0673C290.882 80.6366 289.88 81.8426 287 83.9999C283.247 84.4691 280.962 84.5313 277.625 82.6874C273.324 78.2212 274.774 70.5766 274.75 64.8124C274.719 63.0016 274.719 63.0016 274.688 61.1542C274.655 53.6175 274.638 46.9464 279.754 40.9413C280.351 40.4863 280.948 40.0312 281.563 39.5624C282.162 39.0893 282.761 38.6162 283.379 38.1288C288.422 34.6172 295.287 35.6952 301.238 35.6498ZM96.0002 81.9999C96.0002 86.6199 96.0002 91.2399 96.0002 95.9999C103.59 95.9999 111.18 95.9999 119 95.9999C119 91.3799 119 86.7599 119 81.9999C111.41 81.9999 103.82 81.9999 96.0002 81.9999ZM63.0002 116C58.608 121.856 59.0002 126.535 59.0002 134C91.0102 134 123.02 134 156 134C156.197 124.243 156.197 124.243 151.625 116.187C146.928 112.273 143.928 111.745 137.772 111.709C137.052 111.703 136.331 111.696 135.588 111.689C133.208 111.67 130.829 111.666 128.449 111.664C126.79 111.658 125.131 111.651 123.472 111.644C119.995 111.632 116.517 111.628 113.039 111.629C108.594 111.63 104.149 111.602 99.7042 111.568C96.2768 111.545 92.8496 111.541 89.4222 111.543C87.784 111.54 86.1458 111.531 84.5077 111.516C82.2101 111.496 79.9138 111.502 77.6161 111.514C76.3114 111.511 75.0066 111.508 73.6623 111.505C69.1069 112.121 66.7916 113.434 63.0002 116ZM251 206C251 239.33 251 272.66 251 307C259.08 302.999 259.08 302.999 266.762 298.519C268.223 297.61 268.223 297.61 269.713 296.682C271.71 295.427 273.705 294.169 275.697 292.908C285.759 286.657 293.559 285.616 305.313 285.562C306.58 285.53 307.848 285.497 309.154 285.463C318.468 285.41 325.634 286.69 332.426 293.394C334.248 296.411 335.732 299.478 337.188 302.687C343.136 315.053 352.6 324.161 365.625 328.937C376.69 331.761 388.792 331.152 399 326C399.861 325.576 400.722 325.152 401.61 324.715C412.596 318.739 417.862 310.078 423 299C425.824 293.311 428.634 289.343 434.711 286.918C443.302 284.52 452.853 284.956 460.922 288.816C467.783 292.724 471.41 297.621 474 305C475.276 312.625 475.224 320.286 475.317 328C475.337 329.446 475.358 330.892 475.38 332.338C475.434 336.119 475.484 339.9 475.532 343.681C475.583 347.549 475.638 351.417 475.694 355.285C475.801 362.857 475.902 370.428 476 378C477.762 377.723 479.522 377.434 481.281 377.141C482.262 376.981 483.242 376.821 484.252 376.657C488.424 375.659 490.117 374.171 493 371C495.629 366.576 496.373 363.365 496.361 358.242C496.363 357.588 496.366 356.933 496.369 356.259C496.374 354.08 496.357 351.902 496.341 349.723C496.34 348.156 496.34 346.588 496.342 345.021C496.343 340.775 496.325 336.53 496.304 332.285C496.286 327.845 496.284 323.404 496.28 318.964C496.271 310.56 496.246 302.156 496.216 293.752C496.183 284.182 496.166 274.613 496.151 265.044C496.12 245.362 496.067 225.681 496 206C491.326 207.512 486.967 209.355 482.567 211.527C481.861 211.872 481.155 212.217 480.427 212.572C478.919 213.308 477.412 214.047 475.905 214.787C472.738 216.343 469.566 217.89 466.395 219.438C464.808 220.213 463.222 220.987 461.636 221.763C455.398 224.811 449.143 227.825 442.875 230.812C441.061 231.677 439.248 232.542 437.434 233.406C436.547 233.829 435.66 234.252 434.746 234.687C430.838 236.555 426.938 238.438 423.037 240.32C418.854 242.334 414.664 244.336 410.473 246.336C408.008 247.517 405.546 248.703 403.086 249.894C399.688 251.539 396.284 253.17 392.876 254.793C391.555 255.425 390.236 256.062 388.919 256.703C387.074 257.601 385.222 258.482 383.367 259.359C382.306 259.869 381.245 260.38 380.152 260.905C375.094 262.662 371.065 262.643 366.174 260.522C364.786 259.845 363.406 259.153 362.031 258.449C360.908 257.895 360.908 257.895 359.762 257.329C357.335 256.127 354.918 254.908 352.5 253.687C350.819 252.852 349.137 252.018 347.454 251.185C344.133 249.54 340.814 247.89 337.498 246.235C331.945 243.469 326.355 240.784 320.75 238.125C318.952 237.268 317.154 236.412 315.356 235.555C314.481 235.138 313.606 234.721 312.705 234.292C309.859 232.932 307.017 231.565 304.176 230.195C292.722 224.674 281.247 219.197 269.745 213.779C268.295 213.095 266.846 212.41 265.397 211.724C263.372 210.765 261.345 209.812 259.317 208.859C258.146 208.307 256.974 207.755 255.768 207.186C253.196 205.869 253.196 205.869 251 206ZM96.0002 207C96.0002 249.24 96.0002 291.48 96.0002 335C103.59 335 111.18 335 119 335C119 292.76 119 250.52 119 207C111.41 207 103.82 207 96.0002 207ZM306 301C305.902 301.918 305.804 302.836 305.703 303.781C304.332 315.039 304.332 315.039 301.813 319.562C299.76 322.713 299.76 322.713 300.189 325.428C301.103 328.326 302.318 330.171 304.16 332.582C305.103 333.857 305.103 333.857 306.065 335.158C307.392 336.922 308.728 338.68 310.072 340.432C315.436 347.736 315.436 347.736 315.535 352.512C315 356 315 356 313.375 358C310.245 359.318 308.37 359.55 305 359C300.075 354.831 296.752 349.516 293.188 344.187C292.291 342.862 292.291 342.862 291.377 341.51C289.913 339.343 288.454 337.173 287 335C283.793 335.731 281.519 336.763 278.75 338.562C277.691 339.245 277.691 339.245 276.61 339.941C276.078 340.291 275.547 340.64 275 341C276.376 344.885 278.174 347.841 280.649 351.129C284.754 356.658 288.706 362.276 292.625 367.937C294.019 369.947 295.414 371.956 296.809 373.965C297.853 375.469 297.853 375.469 298.918 377.003C302.165 381.676 305.425 386.339 308.688 391C309.251 391.805 309.815 392.611 310.395 393.441C311.444 394.939 312.501 396.432 313.565 397.92C315 400 315 400 316.21 402.098C318.343 405.658 318.343 405.658 321.888 407.542C324.074 407.689 326.13 407.615 328.313 407.437C329.424 407.39 329.424 407.39 330.557 407.342C332.373 407.26 334.187 407.134 336 407C334.618 403.092 332.799 400.119 330.313 396.812C329.253 395.378 329.253 395.378 328.172 393.914C326.769 392.031 325.363 390.151 323.953 388.273C323.329 387.42 322.705 386.567 322.063 385.687C321.497 384.928 320.931 384.169 320.348 383.387C318.745 380.548 318.28 378.237 318 375C318.938 372.125 318.938 372.125 321 370C326.27 369.15 326.27 369.15 329 370C333.708 373.93 336.868 378.931 340.25 384C341.856 386.383 343.461 388.76 345.125 391.103C347 394 347 394 348.485 397.312C350.509 401.264 352.3 404.449 356 407C363.502 409.402 371.867 408.508 379.629 408.269C381.948 408.245 384.267 408.227 386.586 408.214C392.668 408.164 398.747 408.037 404.829 407.893C411.042 407.759 417.256 407.7 423.471 407.635C435.649 407.496 447.824 407.274 460 407C460.07 394.882 460.123 382.764 460.156 370.646C460.171 365.019 460.192 359.392 460.226 353.765C460.259 348.331 460.277 342.898 460.285 337.464C460.29 335.394 460.301 333.324 460.317 331.254C460.339 328.348 460.342 325.443 460.341 322.537C460.352 321.687 460.362 320.837 460.373 319.961C460.344 314.321 459.367 310.142 457 305C452.773 300.876 449.008 300.539 443.367 300.469C440.096 301.203 439.073 302.367 437 305C435.696 307.529 434.488 310.039 433.313 312.625C426.28 327.197 415.094 336.814 399.938 342.5C383.359 348.018 364.9 346.046 349.375 338.437C336.125 330.632 328.309 320.001 321.688 306.312C320.243 302.808 320.243 302.808 317 301C314.255 300.758 314.255 300.758 311.313 300.875C310.319 300.893 309.325 300.911 308.301 300.93C307.542 300.953 306.782 300.976 306 301ZM282.887 306.559C282.255 306.934 281.622 307.309 280.971 307.696C278.875 308.941 276.781 310.189 274.688 311.437C273.223 312.309 271.759 313.18 270.295 314.051C260.039 320.159 249.825 326.335 239.635 332.553C233.222 336.462 226.784 340.325 220.317 344.144C219.586 344.576 218.855 345.008 218.102 345.453C214.536 347.56 210.966 349.662 207.393 351.758C206.096 352.522 204.8 353.286 203.504 354.051C202.368 354.718 201.232 355.384 200.061 356.071C197.191 357.88 194.599 359.824 192 362C194.427 364.426 195.982 364.997 199.406 365.519C205.789 365.371 210.76 361.482 216 358.187C217.177 357.466 218.355 356.746 219.534 356.028C222.049 354.495 224.558 352.954 227.065 351.409C233.066 347.721 239.143 344.16 245.209 340.581C249.241 338.198 253.26 335.795 257.282 333.395C261.506 330.879 265.748 328.398 270 325.93C272.084 324.703 274.167 323.477 276.25 322.25C277.19 321.714 278.13 321.178 279.099 320.626C284.531 317.397 287.515 314.876 290 309C290.337 305.706 290.337 305.706 290 303C287.607 303 284.943 305.332 282.887 306.559ZM253.875 353C252.51 353.835 252.51 353.835 251.117 354.687C250.419 355.121 249.72 355.554 249 356C254.394 364.794 260.305 373.172 266.281 381.575C269.414 385.995 272.519 390.435 275.625 394.875C276.229 395.737 276.833 396.6 277.455 397.488C278.019 398.294 278.583 399.099 279.164 399.93C279.664 400.644 280.164 401.358 280.678 402.093C281.804 403.716 282.905 405.357 284 407C286.789 407.221 289.347 407.281 292.125 407.187C292.879 407.174 293.633 407.16 294.41 407.146C296.274 407.111 298.137 407.057 300 407C296.7 400.513 292.764 394.813 288.43 388.999C285.038 384.441 281.764 379.819 278.563 375.125C277.659 373.804 276.756 372.484 275.852 371.164C275.393 370.494 274.935 369.824 274.462 369.134C271.799 365.247 269.128 361.368 266.438 357.5C265.925 356.751 265.412 356.002 264.883 355.231C263.64 353.451 262.326 351.72 261 350C258.056 350 256.361 351.47 253.875 353ZM20.0002 359C15.8402 364.051 15.5984 368.525 15.6525 374.918C16.3184 380.821 19.3057 384.39 23.5002 388.375C28.4027 391.562 32.2767 392.253 38.1137 392.287C39.1585 392.297 39.1586 392.297 40.2245 392.308C41.7299 392.321 43.2353 392.33 44.7407 392.335C47.1241 392.344 49.5071 392.364 51.8904 392.388C57.807 392.444 63.7237 392.48 69.6405 392.516C74.6465 392.547 79.6524 392.586 84.6582 392.636C87.0048 392.656 89.3511 392.664 91.6977 392.672C93.1371 392.685 94.5766 392.699 96.016 392.713C97.2711 392.72 98.5263 392.727 99.8194 392.735C102.827 392.986 104.528 393.317 107 395C108.525 398.05 108.236 400.642 108 404C106.433 406.16 105.532 406.899 102.893 407.399C102.083 407.41 101.272 407.421 100.437 407.432C99.5162 407.452 98.5955 407.472 97.6469 407.492C96.6561 407.499 95.6654 407.505 94.6447 407.512C93.6279 407.53 92.6112 407.548 91.5636 407.566C88.3133 407.62 85.0632 407.654 81.8127 407.687C79.6102 407.721 77.4077 407.755 75.2052 407.791C69.8037 407.876 64.4021 407.944 59.0002 408C58.9661 409.42 58.9421 410.841 58.922 412.262C58.9075 413.053 58.893 413.844 58.8781 414.659C59.1206 419.309 60.9469 422.743 63.9377 426.312C67.8013 429.474 70.6036 430.249 75.5949 430.227C76.7158 430.227 77.8366 430.227 78.9914 430.227C80.1957 430.216 81.4 430.206 82.6408 430.195C83.8781 430.192 85.1154 430.19 86.3902 430.187C89.6717 430.177 92.9529 430.159 96.2343 430.137C99.5859 430.117 102.938 430.108 106.289 430.098C112.86 430.076 119.43 430.042 126 430C125.859 429.265 125.717 428.529 125.571 427.772C125.388 426.796 125.205 425.821 125.016 424.816C124.833 423.854 124.65 422.892 124.462 421.901C122.294 408.286 125.782 393.875 133.875 382.687C134.91 381.452 135.952 380.224 137 379C137.416 378.49 137.832 377.979 138.261 377.454C144.346 370.68 152.568 366.657 160.375 362.187C162.603 360.904 164.829 359.617 167.051 358.324C168.426 357.525 169.805 356.731 171.188 355.944C174.685 354.076 174.685 354.076 177 351C158.363 350.93 139.726 350.877 121.089 350.844C112.435 350.829 103.781 350.808 95.1271 350.774C87.5826 350.744 80.0382 350.724 72.4936 350.718C68.5004 350.714 64.5074 350.705 60.5142 350.683C56.7517 350.662 52.9894 350.656 49.2268 350.661C47.1958 350.659 45.1649 350.643 43.134 350.627C33.5638 350.659 26.5471 351.331 20.0002 359ZM228.875 368C227.51 368.835 227.51 368.835 226.117 369.687C225.419 370.121 224.72 370.554 224 371C225.891 376.775 229.594 381.328 233.138 386.179C235.758 389.782 238.259 393.346 240.453 397.226C243.987 403.743 243.987 403.743 249.991 407.588C254.746 408.185 259.286 407.737 264 407C262.5 402.525 260.018 399.086 257.188 395.375C252.616 389.269 248.231 383.055 243.938 376.75C243.378 375.928 242.818 375.106 242.241 374.259C240.149 371.181 238.065 368.097 236 365C233.056 365 231.361 366.47 228.875 368ZM148.848 388.918C143.565 394.87 141.99 399.041 140 407C169.04 407 198.08 407 228 407C226.68 404.69 225.36 402.38 224 400C223.515 399.132 223.03 398.264 222.531 397.369C216.92 386.528 216.92 386.528 207.847 379.164C204.125 378.674 200.642 379.111 196.942 379.609C191.231 380.175 187.482 378.433 183 375C180.5 372.187 180.5 372.187 179 370C169.687 370 155.355 382.548 148.848 388.918ZM141 423C142.457 431.74 147.233 438.28 154.195 443.758C163.841 450.397 174.057 451.303 185.52 451.261C186.638 451.264 187.757 451.268 188.909 451.272C192.634 451.282 196.359 451.279 200.085 451.275C202.765 451.279 205.444 451.284 208.124 451.29C214.633 451.303 221.142 451.305 227.651 451.302C232.941 451.3 238.232 451.302 243.522 451.306C244.276 451.307 245.031 451.308 245.808 451.308C247.34 451.31 248.873 451.311 250.405 451.312C264.757 451.323 279.108 451.321 293.46 451.315C306.585 451.309 319.709 451.321 332.834 451.34C346.324 451.359 359.813 451.367 373.302 451.364C380.871 451.362 388.439 451.364 396.007 451.378C402.447 451.39 408.886 451.392 415.325 451.379C418.609 451.374 421.893 451.374 425.177 451.384C428.739 451.395 432.3 451.387 435.862 451.374C436.897 451.382 437.932 451.389 438.998 451.396C445.862 451.345 450.716 450.485 456.313 446.25C461.588 439.216 460 431.766 460 423C354.73 423 249.46 423 141 423ZM96.0002 446C96.0002 450.62 96.0002 455.24 96.0002 460C103.59 460 111.18 460 119 460C119 455.38 119 450.76 119 446C111.41 446 103.82 446 96.0002 446Z" fill="black"/>
<path d="M363.938 167.5C365.143 167.49 366.348 167.479 367.59 167.469C371.586 168.091 373.186 169.141 376 172C378.47 175.654 378.258 179.358 378.195 183.609C378.192 184.336 378.19 185.063 378.187 185.812C378.176 188.125 378.15 190.437 378.125 192.75C378.115 194.322 378.106 195.893 378.098 197.465C378.076 201.31 378.041 205.155 378 209C378.949 209.103 379.897 209.206 380.875 209.312C384 210 384 210 386 213C386.332 216.647 386.473 219.101 384.75 222.375C380.824 226.02 375.105 225.183 370.062 225.188C369.264 225.2 368.465 225.212 367.643 225.225C363.332 225.235 359.884 225.1 356 223C353.597 220.597 353.679 219.861 353.625 216.562C353.72 212.33 353.72 212.33 355.75 209.938C358 209 358 209 362 209C362 200.75 362 192.5 362 184C359.03 183.505 359.03 183.505 356 183C353.242 180.61 353.018 179.148 352.562 175.5C353 172 353 172 354.594 169.812C357.819 167.383 359.933 167.466 363.938 167.5Z" fill="black"/>
</g>
<defs>
<clipPath id="clip0_3011_12">
<rect width="512" height="512" fill="white"/>
</clipPath>
</defs>
</svg>
