<svg width="512" height="512" viewBox="0 0 512 512" fill="none" xmlns="http://www.w3.org/2000/svg">
<g clip-path="url(#clip0_3019_2)">
<path d="M225.715 -0.363281C226.861 -0.364248 228.006 -0.365215 229.187 -0.366211C230.424 -0.348486 231.662 -0.330762 232.937 -0.3125C234.23 -0.301221 235.523 -0.289941 236.854 -0.27832C272.3 0.144611 307.344 4.80067 342 12C343.234 12.2562 344.468 12.5124 345.739 12.7764C400.396 24.3525 454.519 44.4867 502.875 72.5625C503.577 72.9682 504.279 73.3738 505.003 73.7917C508.12 75.6518 509.956 76.9336 512 80C513.665 89.0439 510.089 98.4875 507.723 107.133C507.272 108.813 506.823 110.493 506.375 112.174C505.191 116.6 503.992 121.022 502.79 125.443C501.602 129.824 500.43 134.209 499.256 138.594C496.535 148.738 493.779 158.872 491 169C490.676 170.181 490.676 170.181 490.345 171.386C489.114 175.868 487.875 180.348 486.627 184.826C486.253 186.167 485.881 187.508 485.51 188.849C475.795 223.941 457.84 252.637 433 279C432.272 279.782 431.543 280.565 430.793 281.371C406.37 306.791 367.41 329.937 332 334C332.052 334.99 332.052 334.99 332.105 336C333.416 383.929 313.467 434.182 281.374 469.486C279.912 471.096 278.476 472.727 277.039 474.359C270.859 481.301 264.361 487.293 257 493C256.237 493.641 255.474 494.281 254.687 494.941C252.179 497.038 249.594 499.011 247 501C246.179 501.702 246.179 501.702 245.341 502.419C233.096 512.812 222.026 513.515 206.334 512.297C205.234 512.199 204.134 512.101 203 512C201.991 511.913 200.982 511.827 199.943 511.738C174.175 509.312 149.738 501.206 127 489C125.298 488.112 125.298 488.112 123.562 487.207C106.933 478.18 92.4007 466.271 79 453C78.3984 452.41 77.7968 451.82 77.177 451.213C60.9178 435.157 48.523 415.508 38.4375 395.125C38.0147 394.296 37.592 393.467 37.1565 392.614C26.3299 370.14 21.2516 344.561 14.949 320.536C13.7792 316.083 12.6022 311.631 11.4257 307.18C10.0983 302.155 8.77145 297.13 7.44973 292.103C7.25022 291.344 7.05072 290.586 6.84516 289.804C6.45633 288.325 6.06801 286.845 5.68025 285.365C4.75052 281.823 3.80808 278.285 2.83847 274.753C2.56117 273.737 2.56117 273.737 2.27827 272.7C1.77709 270.866 1.27101 269.034 0.764552 267.202C-0.260312 262.91 -1.26123 258.308 -3.5882e-05 254C4.06552 248.815 9.631 246.163 15.375 243.125C16.4215 242.567 17.4681 242.009 18.5464 241.434C69.7936 214.374 123.893 194.425 181 184C180.931 183.425 180.861 182.849 180.79 182.256C178.204 159.009 179.807 135.347 185.355 112.648C185.606 111.615 185.856 110.582 186.115 109.518C190.354 92.2643 194.969 75.1036 199.542 57.9365C200.928 52.7326 202.303 47.5261 203.677 42.319C204.745 38.277 205.82 34.2369 206.897 30.1973C207.407 28.2763 207.916 26.3546 208.421 24.4322C209.124 21.7636 209.837 19.0979 210.551 16.4326C210.858 15.2561 210.858 15.2561 211.17 14.0559C212.521 9.07423 214.054 4.90318 217.83 1.21021C220.615 -0.342865 222.533 -0.372678 225.715 -0.363281ZM232 21C226.558 39.2323 221.508 57.5615 216.574 75.9365C215.733 79.0672 214.886 82.1963 214.035 85.3242C204.412 119.253 204.412 119.253 200.867 154.199C200.866 155.263 200.865 156.327 200.863 157.424C200.867 158.501 200.871 159.578 200.875 160.688C200.871 161.776 200.867 162.865 200.863 163.986C200.87 169.431 201.033 174.638 202 180C211.632 179.371 221.213 178.505 230.812 177.5C252.686 175.274 252.686 175.274 263 175C264.135 174.967 265.27 174.935 266.439 174.901C270.376 174.803 274.312 174.74 278.25 174.688C279.526 174.658 280.801 174.628 282.115 174.597C283.32 174.589 284.525 174.582 285.766 174.574C287.386 174.552 287.386 174.552 289.04 174.53C292.71 175.113 294.354 176.445 297 179C297.33 179.66 297.66 180.32 298 181C299.27 181.026 300.539 181.052 301.848 181.078C323.439 181.704 342.779 187.117 359 202C359.755 202.664 360.511 203.328 361.289 204.012C371.93 213.903 381.538 228.705 382.625 243.562C382 247 382 247 380.062 250C376.484 252.337 374.356 252.559 370.184 252.566C367.085 251.763 365.977 250.51 364 248C362.956 245.621 362.045 243.316 361.187 240.875C355.307 225.347 344.2 212.98 329 206C320.586 202.825 312.958 201.469 304 202C305.442 210.211 307.596 218.212 309.793 226.244C310.445 228.632 311.092 231.021 311.738 233.411C313.571 240.2 315.41 246.987 317.263 253.771C318.621 258.744 319.968 263.72 321.305 268.699C321.52 269.503 321.736 270.306 321.958 271.134C325.225 283.371 327.912 295.583 329.566 308.156C329.962 310.322 329.962 310.322 332 313C360.456 305.743 385.95 292.347 408 273C408.557 272.516 409.113 272.033 409.686 271.535C433.353 250.86 451.981 223.799 461.856 193.846C462.237 192.694 462.237 192.694 462.626 191.518C465.802 181.747 468.418 171.825 471.055 161.898C471.606 159.839 472.158 157.78 472.71 155.72C474.145 150.366 475.574 145.009 477.001 139.653C478.465 134.161 479.936 128.67 481.406 123.18C484.277 112.455 487.141 101.728 490 91C486.05 87.7488 482.047 85.2977 477.48 83.0234C476.754 82.6566 476.027 82.2897 475.279 81.9118C472.919 80.7248 470.554 79.5487 468.187 78.375C467.376 77.9713 466.565 77.5675 465.729 77.1516C452.371 70.5157 438.934 64.3435 425 59C423.886 58.5667 422.772 58.1334 421.625 57.687C361.571 34.4507 296.533 20.4067 232 21ZM245 196.188C244.236 196.253 243.473 196.318 242.686 196.385C182.373 201.612 123.426 216.629 68 241C66.8588 241.502 65.7177 242.004 64.542 242.521C61.1658 244.017 57.7995 245.534 54.4375 247.062C53.4766 247.496 52.5156 247.93 51.5256 248.377C41.41 253.064 31.7276 258.565 22 264C32.0626 302.554 32.0626 302.554 42.3919 341.037C42.8306 342.648 43.2673 344.26 43.7015 345.873C47.6239 360.417 52.069 374.837 58.625 388.438C59.0432 389.309 59.4614 390.18 59.8923 391.078C66.5224 404.494 75.1411 416.763 85 428C86.1427 429.307 86.1427 429.307 87.3086 430.641C89.5108 433.121 91.7442 435.568 94 438C94.8063 438.888 94.8063 438.888 95.6289 439.793C107.327 452.136 122.415 461.94 137.243 470.036C138.858 470.922 140.459 471.833 142.059 472.746C162.751 483.932 186.393 489.612 209.686 491.779C211.317 491.935 212.946 492.114 214.573 492.311C222.74 493.203 227.783 488.77 234 484C235.047 483.248 236.093 482.497 237.172 481.723C277.5 452.196 301.879 407.6 309.687 358.832C314.116 328.437 308.638 299.474 300.683 270.213C298.783 263.219 296.919 256.215 295.052 249.212C293.205 242.286 291.353 235.362 289.5 228.438C289.294 227.669 289.089 226.9 288.877 226.108C287.681 221.641 286.482 217.174 285.28 212.708C284.908 211.324 284.536 209.939 284.165 208.554C283.653 206.643 283.138 204.732 282.623 202.822C282.333 201.742 282.042 200.662 281.743 199.549C281.094 197.038 281.094 197.038 280 195C268.265 194.853 256.691 195.166 245 196.188Z" fill="black"/>
<path d="M251 342C254.609 344.481 255.768 345.995 256.754 350.262C257.669 364.161 246.719 379.008 238 389C237.481 389.615 236.961 390.23 236.426 390.863C223.594 404.923 202.916 413.419 184.199 414.387C161.839 415.031 142.472 409.817 125.234 395.176C121.076 391.126 118.122 387.996 118 382C119.516 377.93 121.049 374.975 125 373C130.169 372.436 132.753 373.153 137 376C138.516 377.252 140.015 378.524 141.5 379.812C155.633 391.266 171.453 393.371 189 392C203.341 389.453 216.816 381.571 225.449 369.765C230.035 363.113 233.3 356.491 235.734 348.742C238.832 342.03 244.194 340.594 251 342Z" fill="#15A455"/>
<path d="M263 284C271.34 290.68 271.34 290.68 273 294C273.581 301.09 273.581 301.09 271.125 304.937C267.696 308.266 265.071 308.452 260.434 308.422C256.801 307.792 254.74 305.861 251.969 303.535C246.934 299.609 241.305 298.336 235 299C228.441 300.484 222.642 302.958 218.837 308.78C217.791 310.726 216.817 312.689 215.875 314.687C212.625 321.533 212.625 321.533 210.039 323.465C206.25 324.459 202.763 323.934 199 323C195.524 320.827 195.094 319.339 194 315.375C193.349 306.817 198.814 298.413 204 292C218.881 275.898 244.266 271.448 263 284Z" fill="black"/>
<path d="M374 128C378.21 130.695 379.923 133.337 381.875 137.875C384.862 144.172 388.04 148.119 394.359 151.121C401.097 153.364 408.034 152.868 414.375 149.75C417.168 148.194 419.569 146.568 422.125 144.625C425.512 142.711 427.338 142.541 431.098 143.27C434.696 144.651 436.106 146.744 438 150C438.703 154.028 438.933 156.275 436.996 159.856C431.088 167.48 421.432 172.509 412 174C395.964 175.358 385.061 171.905 371.812 162.813C365.812 156.812 359.281 147.664 358.91 138.871C359.159 135.412 359.775 133.284 361.938 130.563C365.666 127.738 369.412 127.099 374 128Z" fill="black"/>
<path d="M147 315C155.34 321.68 155.34 321.68 157 325C157.581 332.089 157.581 332.089 155.125 335.937C151.694 339.267 149.069 339.451 144.43 339.422C140.811 338.793 138.79 336.846 136.023 334.539C131.183 330.858 125.942 329.694 119.937 330.062C113.121 331.077 108.099 333.23 103.75 338.687C101.72 341.609 100.282 344.524 98.9375 347.812C97.7507 350.606 97.0293 351.971 94.8125 354.125C90.6809 355.41 87.1577 355.119 83 354C79.5906 351.869 79.1066 350.351 77.9375 346.5C77.2806 337.896 82.7367 329.385 88.0547 323.031C103.218 307.198 128.082 302.325 147 315Z" fill="black"/>
<path d="M258 96.9999C262.204 99.7047 263.922 102.334 265.875 106.875C268.862 113.172 272.04 117.118 278.359 120.121C285.097 122.363 292.034 121.868 298.375 118.75C301.168 117.193 303.569 115.568 306.125 113.625C309.528 111.702 311.331 111.595 315.098 112.34C318.528 113.53 319.999 114.999 322 118C322.963 121.924 322.883 125.305 320.996 128.926C315.094 136.509 305.384 141.5 296 143C280.428 144.473 268.083 141.282 255.879 131.258C249.348 125.307 244.519 117.408 242.938 108.625C243.008 104.512 243.669 102.375 246 98.9999C249.296 96.3143 253.938 96.1074 258 96.9999Z" fill="black"/>
<path d="M309 203H305.5H304L297 181H312L315.5 182L329.5 185L340.5 189L353 196L361.5 204L371.5 215L379 227.5L381.5 235L383 240V245L381.5 250.5L378 251.5L373 253H368.5L365 250.5L363.5 247.5L361.5 242L360 238.5L358 235L356 231L353 226.5L349.5 222L346.5 219L344.5 217L342 215L338 212L334.5 209.5L331 207.5L326.5 205.5L321 204L315.5 203H311H309Z" fill="#15A455" stroke="#15A455"/>
</g>
<defs>
<clipPath id="clip0_3019_2">
<rect width="512" height="512" fill="white"/>
</clipPath>
</defs>
</svg>
