<svg width="512" height="512" viewBox="0 0 512 512" fill="none" xmlns="http://www.w3.org/2000/svg">
<g clip-path="url(#clip0_3024_2)">
<path d="M116.5 392H395V386.5L340.5 286L366 282.5L381 279L306 182.5H335.5L346.5 177L272.5 62.5L253 47L195.5 125.5L165 168.5L169 182.5L204 187L135.5 265.5V279L176 286L116.5 392Z" fill="white" stroke="white"/>
<path d="M270.586 44.1251C277.049 49.1448 281.616 56.0856 286.008 62.8946C286.563 63.7429 287.117 64.5912 287.689 65.4651C288.883 67.2915 290.075 69.1195 291.264 70.9492C294.477 75.893 297.712 80.8232 300.945 85.754C301.944 87.2778 301.944 87.2778 302.962 88.8323C309.878 99.3703 316.931 109.814 324 120.25C332.833 133.3 341.61 146.384 350.25 159.563C350.699 160.247 351.148 160.932 351.611 161.637C360.939 175.862 360.939 175.862 360 183C358.767 186.29 357.245 189.167 354.253 191.17C351.34 192.243 348.805 192.326 345.703 192.414C344.498 192.453 343.292 192.491 342.051 192.531C340.169 192.578 340.169 192.578 338.25 192.625C336.345 192.683 336.345 192.683 334.402 192.742C331.268 192.837 328.134 192.922 325 193C325.69 193.811 326.379 194.622 327.09 195.457C331.602 200.771 336.099 206.093 340.5 211.5C344.248 216.105 348.071 220.642 351.916 225.166C354.795 228.56 357.632 231.983 360.437 235.438C363.893 239.684 367.427 243.853 371 248C376.097 253.924 381.131 259.886 386 266C386.537 266.668 387.075 267.336 387.629 268.024C390.39 271.627 391.903 274.424 392 279C390.971 284.041 388.886 286.683 385 290C381.698 291.101 379.059 291.206 375.582 291.316C373.702 291.379 373.702 291.379 371.783 291.443C370.473 291.483 369.162 291.522 367.812 291.563C366.477 291.606 365.142 291.649 363.807 291.693C360.538 291.8 357.269 291.902 354 292C354.34 292.58 354.681 293.161 355.031 293.759C365.527 311.673 375.851 329.683 386.121 347.727C388.225 351.423 390.331 355.118 392.437 358.813C392.774 359.402 393.11 359.992 393.456 360.6C398.023 368.608 402.667 376.557 407.496 384.41C410.054 388.815 410.703 392.977 410 398C407.985 401.752 406.545 403.637 403 406C400.866 406.246 400.866 406.246 398.349 406.241C396.917 406.245 396.917 406.245 395.456 406.249C394.41 406.242 393.364 406.235 392.286 406.227C391.184 406.227 390.081 406.228 388.945 406.228C385.293 406.227 381.641 406.211 377.988 406.195C375.459 406.192 372.93 406.189 370.401 406.187C364.419 406.18 358.437 406.164 352.456 406.144C345.646 406.122 338.835 406.111 332.025 406.101C318.017 406.08 304.008 406.045 290 406C290.011 406.671 290.022 407.343 290.034 408.034C290.144 415.042 290.22 422.05 290.275 429.059C290.3 431.672 290.334 434.285 290.377 436.898C290.438 440.661 290.466 444.424 290.488 448.188C290.514 449.349 290.54 450.511 290.566 451.708C290.569 458.713 289.779 463.669 285 469C279.978 472.706 274.787 472.453 268.781 472.434C267.805 472.439 266.829 472.444 265.823 472.45C263.766 472.456 261.708 472.455 259.651 472.446C256.51 472.438 253.371 472.466 250.23 472.498C248.226 472.5 246.223 472.499 244.219 472.496C243.284 472.507 242.35 472.519 241.387 472.53C235.772 472.47 232.346 471.901 228 468C222.83 462.333 223.482 456.545 223.609 449.164C223.615 447.93 223.621 446.695 223.626 445.423C223.649 441.49 223.699 437.558 223.75 433.625C223.772 430.954 223.788 428.284 223.805 425.613C223.849 419.075 223.916 412.538 224 406C223.412 406.004 222.824 406.007 222.218 406.011C207.904 406.1 193.59 406.166 179.277 406.207C172.354 406.228 165.432 406.256 158.51 406.302C151.832 406.346 145.154 406.369 138.475 406.38C135.925 406.387 133.376 406.401 130.826 406.423C127.259 406.452 123.692 406.456 120.124 406.454C119.067 406.469 118.009 406.483 116.92 406.498C109.742 406.457 109.742 406.457 105.887 404.081C102.511 400.358 101.422 397.475 101.555 392.312C102.101 389.473 103.194 387.464 104.625 384.953C105.171 383.984 105.717 383.016 106.279 382.017C107.131 380.524 107.131 380.524 108 379C109.054 377.101 110.106 375.201 111.156 373.301C117.52 361.887 123.977 350.536 130.59 339.264C135.967 330.09 141.241 320.859 146.496 311.614C150.247 305.024 154.062 298.481 158 292C156.729 291.986 156.729 291.986 155.433 291.972C152.268 291.928 149.104 291.866 145.939 291.793C144.574 291.764 143.208 291.743 141.843 291.729C139.871 291.707 137.9 291.659 135.93 291.609C134.746 291.589 133.563 291.568 132.343 291.546C127.429 290.744 124.237 288.526 121.125 284.688C119.642 281.146 119.539 278.818 120 275C122.706 269.614 126.054 265.345 130.062 260.875C131.226 259.555 132.389 258.235 133.551 256.914C134.13 256.258 134.71 255.603 135.307 254.927C137.823 252.064 140.291 249.162 142.75 246.25C143.201 245.716 143.653 245.182 144.118 244.632C146.924 241.302 149.69 237.941 152.437 234.563C155.893 230.316 159.427 226.147 163 222C168.1 216.079 173.077 210.07 178 204C179.685 201.936 181.374 199.874 183.062 197.813C184.375 196.208 185.687 194.604 187 193C186.213 192.996 185.427 192.992 184.617 192.988C181.035 192.955 177.456 192.884 173.875 192.813C172.637 192.807 171.4 192.801 170.125 192.795C159.847 192.546 159.847 192.546 156.195 189.574C152.979 185.802 152.256 183.15 152.378 178.239C153.156 174.187 154.979 171.258 157.211 167.867C157.655 167.176 158.098 166.485 158.555 165.773C163.744 157.744 169.117 149.835 174.492 141.929C184.951 126.538 195.294 111.074 205.512 95.522C210.174 88.4273 214.845 81.3387 219.517 74.2504C220.462 72.8168 221.406 71.383 222.35 69.949C224.843 66.1637 227.352 62.3901 229.875 58.6251C230.421 57.7945 230.966 56.964 231.529 56.1082C240.878 42.2812 254.738 36.0613 270.586 44.1251ZM250 60.0001C242.542 68.3888 236.791 78.8053 230.658 88.1796C218.532 106.71 206.239 125.121 193.808 143.447C188.362 151.482 182.952 159.536 177.664 167.676C177.191 168.402 176.717 169.128 176.23 169.877C174.008 172.732 174.008 172.732 173 176C174.324 176.009 174.324 176.009 175.675 176.018C183.989 176.076 192.303 176.148 200.616 176.236C204.891 176.281 209.165 176.32 213.439 176.347C217.563 176.372 221.687 176.413 225.81 176.463C227.385 176.48 228.959 176.491 230.534 176.498C232.737 176.507 234.939 176.535 237.142 176.568C238.396 176.579 239.651 176.59 240.944 176.601C244 177 244 177 245.904 178.406C247.271 180.395 247.402 181.599 247.375 184C247.387 185.021 247.387 185.021 247.398 186.063C246.856 188.698 246.191 189.42 244 191C240.789 191.258 240.789 191.258 236.84 191.125C235.391 191.108 233.943 191.094 232.494 191.082C230.223 191.049 227.958 191.001 225.689 190.908C216.246 190.472 216.246 190.472 207.865 194.329C205.329 197.105 203.152 199.92 201 203C199.553 204.78 198.096 206.553 196.625 208.313C195.895 209.216 195.166 210.12 194.414 211.051C191.661 214.414 188.838 217.709 186 221C182.445 225.125 178.932 229.272 175.5 233.5C171.57 238.342 167.523 243.073 163.452 247.795C159.571 252.308 155.791 256.894 152.047 261.52C149.525 264.576 146.892 267.521 144.215 270.441C142.795 271.934 142.795 271.934 143 274C144.249 274.012 144.249 274.012 145.523 274.025C153.366 274.102 161.209 274.19 169.052 274.288C173.084 274.338 177.116 274.384 181.148 274.422C185.039 274.459 188.929 274.505 192.819 274.558C194.304 274.577 195.789 274.592 197.275 274.603C199.353 274.62 201.431 274.649 203.509 274.681C204.693 274.695 205.876 274.708 207.096 274.722C210 275 210 275 213 277C214.532 284.915 214.532 284.915 213 289C209.316 290.212 206.023 289.945 202.18 289.719C188.571 288.708 188.571 288.708 175.826 292.26C172.367 295.878 170.863 300.514 169.169 305.145C167.093 310.213 164.203 314.831 161.419 319.537C159.654 322.539 157.939 325.57 156.219 328.598C155.514 329.834 154.81 331.069 154.105 332.305C153.059 334.142 152.013 335.978 150.966 337.814C148.604 341.96 146.24 346.105 143.875 350.25C143.222 351.395 142.569 352.54 141.896 353.719C136.715 362.785 131.465 371.808 126.163 380.804C125.615 381.739 125.066 382.674 124.5 383.637C123.773 384.87 123.773 384.87 123.031 386.128C121.92 387.79 121.92 387.79 122 389C147.729 389.173 173.458 389.339 199.187 389.5C200.612 389.509 200.612 389.509 202.065 389.518C251.356 389.827 300.645 390.103 349.937 390.063C351.535 390.061 351.535 390.061 353.164 390.06C365.443 390.049 377.721 390.031 390 390C388.616 386.469 387.09 383.197 385.234 379.887C384.681 378.899 384.129 377.911 383.559 376.893C382.962 375.835 382.365 374.778 381.75 373.688C381.126 372.577 380.502 371.467 379.859 370.324C375.117 361.916 370.279 353.568 365.398 345.242C360.15 336.285 354.979 327.285 349.856 318.256C346.73 312.751 343.579 307.267 340.32 301.84C339.757 300.891 339.194 299.942 338.614 298.964C337.574 297.216 336.521 295.476 335.453 293.745C332.389 288.555 331.162 285.047 332 279C333.034 277.306 333.034 277.306 335 276C337.72 275.669 340.225 275.512 342.949 275.488C343.722 275.47 344.494 275.452 345.29 275.434C347.756 275.38 350.221 275.346 352.687 275.313C354.36 275.279 356.032 275.245 357.705 275.209C361.803 275.124 365.901 275.057 370 275C366.248 269.885 362.359 264.966 358.187 260.188C353.799 255.116 349.505 249.984 345.277 244.777C342.718 241.656 340.114 238.576 337.5 235.5C334.127 231.531 330.788 227.54 327.5 223.5C324.248 219.507 320.954 215.554 317.625 211.625C316.941 210.818 316.941 210.818 316.244 209.994C313.826 207.142 311.398 204.297 308.961 201.461C308.465 200.881 307.969 200.302 307.458 199.705C306.514 198.601 305.566 197.499 304.616 196.401C298.236 188.932 298.236 188.932 297.625 183.938C298.067 180.476 298.435 179.361 301 177C303.984 176.575 306.616 176.395 309.605 176.391C310.445 176.374 311.284 176.358 312.148 176.341C314.828 176.292 317.507 176.271 320.187 176.25C322.005 176.222 323.822 176.192 325.639 176.16C330.092 176.086 334.546 176.037 339 176C335.708 169.85 332.127 164.016 328.187 158.262C327.35 157.028 327.35 157.028 326.496 155.769C325.294 153.997 324.09 152.227 322.885 150.457C319.633 145.679 316.394 140.893 313.156 136.106C312.151 134.619 312.151 134.619 311.125 133.102C302.632 120.522 294.304 107.832 285.984 95.1356C280.332 86.5172 274.641 77.9281 268.844 69.4063C268.301 68.6042 267.758 67.802 267.199 66.9755C266.438 65.8633 266.438 65.8633 265.662 64.7286C265.219 64.0788 264.776 63.429 264.32 62.7595C262.311 60.0817 260.799 58.2946 257.625 57.1251C254.155 56.9598 252.825 58.0254 250 60.0001ZM240 406C240 422.5 240 439 240 456C250.89 456 261.78 456 273 456C273 439.5 273 423 273 406C262.11 406 251.22 406 240 406Z" fill="#013D1C"/>
<path d="M276 458.5V402.5H237V458.5H276Z" fill="#0C9549" stroke="white"/>
</g>
<defs>
<clipPath id="clip0_3024_2">
<rect width="512" height="512" fill="white"/>
</clipPath>
</defs>
</svg>
