<svg width="512" height="512" viewBox="0 0 512 512" fill="none" xmlns="http://www.w3.org/2000/svg">
<g clip-path="url(#clip0_3011_30)">
<path d="M13.9505 174.823C14.7718 174.816 15.5931 174.81 16.4393 174.803C19.164 174.783 21.8886 174.772 24.6133 174.762C25.543 174.758 26.4727 174.754 27.4306 174.749C32.3511 174.728 37.2716 174.714 42.1922 174.705C47.2767 174.694 52.3608 174.659 57.4451 174.62C61.3528 174.594 65.2603 174.585 69.168 174.582C71.0423 174.577 72.9166 174.565 74.7908 174.547C77.4147 174.522 80.0375 174.523 82.6614 174.53C83.4351 174.517 84.2088 174.504 85.0059 174.491C88.7196 174.527 90.8047 174.874 93.9587 176.904C97.3325 180.368 97.3932 183.06 97.3555 187.738C96.7867 191.357 94.8484 192.88 92 195C88.5696 196.143 85.9437 196.12 82.3255 196.114C81.652 196.114 80.9786 196.114 80.2848 196.114C78.0609 196.113 75.8371 196.105 73.6133 196.098C72.0706 196.096 70.5279 196.094 68.9852 196.093C64.9262 196.09 60.8672 196.08 56.8082 196.069C52.6658 196.058 48.5233 196.054 44.3809 196.049C36.2539 196.038 28.127 196.021 20 196C20.0856 205.443 20.1809 214.886 20.2875 224.329C20.3368 228.716 20.3831 233.104 20.4219 237.492C20.6347 262.384 20.6347 262.384 21.9024 287.238C21.9769 288.274 22.0514 289.309 22.1282 290.376C25.676 333.544 45.7836 372.669 75 404C76.0867 405.185 76.0867 405.185 77.1953 406.395C83.9567 413.488 91.553 419.536 99.5395 425.201C101.207 426.42 102.83 427.701 104.407 429.033C113.596 436.199 121.54 436.145 132.797 436.035C134.671 436.046 136.545 436.06 138.419 436.078C143.477 436.114 148.534 436.1 153.592 436.075C158.903 436.054 164.215 436.073 169.526 436.086C178.444 436.1 187.36 436.081 196.277 436.043C206.564 435.999 216.849 436.014 227.135 436.058C235.992 436.094 244.848 436.099 253.705 436.078C258.983 436.066 264.262 436.064 269.54 436.09C274.505 436.114 279.468 436.097 284.433 436.051C286.247 436.041 288.061 436.044 289.875 436.061C301.75 436.167 308.683 434.911 318 427C319.192 426.131 320.389 425.269 321.594 424.418C329.111 418.649 336.138 412.532 343 406C343.757 405.308 344.513 404.616 345.293 403.902C382.461 368.766 397.725 317.105 399.143 267.456C399.41 256.611 399.505 245.763 399.601 234.915C399.642 230.509 399.692 226.103 399.742 221.697C399.838 213.132 399.922 204.566 400 196C398.4 196.004 398.4 196.004 396.768 196.008C370.829 196.075 344.89 196.124 318.951 196.155C306.408 196.171 293.864 196.192 281.32 196.226C270.388 196.256 259.456 196.276 248.523 196.282C242.734 196.286 236.945 196.295 231.155 196.317C225.707 196.338 220.259 196.344 214.81 196.339C212.81 196.34 210.81 196.346 208.809 196.358C206.079 196.373 203.349 196.369 200.618 196.361C199.43 196.374 199.43 196.374 198.219 196.387C193.431 196.348 190.138 195.664 186 193C183.321 188.981 183.304 185.724 184 181C185.794 178.13 186.983 176.509 190 175C192.911 174.895 195.799 174.852 198.711 174.853C199.624 174.849 200.537 174.845 201.477 174.842C204.555 174.831 207.633 174.827 210.71 174.823C212.909 174.817 215.108 174.81 217.307 174.803C223.295 174.786 229.283 174.775 235.27 174.767C239.008 174.762 242.746 174.756 246.484 174.749C257.499 174.731 268.515 174.717 279.53 174.709C281.547 174.708 283.563 174.706 285.579 174.705C286.581 174.704 286.581 174.704 287.602 174.703C298.417 174.695 309.232 174.67 320.047 174.637C331.147 174.604 342.247 174.586 353.348 174.583C359.581 174.581 365.815 174.572 372.049 174.547C377.912 174.523 383.774 174.519 389.637 174.529C391.791 174.53 393.945 174.523 396.099 174.51C399.036 174.492 401.971 174.499 404.908 174.512C406.192 174.496 406.192 174.496 407.501 174.479C411.537 174.523 413.516 174.693 417.006 176.905C420.173 180.232 420.12 182.165 420.098 186.664C420.094 187.786 420.091 188.907 420.088 190.062C420.08 191.238 420.071 192.414 420.063 193.625C420.058 194.808 420.054 195.992 420.049 197.211C420.037 200.141 420.021 203.07 420 206C421.052 205.991 422.103 205.982 423.187 205.973C433.103 205.892 443.02 205.832 452.937 205.793C458.035 205.772 463.133 205.744 468.231 205.698C473.153 205.655 478.074 205.631 482.995 205.62C484.872 205.613 486.748 205.599 488.624 205.577C491.255 205.548 493.885 205.544 496.516 205.546C497.676 205.524 497.676 205.524 498.859 205.502C504.05 205.542 507.013 206.699 511 210C512.596 213.192 512.156 216.652 512.161 220.159C512.166 221.003 512.171 221.847 512.176 222.717C512.191 225.524 512.198 228.33 512.203 231.137C512.209 233.093 512.215 235.05 512.22 237.007C512.231 241.122 512.237 245.237 512.24 249.352C512.246 254.588 512.27 259.823 512.298 265.059C512.317 269.11 512.322 273.16 512.324 277.211C512.327 279.138 512.335 281.065 512.348 282.993C512.523 310.548 505.354 335.304 485.68 355.355C484.795 356.228 483.911 357.101 483 358C482.26 358.739 481.52 359.477 480.758 360.238C459.441 380.345 432.282 385.424 404.125 385.125C402.454 385.115 400.784 385.106 399.113 385.098C395.075 385.076 391.038 385.042 387 385C386.56 386.155 386.56 386.155 386.111 387.334C378.602 405.351 358.657 422.84 344 435C345.179 435.001 346.358 435.003 347.573 435.004C358.682 435.021 369.791 435.064 380.9 435.132C386.612 435.166 392.323 435.191 398.034 435.196C403.546 435.2 409.057 435.228 414.568 435.273C416.671 435.286 418.775 435.291 420.878 435.286C423.823 435.281 426.767 435.307 429.712 435.341C431.017 435.328 431.017 435.328 432.349 435.314C436.692 435.397 438.483 435.606 442.043 438.318C446.336 444.201 444.511 453.271 443.559 460.223C439.881 477.406 429.436 491.943 415.215 502.027C402.264 509.974 390.244 512.305 375.319 512.261C373.942 512.264 372.565 512.268 371.188 512.272C367.423 512.283 363.659 512.28 359.894 512.276C355.826 512.274 351.759 512.283 347.691 512.29C339.729 512.303 331.768 512.305 323.806 512.302C317.332 512.301 310.858 512.302 304.385 512.307C303.001 512.307 303.001 512.307 301.59 512.308C299.716 512.31 297.842 512.311 295.968 512.312C278.405 512.323 260.842 512.321 243.278 512.315C227.224 512.309 211.17 512.321 195.116 512.34C178.617 512.359 162.119 512.367 145.62 512.364C136.363 512.362 127.106 512.364 117.849 512.378C109.968 512.39 102.087 512.392 94.2057 512.38C90.188 512.374 86.1704 512.373 82.1527 512.385C78.4682 512.395 74.7839 512.392 71.0994 512.378C69.1492 512.374 67.199 512.385 65.2489 512.397C46.2934 512.281 30.4484 505.296 17 492C5.87469 479.64 0.0634862 465.237 -0.43748 448.75C-0.472123 448.064 -0.506767 447.377 -0.54246 446.67C-0.572023 443.004 -0.176252 441.226 2.09211 438.312C5.69606 435.447 7.52218 435.365 12.0852 435.341C12.7785 435.33 13.4717 435.32 14.1859 435.309C16.4643 435.28 18.7411 435.286 21.0196 435.293C22.6043 435.28 24.189 435.265 25.7736 435.247C29.9346 435.207 34.0951 435.197 38.2562 435.193C42.5063 435.184 46.756 435.146 51.0059 435.111C59.3373 435.047 67.6684 435.014 76 435C75.5731 434.602 75.1462 434.204 74.7064 433.794C72.7467 431.967 70.7874 430.14 68.8281 428.312C68.1567 427.687 67.4853 427.061 66.7935 426.416C29.2992 391.44 1.96395 341.579 -0.102136 289.421C-0.149961 286.57 -0.169296 283.72 -0.176982 280.868C-0.183553 279.792 -0.190124 278.716 -0.196894 277.608C-0.216474 274.077 -0.228249 270.546 -0.238261 267.016C-0.242337 265.805 -0.246412 264.595 -0.250611 263.349C-0.271396 256.956 -0.285736 250.564 -0.295146 244.171C-0.306258 237.568 -0.340735 230.965 -0.380317 224.362C-0.406414 219.28 -0.414831 214.198 -0.418427 209.116C-0.423303 206.681 -0.434945 204.246 -0.453465 201.81C-0.477731 198.411 -0.476916 195.013 -0.46995 191.614C-0.48276 190.608 -0.495571 189.603 -0.508769 188.566C-0.475956 184.182 -0.430123 181.7 1.90439 177.899C5.70137 174.458 9.05335 174.84 13.9505 174.823ZM420 227C420 233.27 420 239.54 420 246C421.337 246.015 422.674 246.029 424.052 246.044C429.018 246.102 433.985 246.179 438.951 246.262C441.1 246.296 443.248 246.324 445.397 246.346C448.488 246.38 451.578 246.432 454.668 246.488C455.627 246.495 456.585 246.501 457.573 246.508C462.481 246.616 466.059 246.724 470 250C471.16 252.319 471.151 253.72 471.193 256.303C471.209 257.196 471.225 258.088 471.242 259.008C471.286 263.141 471.327 267.274 471.35 271.407C471.367 273.571 471.394 275.734 471.432 277.898C471.746 295.657 470.614 309.709 459 324C458.093 325.232 458.093 325.232 457.168 326.488C447.364 337.847 432.577 343.093 418.035 344.34C414.359 344.604 410.681 344.813 407 345C405.829 347.79 404.663 350.582 403.5 353.375C403.166 354.169 402.832 354.963 402.488 355.781C402.172 356.542 401.857 357.302 401.531 358.086C401.238 358.788 400.945 359.489 400.643 360.212C399.887 361.997 399.887 361.997 400 364C425.996 364.701 447.382 361.219 467.754 343.621C484.548 327.648 491.495 307.429 492.087 284.667C492.115 280.972 492.113 277.278 492.098 273.582C492.097 272.394 492.096 271.206 492.095 269.982C492.089 265.592 492.075 261.202 492.063 256.812C492.032 242.055 492.032 242.055 492 227C468.24 227 444.48 227 420 227ZM420 267C419.918 270.589 419.835 274.177 419.75 277.875C419.311 291.45 417.331 304.639 415 318C414.666 320 414.332 322 414 324C424.004 323.961 432.269 321.026 439.938 314.5C440.618 313.675 441.299 312.85 442 312C442.846 311.113 443.691 310.226 444.563 309.312C452.137 300.017 452.164 288.385 452.063 277C452.042 273.7 452.021 270.4 452 267C441.44 267 430.88 267 420 267ZM22 456C23.8964 467.378 30.0134 475.869 39 483C51.7547 491.151 64.417 492.311 79.3206 492.254C80.5966 492.257 81.8726 492.26 83.1873 492.263C86.6901 492.272 90.1929 492.268 93.6957 492.261C97.4886 492.257 101.281 492.264 105.074 492.269C112.489 492.278 119.904 492.276 127.319 492.271C133.348 492.266 139.378 492.265 145.408 492.268C146.699 492.268 146.699 492.268 148.015 492.269C149.764 492.269 151.512 492.27 153.26 492.271C169.627 492.276 185.995 492.27 202.362 492.259C216.386 492.25 230.409 492.252 244.433 492.261C260.744 492.271 277.056 492.276 293.367 492.27C295.109 492.269 296.85 492.268 298.592 492.268C299.877 492.267 299.877 492.267 301.188 492.267C307.206 492.265 313.224 492.268 319.242 492.273C326.582 492.278 333.923 492.277 341.263 492.266C345.004 492.261 348.744 492.259 352.484 492.265C356.549 492.272 360.614 492.264 364.679 492.254C366.43 492.261 366.43 492.261 368.217 492.267C384.373 492.191 398.182 489.709 410.438 478.438C415.68 472.805 422 463.917 422 456C290 456 158 456 22 456Z" fill="black"/>
<path d="M265 22C270.579 25.1579 270.579 25.1579 272 28C272.948 34.4047 271.601 38.6348 268.191 44.0547C265.014 49.2421 265.494 55.132 266 61C267.376 66.471 270.23 70.4101 273.812 74.6875C285.263 88.407 288.45 103.542 287 121C284.686 134.133 277.516 145.791 268 155C264.765 156.618 261.497 156.577 258 156C254.679 154.286 252.472 152.121 251 148.625C251 142.254 252.823 139.012 256.875 134.25C263.486 126.28 265.424 118.685 265.531 108.434C264.156 99.5463 259.73 92.7453 254.5 85.625C245.47 72.7626 242.333 61.6644 244 46C245.584 37.6751 249.285 30.2917 255 24C258.447 21.8869 260.954 21.5145 265 22Z" fill="#013D1C"/>
<path d="M211 -1.2517e-06C214.149 1.50881 215.462 2.61436 216.73 5.88281C218.052 12.1865 215.736 16.2161 212.445 21.5195C209.583 26.4312 209.421 31.4321 210 37C212.116 43.5328 215.819 48.7833 219.937 54.1875C229.409 67.0942 233.761 81.2722 231.539 97.332C229.115 110.264 223.709 120.214 215 130C214.506 130.568 214.012 131.137 213.504 131.723C210.804 134.016 207.408 134.107 204 134C199.811 132.324 197.815 130.107 196 126C195.341 122.778 195.523 120.851 197.137 117.969C198.716 115.614 200.358 113.311 202 111C207.688 102.267 211.212 94.6163 210 84C208.269 76.4303 204.695 70.8025 200.027 64.6914C191.385 53.2179 186.994 41.4311 188 27C189.474 17.415 192.95 8.70647 199.312 1.3125C203.26 -0.615429 206.695 -0.74093 211 -1.2517e-06Z" fill="#15A455"/>
<path d="M154 21.9999C159.579 25.1578 159.579 25.1578 161 27.9999C161.691 34.1165 161.009 37.4252 158 42.8124C154.672 49.0342 153.766 54.0294 155 60.9999C157.349 68.3153 162.213 73.9763 166.848 79.9765C173.642 89.5198 176.354 99.7407 176.313 111.312C176.329 112.199 176.345 113.085 176.361 113.998C176.373 129.155 169.108 142.033 159 153C155.712 155.889 153.436 156.522 148.969 156.363C145.873 155.792 144.149 154.214 142 152C140.355 148.71 140.36 145.543 141 142C142.679 138.765 144.855 135.939 147 133C148.126 131.243 149.231 129.472 150.313 127.687C150.804 126.887 151.295 126.086 151.801 125.262C155.487 118.309 154.95 108.809 153.457 101.25C151.379 95.3176 147.61 90.6776 143.723 85.829C134.18 73.8402 131.403 61.0212 133 45.9999C134.562 37.9885 138.003 29.7059 144 23.9999C147.491 21.9451 149.933 21.5119 154 21.9999Z" fill="#013D1C"/>
<path d="M364.465 261.371C368.354 262.336 369.688 263.725 372 267C372.693 270.599 372.614 274.097 372.5 277.75C372.481 278.779 372.462 279.808 372.442 280.869C372.184 289.817 371.133 298.314 369 307C368.801 307.817 368.603 308.634 368.398 309.475C361.154 338.447 347.508 363.335 327 385C326.313 385.732 325.626 386.464 324.918 387.219C322.273 389.675 320.591 389.93 317 390C312.75 388.775 310.618 387.85 308 384.25C306.699 380.022 306.585 378.246 308 374C309.962 371.554 312.095 369.329 314.262 367.062C336.32 343.22 349.274 310.204 350.518 277.922C350.787 272.598 351.636 268.16 354.5 263.625C357.856 261.443 360.532 261.474 364.465 261.371Z" fill="#15A455"/>
<path d="M289 394C292.602 395.789 294.653 398.06 296.063 401.875C295.981 405.979 295.073 408.457 293 412C289.593 414.478 287.65 415 283.438 415C279.171 413.759 277.524 412.671 275 409C274.036 404.333 274.341 401.055 276.875 397C280.53 393.56 284.128 393.205 289 394Z" fill="#15A455"/>
<path d="M147 175C151.005 177.448 152.668 178.926 154.062 183.437C153.989 187.592 153.391 189.607 151 193C147.588 195.404 145.618 196 141.437 196C137.17 194.759 135.524 193.671 133 190C132.298 186.849 132.27 184.147 133 181C137.215 175.676 140.259 174.326 147 175Z" fill="#15A455"/>
</g>
<defs>
<clipPath id="clip0_3011_30">
<rect width="512" height="512" fill="white"/>
</clipPath>
</defs>
</svg>
