<svg width="512" height="512" viewBox="0 0 512 512" fill="none" xmlns="http://www.w3.org/2000/svg">
<g clip-path="url(#clip0_3011_25)">
<path d="M137.58 111.483C138.657 111.476 139.733 111.469 140.843 111.461C144.406 111.444 147.968 111.455 151.531 111.469C154.004 111.466 156.478 111.462 158.951 111.457C164.136 111.451 169.321 111.46 174.506 111.479C181.158 111.501 187.809 111.488 194.461 111.464C199.568 111.45 204.676 111.454 209.784 111.465C212.237 111.468 214.69 111.464 217.142 111.455C220.569 111.445 223.994 111.46 227.42 111.483C228.437 111.474 229.454 111.466 230.502 111.458C237.333 111.541 237.333 111.541 240.63 113.814C242.657 117.048 242.533 119.267 242 123C239.781 125.907 238.48 126.84 235 128C233.567 128.095 232.129 128.135 230.693 128.141C229.375 128.149 229.375 128.149 228.03 128.158C226.587 128.16 226.587 128.16 225.116 128.161C223.593 128.169 223.593 128.169 222.04 128.176C218.676 128.191 215.313 128.198 211.949 128.203C209.614 128.209 207.278 128.215 204.943 128.221C200.042 128.231 195.142 128.237 190.242 128.24C183.964 128.246 177.686 128.27 171.408 128.298C166.582 128.317 161.757 128.322 156.931 128.324C154.617 128.327 152.302 128.335 149.988 128.348C146.749 128.365 143.511 128.363 140.272 128.357C139.316 128.366 138.361 128.375 137.376 128.384C132.178 128.352 128.475 127.963 124 125C122.454 121.908 122.706 119.406 123 116C126.407 110.496 131.787 111.436 137.58 111.483Z" fill="#1831EA"/>
<path d="M322.174 363.483C323.422 363.47 324.67 363.457 325.956 363.444C327.314 363.451 328.673 363.46 330.031 363.469C331.428 363.466 332.825 363.462 334.223 363.457C337.148 363.451 340.073 363.46 342.998 363.479C346.745 363.501 350.49 363.488 354.236 363.464C357.12 363.45 360.004 363.455 362.889 363.465C364.27 363.468 365.651 363.464 367.032 363.455C368.963 363.445 370.895 363.463 372.826 363.483C373.924 363.486 375.022 363.489 376.154 363.492C379.681 364.122 380.869 365.162 383 368C383.469 371.754 383.531 374.039 381.687 377.375C378.594 380.354 375.401 380.134 371.323 380.161C370.158 380.171 368.993 380.18 367.793 380.19C365.904 380.197 365.904 380.197 363.976 380.203C362.036 380.212 362.036 380.212 360.057 380.221C357.318 380.231 354.579 380.237 351.841 380.24C348.338 380.246 344.836 380.27 341.333 380.298C337.985 380.321 334.637 380.323 331.289 380.328C329.406 380.347 329.406 380.347 327.485 380.366C326.314 380.363 325.142 380.36 323.936 380.357C322.908 380.36 321.88 380.364 320.821 380.368C317.538 379.94 315.657 378.943 313 377C311.454 373.908 311.706 371.406 312 368C315.007 363.961 317.252 363.497 322.174 363.483Z" fill="#1831EA"/>
<path d="M369.5 235.5L318 256L301 242L314.5 203L359 141.5L394 110L424.5 89.5L467.5 69L500 60L497.5 79L475 132.5L462 151.5L441 175L421 195.5L394 218L369.5 235.5Z" fill="#AFB1FF" stroke="white"/>
<path d="M50.6754 29.8528C52.0761 29.8495 53.4767 29.8458 54.8773 29.8417C58.7168 29.8317 62.5563 29.8279 66.3958 29.8253C70.5404 29.8214 74.6851 29.8118 78.8297 29.8031C88.8321 29.7833 98.8345 29.7733 108.837 29.7643C113.551 29.76 118.264 29.7546 122.978 29.7494C138.651 29.7324 154.323 29.7179 169.996 29.7106C174.06 29.7087 178.124 29.7068 182.187 29.7048C183.702 29.7041 183.702 29.7041 185.248 29.7034C201.613 29.6951 217.979 29.6697 234.344 29.6372C251.156 29.6042 267.967 29.5862 284.778 29.583C294.214 29.5808 303.649 29.5721 313.084 29.5465C321.118 29.5248 329.152 29.5168 337.186 29.5265C341.282 29.531 345.379 29.5291 349.475 29.5097C353.231 29.492 356.986 29.4931 360.742 29.5086C362.732 29.5121 364.723 29.496 366.714 29.479C377.964 29.5593 387.69 32.1151 396 40C406.015 50.5361 410.855 64.3602 415 78C415.911 77.4663 416.823 76.9326 417.762 76.3828C480.724 39.961 480.724 39.961 508 47C510.686 49.0179 511.836 50.2179 512.531 53.5312C512.256 79.7172 502.264 116.779 484.562 136.75C480.945 138.514 478.812 138.13 475 137C473 135.5 473 135.5 472 133C472.215 125.22 474.731 119.666 478.25 112.812C484.825 99.5285 489.402 86.3598 493 72C493.276 70.8993 493.276 70.8993 493.557 69.7764C494.039 67.8511 494.52 65.9256 495 64C457.18 73.4237 424.141 89.1029 394 114C393.439 114.463 392.879 114.926 392.301 115.403C388.497 118.559 384.736 121.763 381 125C380.08 125.795 379.159 126.591 378.211 127.41C373.677 131.403 369.533 135.49 365.641 140.109C364.027 141.968 362.334 143.667 360.562 145.375C356.293 149.607 352.645 154.226 349 159C348.49 159.666 347.98 160.332 347.455 161.018C332.832 180.206 320.72 200.075 311.625 222.437C311.124 223.662 311.124 223.662 310.612 224.912C310.299 225.703 309.986 226.494 309.664 227.309C309.39 227.998 309.116 228.686 308.834 229.396C308.06 231.813 307.489 234.186 306.948 236.663C306.77 237.475 306.592 238.286 306.408 239.123C306.206 240.052 306.206 240.052 306 241C306.668 240.331 307.336 239.662 308.025 238.973C324.262 222.713 340.503 206.456 356.746 190.202C364.601 182.342 372.455 174.481 380.307 166.617C387.149 159.766 393.992 152.916 400.837 146.068C404.464 142.441 408.09 138.812 411.713 135.181C415.12 131.767 418.53 128.355 421.942 124.945C423.196 123.69 424.45 122.435 425.703 121.178C427.408 119.468 429.115 117.761 430.824 116.056C431.324 115.553 431.824 115.05 432.339 114.532C435.468 111.416 436.897 110.102 441.375 109.687C445 110 445 110 447.437 111.5C449.587 114.939 449.682 118.092 449 122C447.373 124.403 446.04 126.015 443.989 127.973C443.45 128.519 442.911 129.065 442.355 129.627C440.55 131.446 438.717 133.235 436.883 135.025C435.581 136.325 434.28 137.627 432.981 138.93C429.454 142.46 425.902 145.965 422.345 149.466C418.631 153.13 414.94 156.816 411.247 160.5C404.25 167.472 397.233 174.423 390.209 181.367C382.213 189.273 374.24 197.203 366.268 205.135C349.87 221.448 333.445 237.734 317 254C319.552 253.213 322.104 252.423 324.655 251.632C325.73 251.3 325.73 251.3 326.827 250.962C332.478 249.206 337.951 247.185 343.375 244.812C344.254 244.431 345.132 244.049 346.038 243.656C387.786 225.142 424.536 193.153 452 157C453.351 155.227 454.705 153.456 456.062 151.687C456.59 150.99 457.117 150.293 457.66 149.574C459.652 147.234 460.794 147.018 463.875 146.75C467 147 467 147 469.312 148C471.829 150.983 472.164 154.208 472 158C470.698 160.617 469.599 162.401 467.812 164.625C467.361 165.219 466.91 165.813 466.445 166.425C464.993 168.31 463.506 170.159 462 172C461.512 172.597 461.024 173.194 460.521 173.809C457.101 177.95 453.577 181.993 450 186C449.529 186.529 449.058 187.057 448.573 187.602C430.596 207.702 430.596 207.702 426 210C423.731 220.816 424.855 232.921 424.867 243.93C424.866 246.086 424.865 248.242 424.864 250.398C424.863 254.922 424.865 259.446 424.87 263.97C424.875 269.646 424.872 275.322 424.866 280.999C424.848 302.05 424.886 323.095 425.445 344.141C425.465 344.885 425.484 345.63 425.504 346.397C425.898 361.028 426.762 375.626 427.748 390.228C428.02 394.307 428.278 398.386 428.531 402.465C428.577 403.195 428.622 403.924 428.669 404.676C428.779 406.451 428.89 408.225 429 410C429.803 409.993 430.606 409.987 431.434 409.98C439.011 409.92 446.588 409.874 454.166 409.845C458.061 409.829 461.956 409.808 465.852 409.774C469.612 409.741 473.373 409.723 477.134 409.715C478.567 409.71 480 409.699 481.434 409.683C483.444 409.661 485.455 409.66 487.466 409.659C488.609 409.653 489.753 409.646 490.931 409.639C494.375 410.044 496.239 410.934 499 413C504.656 423.463 503.375 441.486 500.875 452.75C497.59 463.419 491.106 472.448 481.25 477.812C471.947 482.578 461.025 482.292 450.843 482.267C449.439 482.271 448.035 482.276 446.631 482.281C442.801 482.293 438.97 482.293 435.14 482.291C430.998 482.29 426.856 482.301 422.714 482.311C414.611 482.327 406.509 482.333 398.406 482.334C391.818 482.335 385.23 482.339 378.643 482.345C359.949 482.363 341.255 482.372 322.561 482.371C321.554 482.371 320.548 482.371 319.511 482.371C317.999 482.37 317.999 482.37 316.457 482.37C300.118 482.37 283.779 482.389 267.439 482.417C250.646 482.446 233.852 482.459 217.059 482.458C207.637 482.457 198.215 482.462 188.793 482.484C180.774 482.502 172.755 482.507 164.736 482.493C160.648 482.486 156.559 482.486 152.471 482.504C148.723 482.519 144.975 482.517 141.227 482.499C139.241 482.495 137.254 482.51 135.267 482.526C124.794 482.445 115.595 480.543 107.84 473.105C104.314 469.071 101.604 464.669 98.9999 460C98.5591 459.227 98.1182 458.453 97.664 457.656C85.8041 434.39 83.2056 403.743 82.6874 378C82.6314 376.144 82.6314 376.144 82.5742 374.25C82.9999 371 82.9999 371 84.8007 368.59C87.9814 366.29 90.1704 366.521 93.9999 367C97.185 368.76 97.8329 369.499 98.9999 373C99.241 375.146 99.4388 377.297 99.6132 379.449C99.7246 380.761 99.8359 382.072 99.9506 383.424C100.009 384.119 100.068 384.815 100.128 385.531C102.119 426.418 102.119 426.418 120.469 461.23C126.089 465.16 130.207 465.648 137 465C142.563 463.781 147.712 461.801 152 458C156.552 450.721 158.143 444.483 158.125 435.937C158.122 434.619 158.12 433.3 158.117 431.941C158.011 428.369 157.68 424.92 157.25 421.375C156.869 417.448 156.794 416.374 158.75 412.812C161.894 410.279 164.348 409.875 168.258 409.877C169.131 409.875 170.004 409.873 170.904 409.871C171.864 409.874 172.825 409.877 173.814 409.88C175.343 409.878 175.343 409.878 176.903 409.877C180.334 409.875 183.766 409.881 187.198 409.886C189.652 409.887 192.105 409.887 194.559 409.886C199.849 409.886 205.14 409.889 210.431 409.894C218.08 409.902 225.73 409.905 233.379 409.906C245.79 409.908 258.2 409.915 270.611 409.925C282.667 409.934 294.724 409.941 306.78 409.945C307.523 409.945 308.266 409.946 309.032 409.946C312.759 409.947 316.486 409.948 320.214 409.95C351.142 409.96 382.071 409.978 413 410C412.86 408.966 412.72 407.933 412.576 406.868C412.392 405.5 412.208 404.132 412.025 402.765C411.933 402.085 411.84 401.405 411.746 400.704C409.262 382.195 408.958 363.215 408.445 344.559C408.424 343.796 408.403 343.033 408.381 342.247C407.788 320.178 407.886 298.104 407.931 276.03C407.942 270.363 407.946 264.696 407.951 259.029C407.962 248.02 407.979 237.01 408 226C407.045 226.685 406.09 227.369 405.106 228.074C403.837 228.983 402.568 229.891 401.299 230.799C400.671 231.249 400.044 231.699 399.397 232.163C375.588 249.194 349.522 263.275 321.125 270.875C319.959 271.19 319.959 271.19 318.77 271.512C315.089 272.444 311.689 273.091 307.887 273.121C296.903 273.475 291.356 278.823 284.035 286.475C282.456 288.168 280.911 289.886 279.372 291.616C278.878 292.16 278.383 292.703 277.873 293.263C276.509 294.772 275.174 296.308 273.841 297.844C269.896 300.837 267.865 300.534 263 300C260.5 298.437 260.5 298.437 259 296C258.312 292.75 258.312 292.75 259 289C262.196 284.481 266.318 280.637 270.332 276.852C271.067 276.155 271.803 275.459 272.56 274.742C274.068 273.325 275.589 271.921 277.123 270.531C277.852 269.833 278.581 269.134 279.332 268.414C280.318 267.501 280.318 267.501 281.323 266.569C283.105 263.839 283.518 262.012 284.105 258.839C284.275 257.934 284.446 257.03 284.621 256.097C284.746 255.405 284.871 254.713 285 254C283.793 254.007 283.793 254.007 282.562 254.014C262.991 254.124 243.42 254.207 223.848 254.259C214.384 254.285 204.919 254.32 195.455 254.377C187.206 254.427 178.957 254.459 170.709 254.47C166.34 254.477 161.972 254.492 157.604 254.529C153.493 254.563 149.382 254.573 145.271 254.566C143.762 254.567 142.253 254.577 140.744 254.596C138.682 254.621 136.623 254.615 134.562 254.601C132.832 254.608 132.832 254.608 131.067 254.615C127.024 253.804 125.53 252.191 123 249C122.375 245.437 122.375 245.437 123 242C125.662 239.256 127.327 238.106 131.13 237.508C132.312 237.511 133.495 237.515 134.713 237.519C135.706 237.514 135.706 237.514 136.719 237.509C138.928 237.502 141.137 237.524 143.347 237.546C144.934 237.547 146.521 237.546 148.108 237.544C152.411 237.543 156.714 237.566 161.018 237.594C165.516 237.619 170.015 237.622 174.515 237.627C183.032 237.639 191.549 237.672 200.067 237.712C209.764 237.757 219.462 237.779 229.16 237.799C249.106 237.84 269.053 237.911 289 238C289.158 237.285 289.317 236.569 289.48 235.832C291.332 227.923 293.933 220.516 297 213C296.127 213.004 295.255 213.007 294.356 213.011C273.141 213.099 251.926 213.166 230.711 213.207C220.452 213.228 210.193 213.256 199.934 213.302C190.993 213.342 182.053 213.367 173.112 213.376C168.377 213.382 163.641 213.394 158.906 213.423C154.451 213.45 149.996 213.458 145.541 213.452C143.904 213.454 142.267 213.461 140.631 213.477C138.398 213.497 136.167 213.492 133.935 213.481C132.685 213.485 131.435 213.488 130.147 213.492C127 213 127 213 124.594 211.189C122.284 208.017 122.522 205.827 123 202C124.76 198.815 125.499 198.167 129 197C131.346 196.896 133.694 196.853 136.042 196.842C136.764 196.837 137.485 196.832 138.228 196.827C140.651 196.811 143.074 196.803 145.497 196.795C147.231 196.785 148.966 196.775 150.7 196.765C155.415 196.738 160.129 196.717 164.844 196.697C169.768 196.675 174.693 196.647 179.618 196.621C188.946 196.571 198.275 196.526 207.603 196.483C218.222 196.433 228.841 196.378 239.46 196.323C261.307 196.209 283.153 196.102 305 196C305.519 195.01 306.039 194.02 306.574 193C310.17 186.182 313.781 179.46 318 173C316.529 172.998 316.529 172.998 315.028 172.996C291.184 172.959 267.341 172.9 243.497 172.816C231.967 172.776 220.436 172.744 208.906 172.729C198.858 172.716 188.81 172.689 178.762 172.645C173.439 172.623 168.117 172.607 162.795 172.608C157.788 172.609 152.782 172.591 147.775 172.559C145.935 172.55 144.095 172.549 142.255 172.554C139.747 172.561 137.24 172.543 134.732 172.519C134.001 172.527 133.269 172.534 132.515 172.542C129.14 172.485 127.293 172.217 124.548 170.186C122.281 166.984 122.453 164.825 123 161C125.219 158.093 126.519 157.16 130 156C132.673 155.906 135.319 155.87 137.991 155.88C138.815 155.879 139.638 155.878 140.486 155.877C143.255 155.875 146.023 155.881 148.792 155.886C150.772 155.887 152.753 155.887 154.734 155.886C160.12 155.886 165.506 155.892 170.892 155.899C176.517 155.905 182.143 155.905 187.768 155.907C198.425 155.91 209.081 155.918 219.738 155.928C231.868 155.939 243.999 155.945 256.129 155.95C281.086 155.96 306.043 155.978 331 156C331.293 155.389 331.587 154.778 331.889 154.148C336.462 145.305 344.823 137.798 351.58 130.538C353.021 128.977 354.444 127.402 355.863 125.82C360.245 120.948 364.619 116.185 369.652 111.969C371.609 110.328 373.529 108.66 375.441 106.969C395.819 89 395.819 89 400 89C394.805 67.0968 394.805 67.0968 381.429 49.8978C375.257 46.4234 369.571 46.4483 362.611 46.519C361.375 46.5156 360.139 46.5121 358.865 46.5086C355.451 46.5032 352.038 46.5156 348.624 46.5357C344.936 46.5531 341.249 46.5472 337.561 46.5441C331.177 46.542 324.794 46.5545 318.41 46.5771C309.181 46.6096 299.951 46.62 290.722 46.625C275.746 46.6338 260.771 46.6604 245.795 46.6982C231.251 46.735 216.706 46.7633 202.162 46.7803C201.265 46.7813 200.368 46.7824 199.443 46.7834C194.943 46.7887 190.443 46.7937 185.943 46.7987C148.629 46.8401 111.314 46.9106 73.9999 47C74.4156 47.6861 74.8313 48.3722 75.2596 49.0791C76.0745 50.4296 76.0745 50.4296 76.906 51.8074C77.4454 52.6997 77.9848 53.5921 78.5406 54.5115C90.8567 75.5128 92.3996 103.548 94.6249 127.25C94.7482 128.545 94.8715 129.839 94.9985 131.173C97.2331 156.288 97.1761 181.457 97.2001 206.649C97.2031 209.604 97.2072 212.559 97.2116 215.514C97.2252 224.785 97.2349 234.056 97.2388 243.328C97.2433 253.991 97.2611 264.653 97.2898 275.316C97.3114 283.602 97.3215 291.888 97.3229 300.174C97.3239 305.108 97.3298 310.041 97.3477 314.975C97.3641 319.595 97.3664 324.215 97.3576 328.834C97.3568 330.529 97.3612 332.224 97.371 333.919C97.3837 336.228 97.3779 338.537 97.3674 340.847C97.3696 342.786 97.3696 342.786 97.3719 344.764C96.9765 348.204 96.4364 349.59 93.9999 352C90.9513 353.123 89.4313 353.13 86.3124 352.187C83.8434 350.92 82.3507 349.967 81.384 347.302C80.8727 344.237 80.8649 341.283 80.8552 338.176C80.8517 337.489 80.8481 336.803 80.8445 336.096C80.8338 333.794 80.8301 331.493 80.8264 329.192C80.8201 327.541 80.8133 325.889 80.8061 324.237C80.7914 320.673 80.7797 317.109 80.7701 313.545C80.7546 307.867 80.7307 302.19 80.7053 296.512C80.6343 280.362 80.575 264.213 80.5231 248.063C80.4944 239.148 80.4588 230.233 80.4165 221.318C80.3945 216.621 80.3758 211.923 80.366 207.225C80.3247 188.121 80.0625 169.064 79.0778 149.982C79.0376 149.193 78.9973 148.404 78.9559 147.592C78.1597 132.343 76.7312 117.17 74.9999 102C74.1717 102.007 73.3434 102.013 72.49 102.02C64.6773 102.08 56.8647 102.126 49.0519 102.155C45.0354 102.171 41.019 102.192 37.0026 102.226C33.1252 102.259 29.248 102.277 25.3705 102.285C23.8926 102.29 22.4146 102.301 20.9367 102.317C18.8636 102.339 16.7912 102.342 14.718 102.341C12.9492 102.351 12.9492 102.351 11.1448 102.361C7.66344 101.961 5.80022 101.066 2.99995 99C-3.21023 89.9952 -1.2078 70.9203 0.648383 60.6641C3.49459 49.6441 8.85779 41.588 18.4492 35.4023C28.6818 29.7767 39.275 29.8512 50.6754 29.8528ZM20.4374 55.6094C14.0354 66.2563 15.9999 72.433 15.9999 86C34.4799 86 52.9599 86 71.9999 86C68.131 70.5244 64.6002 56.5169 50.9999 47C39.8788 43.293 27.8814 46.7511 20.4374 55.6094ZM175 426C174.67 432.27 174.34 438.54 174 445C172.801 451.053 171.437 456.097 168.937 461.677C168.575 462.487 168.212 463.297 167.839 464.131C167.562 464.748 167.285 465.364 167 466C204.776 466.092 242.552 466.162 280.329 466.204C284.791 466.209 289.253 466.214 293.715 466.22C294.603 466.221 295.492 466.222 296.407 466.223C310.781 466.24 325.155 466.272 339.529 466.309C354.284 466.346 369.038 466.368 383.793 466.376C392.894 466.382 401.995 466.399 411.095 466.432C417.34 466.453 423.585 466.459 429.83 466.454C433.43 466.451 437.03 466.455 440.631 466.477C444.542 466.5 448.453 466.492 452.364 466.481C454.055 466.498 454.055 466.498 455.78 466.516C463.771 466.456 471.902 465.459 478.212 460.133C487.661 450.512 486 439.109 486 426C383.37 426 280.74 426 175 426Z" fill="black"/>
</g>
<defs>
<clipPath id="clip0_3011_25">
<rect width="512" height="512" fill="white"/>
</clipPath>
</defs>
</svg>
