<svg width="512" height="512" viewBox="0 0 512 512" fill="none" xmlns="http://www.w3.org/2000/svg">
<g clip-path="url(#clip0_3011_38)">
<mask id="path-1-inside-1_3011_38" fill="white">
<path d="M115.512 -0.387642C116.761 -0.393028 118.01 -0.398413 119.297 -0.403962C122.749 -0.418374 126.2 -0.414185 129.652 -0.406795C133.381 -0.402055 137.109 -0.41458 140.838 -0.424812C148.137 -0.44199 155.436 -0.442843 162.735 -0.437599C168.669 -0.433554 174.603 -0.435005 180.537 -0.440348C181.805 -0.44147 181.805 -0.44147 183.099 -0.442616C184.816 -0.444147 186.533 -0.445686 188.251 -0.447231C204.348 -0.460952 220.445 -0.455521 236.543 -0.444045C251.26 -0.434114 265.977 -0.447052 280.694 -0.47098C295.816 -0.49538 310.938 -0.504976 326.06 -0.498327C334.546 -0.494837 343.031 -0.497054 351.517 -0.514578C358.741 -0.529312 365.965 -0.52992 373.189 -0.512507C376.872 -0.504004 380.555 -0.50183 384.239 -0.517159C388.237 -0.533594 392.235 -0.518837 396.234 -0.501167C397.39 -0.510772 398.546 -0.520377 399.737 -0.530273C410.829 -0.429567 418.53 2.91204 426.812 10.125C428.203 11.2958 429.595 12.465 430.988 13.6329C431.667 14.2068 432.346 14.7808 433.045 15.3721C435.802 17.6683 438.64 19.8329 441.5 22C447.088 26.2621 452.546 30.6664 457.988 35.1133C462.289 38.6234 466.624 42.0832 471 45.5C473.335 47.3309 475.668 49.1648 478 51C478.676 51.5316 479.353 52.0632 480.05 52.6109C502.011 69.9273 502.011 69.9273 504 81C504.772 88.4217 504.471 97.3572 499.818 103.581C494.373 111.385 495.293 120.368 495.34 129.463C495.332 131.336 495.321 133.21 495.309 135.083C495.281 140.148 495.283 145.213 495.291 150.279C495.294 155.58 495.269 160.881 495.247 166.182C495.21 176.212 495.197 186.241 495.194 196.271C495.19 207.693 495.157 219.115 495.121 230.537C495.05 254.025 495.013 277.512 495 301C495.619 301.292 496.237 301.584 496.875 301.885C504.636 305.959 509.012 314.671 511.534 322.7C512.157 325.776 512.136 328.704 512.147 331.843C512.151 332.531 512.154 333.219 512.158 333.928C512.169 336.232 512.173 338.536 512.177 340.841C512.183 342.493 512.19 344.146 512.197 345.799C512.218 351.225 512.228 356.652 512.238 362.078C512.242 363.948 512.246 365.817 512.25 367.687C512.27 376.47 512.284 385.253 512.292 394.037C512.302 404.169 512.328 414.302 512.369 424.435C512.399 432.271 512.414 440.107 512.417 447.943C512.419 452.622 512.428 457.3 512.453 461.978C512.477 466.381 512.481 470.784 512.471 475.187C512.47 476.799 512.476 478.411 512.49 480.024C512.568 489.652 512.492 496.938 505.816 504.461C504.701 505.408 504.701 505.408 503.562 506.375C502.821 507.022 502.08 507.669 501.316 508.336C496.383 511.88 491.916 512.29 485.973 512.257C485.166 512.261 484.359 512.264 483.528 512.268C480.812 512.277 478.097 512.272 475.382 512.267C473.42 512.271 471.458 512.276 469.496 512.281C464.095 512.293 458.695 512.293 453.294 512.291C447.473 512.29 441.653 512.301 435.832 512.311C424.424 512.328 413.017 512.333 401.61 512.334C392.339 512.335 383.069 512.339 373.798 512.346C371.131 512.347 368.463 512.349 365.795 512.351C365.132 512.351 364.469 512.352 363.785 512.352C345.129 512.365 326.472 512.372 307.816 512.372C307.112 512.372 306.409 512.371 305.684 512.371C302.118 512.371 298.552 512.371 294.987 512.371C293.924 512.371 293.924 512.371 292.841 512.371C291.408 512.371 289.976 512.371 288.544 512.371C266.262 512.369 243.98 512.384 221.698 512.412C196.668 512.442 171.639 512.46 146.609 512.458C133.355 512.457 120.1 512.463 106.846 512.484C95.5619 512.502 84.2777 512.507 72.9935 512.493C67.2345 512.487 61.4758 512.486 55.7169 512.504C50.4459 512.519 45.1753 512.517 39.9044 512.499C37.9966 512.496 36.0888 512.5 34.181 512.511C31.5883 512.525 28.9968 512.514 26.4041 512.498C25.6629 512.508 24.9217 512.518 24.158 512.528C17.1673 512.433 11.109 509.705 6.18734 504.688C5.64465 504.155 5.10195 503.623 4.54281 503.074C0.613729 497.792 -0.375586 492.988 -0.387836 486.492C-0.393222 485.769 -0.398607 485.046 -0.404156 484.301C-0.418382 481.895 -0.411345 479.49 -0.404209 477.084C-0.409915 475.352 -0.416881 473.621 -0.425007 471.889C-0.442923 467.196 -0.44177 462.504 -0.436062 457.812C-0.432968 453.891 -0.439067 449.969 -0.445102 446.048C-0.459141 436.795 -0.457592 427.542 -0.446201 418.289C-0.43472 408.752 -0.448797 399.215 -0.475597 389.679C-0.497768 381.481 -0.504391 373.284 -0.498523 365.087C-0.495156 360.195 -0.497554 355.303 -0.514774 350.412C-0.530263 345.811 -0.526262 341.211 -0.507465 336.61C-0.503785 334.925 -0.506874 333.24 -0.517353 331.555C-0.57471 321.567 -0.479331 314.186 6.37484 306.25C13.6665 300 13.6665 300 16.9998 300C17.0328 275.599 17.0257 251.199 16.9714 226.798C16.9471 215.467 16.9357 204.136 16.9552 192.806C16.9721 182.925 16.9644 173.045 16.9275 163.165C16.9088 157.937 16.9022 152.71 16.9252 147.482C16.9464 142.552 16.9344 137.623 16.898 132.693C16.8904 130.893 16.8944 129.093 16.9117 127.293C17.0051 116.716 16.0172 109.092 10.5976 99.885C7.22079 93.7877 7.06175 86.3042 8.53109 79.5625C12.7601 65.9562 24.4373 58.3304 35.2264 49.9532C39.1991 46.8607 43.1014 43.6853 46.9998 40.5C52.5197 35.9947 58.0831 31.5539 63.702 27.1729C67.5657 24.1517 71.3745 21.0699 75.1659 17.9585C88.3549 7.14587 97.8991 -0.478853 115.512 -0.387642ZM96.9998 24C96.3201 24.5376 95.6404 25.0751 94.94 25.6289C92.8682 27.2827 90.8382 28.9779 88.8123 30.6875C87.3212 31.931 85.829 33.1732 84.3358 34.4141C83.6033 35.0229 82.8708 35.6316 82.1161 36.2588C79.0955 38.7441 76.024 41.1602 72.9373 43.5625C67.0826 48.1201 61.3185 52.7814 55.5914 57.4983C52.4718 60.0535 49.3308 62.5062 46.0272 64.8204C45.0282 65.5396 44.0291 66.2589 42.9998 67C42.9998 67.33 42.9998 67.66 42.9998 68C55.6488 71.5096 69.6695 73.5157 81.9998 68C92.1637 61.3128 100.62 52.3648 108.937 43.5625C109.766 42.6867 109.766 42.6867 110.612 41.7931C123 30.5855 123 30.5855 131 18C127.021 17.824 123.044 17.7186 119.062 17.625C117.945 17.5748 116.828 17.5245 115.678 17.4727C107.596 17.3305 103.141 18.8031 96.9998 24ZM132.775 40.6563C130.008 43.6438 127.172 46.565 124.344 49.4942C120.244 53.76 116.168 58.0467 112.149 62.3885C110.943 63.6909 110.943 63.6909 109.712 65.0196C107.891 66.6898 107.891 66.6898 108 68C130.426 70.8764 130.426 70.8764 151.828 66.5396C155.797 62.6585 157.405 57.8241 159.043 52.6182C160.727 48.0091 163.534 44.1195 166.25 40.0625C167.254 38.4844 168.254 36.9037 169.25 35.3204C170.925 32.6819 172.61 30.0507 174.312 27.4297C174.952 26.4423 175.591 25.4549 176.25 24.4375C176.791 23.6112 177.333 22.785 177.89 21.9336C179.166 20.0825 179.166 20.0825 179 18C156.858 13.126 146.572 25.6263 132.775 40.6563ZM195.998 22.8636C194.299 25.9255 192.788 29.0427 191.349 32.2344C188.737 37.5898 185.35 42.4989 182.125 47.5C180.872 49.4861 179.624 51.4756 178.383 53.4688C177.85 54.3189 177.318 55.1691 176.77 56.045C174.417 59.9737 172.224 63.9967 170 68C184.85 68 199.7 68 215 68C216.712 61.3623 218.422 54.724 220.127 48.0843C220.708 45.8248 221.29 43.5657 221.873 41.3069C222.71 38.0636 223.543 34.819 224.375 31.5743C224.637 30.5617 224.9 29.5491 225.17 28.5058C225.411 27.5651 225.651 26.6243 225.898 25.6551C226.111 24.8268 226.325 23.9985 226.544 23.1451C227.104 20.8764 227.104 20.8764 227 18C209.838 15.1712 209.838 15.1712 195.998 22.8636ZM246 18C242.894 28.9186 239.967 39.8686 237.187 50.875C236.873 52.1051 236.559 53.3352 236.236 54.6026C235.8 56.3423 235.8 56.3423 235.355 58.1172C235.094 59.1548 234.832 60.1923 234.563 61.2613C233.866 64.187 233.866 64.187 234 68C248.52 68 263.04 68 278 68C277.245 61.6198 277.245 61.6198 275.984 55.4517C275.787 54.6579 275.59 53.8642 275.388 53.0463C275.177 52.2189 274.967 51.3916 274.75 50.5391C274.532 49.6673 274.313 48.7955 274.089 47.8973C273.63 46.0698 273.17 44.2429 272.707 42.4165C271.997 39.6137 271.295 36.809 270.594 34.0039C270.146 32.2239 269.698 30.4439 269.25 28.6641C269.039 27.8246 268.829 26.985 268.612 26.1201C267.6 21.9568 267.6 21.9568 266 18C259.4 18 252.8 18 246 18ZM285 18C286.604 28.5743 289.435 38.8515 292.125 49.1875C294.538 58.4997 294.538 58.4997 297 68C311.85 68 326.7 68 342 68C337.412 59.5898 332.698 51.4993 327.431 43.5269C324.488 39.0471 321.761 34.6896 319.558 29.7969C316.402 22.9918 316.402 22.9918 311 18C302.495 15.9991 293.59 16.9525 285 18ZM333 18C334.191 21.1459 335.474 23.9725 337.293 26.8008C337.751 27.5196 338.21 28.2383 338.682 28.9788C339.179 29.7489 339.676 30.5191 340.187 31.3125C341.261 32.9944 342.334 34.6767 343.406 36.3594C343.981 37.2598 344.556 38.1602 345.148 39.0879C348.523 44.3952 351.854 49.7293 355.187 55.0625C355.847 56.1155 356.507 57.1684 357.186 58.2532C357.799 59.2331 358.412 60.2131 359.043 61.2227C359.59 62.0968 360.136 62.9708 360.7 63.8714C362 66 362 66 363 68C376.53 68 390.06 68 404 68C396.836 59.6421 389.449 51.5459 381.827 43.6056C379.419 41.0942 377.037 38.5666 374.702 35.9871C363.707 23.0565 363.707 23.0565 348.687 16.687C343.368 16.4811 338.215 16.9515 333 18ZM381 18C382.377 19.6062 383.755 21.2122 385.134 22.8177C386.406 24.306 387.674 25.7987 388.938 27.2949C394.608 33.9929 400.436 40.5348 406.437 46.9375C407.141 47.689 407.141 47.689 407.859 48.4557C418.294 59.5189 428.237 70.0488 444.265 70.9896C452.627 71.0471 460.875 69.9134 469 68C465.418 64.3652 461.732 61.1021 457.687 58C452.402 53.8995 447.18 49.7325 442 45.5C422.864 27.3386 422.864 27.3386 400.336 17.9024C398.654 17.9072 398.654 17.9072 396.937 17.9121C395.174 17.9247 395.174 17.9247 393.375 17.9375C392.191 17.942 391.008 17.9466 389.789 17.9512C386.859 17.963 383.93 17.9795 381 18ZM25.9998 86C27.1773 95.4198 29.6325 100.831 37.0467 106.746C42.4818 110.235 48.5884 111.787 54.9998 111C63.5036 108.389 68.9967 104.859 73.9842 97.4883C75.5207 94.0479 75.5207 94.0479 75.9998 86C59.4998 86 42.9998 86 25.9998 86ZM93.9998 86C96.0668 95.3013 98.0132 101.761 106.187 107C112.568 110.625 118.795 110.614 126 110C132.749 108.026 136.883 103.588 141.25 98.25C143.647 94.2826 143.647 94.2826 144 86C127.5 86 111 86 93.9998 86ZM163 86C164.264 96.1121 166.531 100.115 173.902 106.52C180.091 110.887 186.681 110.801 194 110C200.855 108.047 205.249 104.271 209.625 98.7696C211.655 94.983 211.655 94.983 213 86C196.5 86 180 86 163 86ZM231 86C232.049 94.3945 233.621 99.2127 239.875 104.813C247.116 109.882 253.185 111.179 262 110C268.86 107.835 274.179 104.128 278 98C279.985 93.9689 281 90.5535 281 86C264.5 86 248 86 231 86ZM299 86C300.776 94.8784 302.022 100.217 309.066 105.57C316.251 110.201 322.519 110.685 331 110C338.126 108.248 342.811 102.752 347 97C348.935 92.8075 349 90.7442 349 86C332.5 86 316 86 299 86ZM368 86C368.949 94.546 369.548 97.9634 375 104C382.508 109.95 389.563 110.804 399 110C406.77 107.727 412.129 101.942 416 95C416.66 92.03 417.32 89.06 418 86C401.5 86 385 86 368 86ZM436 86C437.264 96.1121 439.531 100.115 446.902 106.52C453.083 110.882 459.689 110.816 467 110C473.814 107.915 479.304 104.148 483 98C484.751 94.0051 486 90.3798 486 86C469.5 86 453 86 436 86ZM84.9998 112C84.3985 112.671 84.3985 112.671 83.785 113.356C83.2165 113.96 82.6481 114.565 82.0623 115.188C81.2444 116.075 81.2444 116.075 80.41 116.981C76.9873 119.849 72.9034 121.831 68.9998 124C68.9998 181.42 68.9998 238.84 68.9998 298C74.6098 298 80.2198 298 85.9998 298C85.9173 295.587 85.8348 293.174 85.7498 290.688C85.6686 283.407 86.7246 277.591 89.9998 271C90.4123 270.149 90.8248 269.298 91.2498 268.422C98.3549 255.261 111.022 247.646 124.699 242.648C145.053 236.635 166.457 237.964 185.437 247.777C193.323 252.261 193.323 252.261 195.515 254.656C197.589 256.534 199.309 256.55 202.062 256.875C206.436 257.515 209.364 258.636 213.125 260.938C215.499 262.356 215.499 262.356 218 263C220.737 262.169 222.668 261.022 224.992 259.367C230.881 255.357 240.129 256.311 247 257C250.589 257.944 253.73 259.264 257 261C257.748 261.374 258.495 261.748 259.265 262.133C259.838 262.419 260.41 262.705 261 263C262.299 262.072 262.299 262.072 263.625 261.125C272.268 255.683 283.172 255.603 293.015 257.617C301.399 260.596 307.943 266.369 312 274.25C315.829 282.601 315 287.756 315 298C326.22 298 337.44 298 349 298C349.037 295.517 349.075 293.035 349.113 290.477C349.159 288.04 349.211 285.605 349.262 283.168C349.295 281.491 349.323 279.813 349.346 278.135C349.65 256.453 349.65 256.453 354.603 249.87C356.199 248.122 356.199 248.122 356 246C356.536 245.753 357.072 245.505 357.625 245.25C358.8 244.631 358.8 244.631 360 244C361.025 243.53 362.049 243.059 363.105 242.574C366.33 239.706 366.455 239.259 366.762 235.191C366.768 233.315 366.742 231.438 366.687 229.563C366.702 228.621 366.717 227.679 366.732 226.709C366.676 222.044 366.636 219.765 363.582 216.09C362.73 215.4 361.878 214.711 361 214C357.655 208.876 358.672 202.505 358.687 196.625C358.671 195.406 358.655 194.186 358.639 192.93C358.638 191.749 358.637 190.568 358.637 189.352C358.632 187.74 358.632 187.74 358.628 186.096C359.206 181.284 361.106 177.227 364.937 174.188C368.757 171.459 371.494 170.884 376.107 170.839C376.904 170.829 377.702 170.82 378.525 170.81C379.806 170.803 379.806 170.803 381.113 170.797C382.001 170.791 382.889 170.786 383.803 170.78C385.68 170.77 387.557 170.764 389.434 170.76C392.292 170.75 395.148 170.719 398.006 170.688C399.833 170.681 401.661 170.676 403.488 170.672C404.76 170.653 404.76 170.653 406.058 170.634C412.036 170.657 417.047 171.457 421.742 175.5C426.802 182.201 426.281 188.055 426.375 196.188C426.412 197.395 426.45 198.602 426.488 199.846C426.559 207.089 426.114 212.54 421 218C420.34 218.33 419.68 218.66 419 219C419 225.27 419 231.54 419 238C426.92 238 434.84 238 443 238C443 200.38 443 162.76 443 124C440.03 122.35 437.06 120.7 434 119C431.59 116.981 431.59 116.981 429.937 115.188C429.085 114.281 429.085 114.281 428.215 113.356C427.814 112.908 427.413 112.461 427 112C425.546 113.299 425.546 113.299 424.062 114.625C414.501 122.763 405.504 127.603 392.75 127.5C391.926 127.495 391.103 127.49 390.255 127.485C379.275 127.175 370.9 123.549 363 116C362.34 116 361.68 116 361 116C360.34 114.68 359.68 113.36 359 112C357.546 113.299 357.546 113.299 356.062 114.625C346.43 122.824 337.466 127.603 324.625 127.438C323.795 127.43 322.965 127.422 322.11 127.415C310.302 127.099 300.347 122.44 291.937 114.125C291.298 113.424 290.659 112.723 290 112C289.657 112.424 289.314 112.848 288.961 113.285C282.089 120.986 271.422 126.612 261.058 127.238C244.415 127.639 233.528 122.922 221 112C220.072 113.299 220.072 113.299 219.125 114.625C213.262 121.63 203.674 126.136 194.674 127.301C192.315 127.436 189.987 127.468 187.625 127.438C186.795 127.429 185.965 127.421 185.11 127.412C173.844 127.103 166.439 123.289 158 116C156.989 115.196 155.979 114.391 154.937 113.563C154.298 113.047 153.659 112.531 153 112C152.629 112.928 152.629 112.928 152.25 113.875C150.74 116.441 149.642 116.729 147 118C144.878 119.457 142.79 120.954 140.707 122.465C133.947 126.298 127.329 127.538 119.625 127.438C118.793 127.429 117.962 127.419 117.105 127.41C104.186 127.047 93.8886 121.386 84.9998 112ZM34.9998 125C34.9998 182.09 34.9998 239.18 34.9998 298C40.2798 298 45.5598 298 50.9998 298C50.9998 241.9 50.9998 185.8 50.9998 128C46.7098 127.34 42.4198 126.68 37.9998 126C37.0098 125.67 36.0198 125.34 34.9998 125ZM461 128C461 184.1 461 240.2 461 298C466.28 298 471.56 298 477 298C477 241.24 477 184.48 477 126C471.625 126 466.312 127.183 461 128ZM376 188C376 193.28 376 198.56 376 204C386.89 204 397.78 204 409 204C409 198.72 409 193.44 409 188C398.11 188 387.22 188 376 188ZM384 222C384 227.28 384 232.56 384 238C389.61 238 395.22 238 401 238C401 232.72 401 227.44 401 222C395.39 222 389.78 222 384 222ZM369 259C364.165 271.086 367 284.983 367 298C392.08 298 417.16 298 443 298C443 284.14 443 270.28 443 256C431.263 255.913 431.263 255.913 419.525 255.854C414.735 255.836 409.944 255.815 405.153 255.774C401.289 255.741 397.425 255.723 393.56 255.715C392.089 255.71 390.619 255.699 389.148 255.683C387.08 255.661 385.013 255.658 382.945 255.659C381.77 255.653 380.596 255.646 379.385 255.639C375.363 256.068 372.527 257.02 369 259ZM110.223 271.723C104.315 278.064 102.635 284.239 102.797 292.801C102.932 295.176 102.932 295.176 104 298C123.47 298 142.94 298 163 298C163 292.72 163 287.44 163 282C165.242 273.873 169.099 268.93 175 263C156.934 247.994 125.29 257.119 110.223 271.723ZM182.687 280.625C180.281 284.012 179.843 285.819 179.812 289.938C179.798 290.813 179.784 291.688 179.769 292.59C179.833 295.262 179.833 295.262 182 298C184.421 298.416 184.421 298.416 187.226 298.293C188.258 298.283 189.289 298.274 190.351 298.264C191.972 298.226 191.972 298.226 193.625 298.188C194.713 298.174 195.801 298.16 196.922 298.147C199.615 298.111 202.307 298.062 205 298C204.979 297.171 204.959 296.341 204.938 295.487C204.797 288.96 205.318 283.306 207 277C198.056 271.351 189.57 272.812 182.687 280.625ZM224.625 280.75C222.744 284.511 221.767 287.784 222 292C222.66 293.98 223.32 295.96 224 298C233.9 298 243.8 298 254 298C255.45 293.65 255.511 289.547 255 285C252.507 280.013 249.006 276.503 244 274C235.675 273.072 230.259 274.226 224.625 280.75ZM271 277C271.144 277.678 271.289 278.356 271.437 279.055C271.623 279.985 271.809 280.916 272 281.875C272.185 282.78 272.371 283.685 272.562 284.617C273.135 289.044 273 293.537 273 298C280.59 298 288.18 298 296 298C298.134 293.731 298.566 290.642 298 286C295.997 280.325 292.386 276.693 287 274C280.936 273.433 276.279 273.666 271 277ZM18.9998 319C17.5542 321.891 17.8638 324.398 17.8527 327.63C17.849 328.319 17.8453 329.008 17.8415 329.717C17.8305 332.037 17.8266 334.357 17.8228 336.677C17.8166 338.336 17.8099 339.995 17.8029 341.654C17.7855 346.168 17.775 350.683 17.7667 355.197C17.7616 358.016 17.7555 360.834 17.7492 363.653C17.7302 372.466 17.7159 381.279 17.7076 390.092C17.6978 400.276 17.6715 410.46 17.6311 420.643C17.601 428.508 17.5861 436.373 17.5828 444.238C17.5805 448.939 17.5715 453.64 17.5464 458.34C17.5231 462.761 17.5188 467.181 17.5291 471.602C17.5296 473.226 17.5232 474.85 17.5096 476.474C17.4919 478.688 17.4989 480.902 17.5121 483.117C17.5097 484.357 17.5073 485.597 17.5049 486.874C17.7627 490.07 17.7627 490.07 19.7897 492.402C23.1428 494.827 26.5103 494.495 30.4842 494.391C31.7076 494.382 31.7076 494.382 32.9557 494.374C35.5544 494.351 38.1516 494.301 40.7498 494.25C42.5141 494.23 44.2785 494.212 46.0428 494.195C50.3624 494.151 54.6809 494.082 58.9998 494C59.0035 492.915 59.0071 491.831 59.0109 490.713C59.0479 480.473 59.1057 470.233 59.1837 459.993C59.2232 454.729 59.2554 449.465 59.2708 444.201C59.286 439.118 59.3205 434.034 59.3682 428.951C59.3829 427.015 59.3909 425.079 59.3917 423.143C59.3941 420.424 59.4212 417.706 59.4539 414.986C59.4464 413.795 59.4464 413.795 59.4387 412.58C59.5415 407.028 60.8187 402.611 63.9998 398C64.9061 397.341 65.8123 396.683 66.7459 396.004C69.4188 394.086 69.4188 394.086 69.3475 390.277C69.2698 388.83 69.1739 387.383 69.0623 385.938C68.709 375.753 70.4706 368.67 77.0623 360.625C83.842 353.646 91.62 350.42 101.297 349.922C106.852 350.082 112.006 351.163 117.125 353.313C120.653 354.156 122.544 353.2 125.808 351.813C133.989 348.779 143.7 349.641 151.598 353.156C154.863 354.303 156.632 353.106 159.703 351.813C168.132 348.831 177.156 349.672 185.344 352.934C193.181 356.812 199.021 362.968 202.5 371C204.376 376.66 204.205 382.195 203.678 388.074C203.476 390.471 203.476 390.471 204 394C206.5 396.452 206.5 396.452 208.399 397.508C211.952 400.819 213.151 405.478 213.399 410.183C213.425 411.746 213.435 413.309 213.432 414.873C213.448 416.162 213.448 416.162 213.463 417.477C213.493 420.296 213.502 423.115 213.512 425.934C213.528 427.897 213.547 429.86 213.566 431.823C213.613 436.973 213.643 442.123 213.669 447.274C213.705 453.463 213.761 459.651 213.815 465.839C213.893 475.226 213.944 484.613 214 494C241.72 494 269.44 494 298 494C298.026 487.74 298.051 481.481 298.078 475.031C298.103 471.057 298.129 467.083 298.16 463.109C298.208 456.807 298.252 450.504 298.271 444.201C298.286 439.118 298.321 434.034 298.368 428.951C298.383 427.015 298.391 425.079 298.392 423.143C298.394 420.424 298.421 417.706 298.454 414.986C298.449 414.192 298.444 413.398 298.439 412.58C298.541 407.03 299.815 402.607 303 398C304.355 397.033 304.355 397.033 305.738 396.047C308.136 394.287 308.136 394.287 308.365 392.143C308.421 389.827 308.337 387.562 308.187 385.25C307.871 379.032 308.226 374 310 368C309.373 367.83 308.747 367.66 308.101 367.484C307.284 367.242 306.467 367 305.625 366.75C304.813 366.518 304.001 366.286 303.164 366.047C301 365 301 365 299.699 363.113C298.615 359.836 299.217 357.311 300 354C301.659 351.38 302.703 351.071 305.73 350.344C309.29 349.969 311.692 350.418 315.125 351.375C316.138 351.651 317.151 351.927 318.195 352.211C319.851 352.677 321.503 353.161 323.14 353.688C325.989 354.166 328.13 352.824 330.734 351.777C339.14 348.893 348.027 349.767 356.062 353.375C360.001 354.213 362.253 353.423 365.828 351.672C369.3 348.999 370.786 345.518 372.672 341.637C374.91 337.193 377.1 334.647 381.937 333C385.91 333 387.835 333.571 391 336C392.051 338.704 392.265 341.119 392 344C390.625 346.813 390.625 346.813 389 349C388.67 349.99 388.34 350.98 388 352C390.071 353.351 390.071 353.351 393 354C394.916 353.306 396.83 352.602 398.711 351.816C408.159 348.447 416.902 350.695 426.117 353.688C428.991 354.164 431.157 352.84 433.781 351.777C438.474 350.133 443.087 349.552 447.937 350.688C450.472 352.301 451.214 353.091 452 356C451.824 359.333 451.656 361.943 449.875 364.813C447.1 366.57 444.168 367.223 441 368C441.33 369.134 441.66 370.269 442 371.438C442.786 374.768 443.04 377.806 442.922 381.207C442.897 381.954 442.873 382.7 442.848 383.469C442.783 384.971 442.693 386.472 442.574 387.971C442.41 390.409 442.41 390.409 443 394C445.813 396.639 445.813 396.639 449 399C451.912 404.396 452.443 408.81 452.432 414.873C452.442 415.732 452.453 416.592 452.463 417.477C452.493 420.296 452.502 423.115 452.512 425.934C452.528 427.897 452.547 429.86 452.566 431.823C452.613 436.973 452.643 442.123 452.669 447.274C452.699 452.536 452.746 457.798 452.791 463.061C452.877 473.374 452.944 483.687 453 494C458.196 494.099 463.391 494.172 468.588 494.22C470.356 494.24 472.123 494.267 473.89 494.302C476.432 494.35 478.973 494.373 481.515 494.391C482.304 494.411 483.093 494.432 483.905 494.453C487.255 494.455 489.462 494.394 492.208 492.382C494.57 489.243 494.505 487.345 494.514 483.436C494.525 482.449 494.525 482.449 494.536 481.443C494.554 479.239 494.544 477.037 494.533 474.834C494.54 473.253 494.549 471.673 494.559 470.092C494.582 465.799 494.579 461.505 494.57 457.211C494.565 453.623 494.572 450.035 494.58 446.447C494.597 437.976 494.593 429.505 494.576 421.034C494.559 412.309 494.575 403.584 494.607 394.859C494.634 387.36 494.641 379.861 494.633 372.362C494.628 367.887 494.63 363.412 494.651 358.937C494.669 354.723 494.663 350.509 494.639 346.295C494.634 344.754 494.637 343.214 494.65 341.673C494.717 332.823 494.202 325.483 489 318C486.531 315.531 485.137 315.759 481.768 315.732C481.031 315.737 480.295 315.741 479.537 315.746C478.363 315.741 478.363 315.741 477.166 315.736C474.516 315.727 471.866 315.734 469.216 315.739C467.308 315.736 465.4 315.732 463.492 315.728C458.227 315.717 452.962 315.72 447.698 315.724C442.028 315.726 436.359 315.717 430.689 315.71C419.573 315.697 408.457 315.695 397.341 315.698C388.309 315.699 379.277 315.698 370.245 315.693C368.961 315.693 367.678 315.692 366.356 315.692C363.749 315.69 361.143 315.689 358.536 315.688C341.021 315.68 323.506 315.676 305.992 315.68C305.306 315.681 304.621 315.681 303.915 315.681C300.44 315.682 296.966 315.682 293.492 315.683C292.802 315.683 292.112 315.684 291.401 315.684C290.006 315.684 288.61 315.685 287.215 315.685C265.504 315.69 243.793 315.682 222.082 315.664C197.705 315.643 173.328 315.632 148.951 315.636C136.038 315.638 123.126 315.636 110.213 315.622C99.2193 315.61 88.2255 315.608 77.2317 315.621C71.619 315.626 66.0065 315.627 60.3938 315.616C55.2598 315.605 50.1261 315.608 44.9922 315.622C43.1308 315.624 41.2694 315.622 39.408 315.614C36.8852 315.604 34.3631 315.612 31.8403 315.625C30.7467 315.614 30.7467 315.614 29.6309 315.603C25.2587 315.65 22.4784 316.312 18.9998 319ZM92.9998 370C88.4224 374.183 86.1138 377.606 85.8123 383.938C85.736 387.539 86.2371 388.475 87.9998 392C92.9498 392 97.8998 392 103 392C102.938 389.711 102.876 387.421 102.812 385.063C102.729 378.788 103.56 373.794 106 368C101.118 366.322 97.3296 367.497 92.9998 370ZM127 370C122.436 374.217 120.115 377.581 119.812 383.938C119.736 387.539 120.237 388.475 122 392C131.57 392 141.14 392 151 392C153.134 387.731 153.566 384.642 153 380C151.264 375.08 148.512 371.629 144 369C137.902 366.516 132.632 366.391 127 370ZM167 369C167.495 370.011 167.99 371.021 168.5 372.063C170.96 378.45 170.18 385.281 170 392C174.95 392 179.9 392 185 392C187.333 387.333 187.721 384.119 187 379C184.499 374.092 181.26 370.24 176.008 368.242C171.289 366.83 171.289 366.83 167 369ZM332 370C328.807 372.98 325.208 376.495 324.832 381.023C324.825 381.799 324.819 382.575 324.812 383.375C324.798 384.146 324.784 384.917 324.769 385.711C324.903 388.399 324.903 388.399 327 392C331.95 392 336.9 392 342 392C341.938 389.711 341.876 387.421 341.812 385.063C341.729 378.788 342.56 373.794 345 368C340.123 366.324 336.324 367.492 332 370ZM366 370C361.436 374.217 359.115 377.581 358.812 383.938C358.736 387.539 359.237 388.475 361 392C370.57 392 380.14 392 390 392C392.128 387.743 392.702 384.635 392 380C390.214 375.222 387.373 371.624 383 369C376.843 366.617 371.672 366.365 366 370ZM406 369C406.495 370.011 406.99 371.021 407.5 372.063C409.96 378.45 409.18 385.281 409 392C413.95 392 418.9 392 424 392C426.134 387.731 426.566 384.642 426 380C424.263 375.078 421.483 371.672 417 369C412.729 367.293 410.051 366.299 406 369ZM76.9998 410C76.9998 415.28 76.9998 420.56 76.9998 426C116.27 426 155.54 426 196 426C196 420.72 196 415.44 196 410C156.73 410 117.46 410 76.9998 410ZM316 410C316 415.28 316 420.56 316 426C355.27 426 394.54 426 435 426C435 420.72 435 415.44 435 410C395.73 410 356.46 410 316 410ZM76.9998 444C76.9998 449.28 76.9998 454.56 76.9998 460C116.27 460 155.54 460 196 460C196 454.72 196 449.44 196 444C156.73 444 117.46 444 76.9998 444ZM316 444C316 449.28 316 454.56 316 460C355.27 460 394.54 460 435 460C435 454.72 435 449.44 435 444C395.73 444 356.46 444 316 444ZM76.9998 478C76.9998 483.28 76.9998 488.56 76.9998 494C116.27 494 155.54 494 196 494C196 488.72 196 483.44 196 478C156.73 478 117.46 478 76.9998 478ZM316 478C316 483.28 316 488.56 316 494C355.27 494 394.54 494 435 494C435 488.72 435 483.44 435 478C395.73 478 356.46 478 316 478Z"/>
</mask>
<path d="M115.512 -0.387642C116.761 -0.393028 118.01 -0.398413 119.297 -0.403962C122.749 -0.418374 126.2 -0.414185 129.652 -0.406795C133.381 -0.402055 137.109 -0.41458 140.838 -0.424812C148.137 -0.44199 155.436 -0.442843 162.735 -0.437599C168.669 -0.433554 174.603 -0.435005 180.537 -0.440348C181.805 -0.44147 181.805 -0.44147 183.099 -0.442616C184.816 -0.444147 186.533 -0.445686 188.251 -0.447231C204.348 -0.460952 220.445 -0.455521 236.543 -0.444045C251.26 -0.434114 265.977 -0.447052 280.694 -0.47098C295.816 -0.49538 310.938 -0.504976 326.06 -0.498327C334.546 -0.494837 343.031 -0.497054 351.517 -0.514578C358.741 -0.529312 365.965 -0.52992 373.189 -0.512507C376.872 -0.504004 380.555 -0.50183 384.239 -0.517159C388.237 -0.533594 392.235 -0.518837 396.234 -0.501167C397.39 -0.510772 398.546 -0.520377 399.737 -0.530273C410.829 -0.429567 418.53 2.91204 426.812 10.125C428.203 11.2958 429.595 12.465 430.988 13.6329C431.667 14.2068 432.346 14.7808 433.045 15.3721C435.802 17.6683 438.64 19.8329 441.5 22C447.088 26.2621 452.546 30.6664 457.988 35.1133C462.289 38.6234 466.624 42.0832 471 45.5C473.335 47.3309 475.668 49.1648 478 51C478.676 51.5316 479.353 52.0632 480.05 52.6109C502.011 69.9273 502.011 69.9273 504 81C504.772 88.4217 504.471 97.3572 499.818 103.581C494.373 111.385 495.293 120.368 495.34 129.463C495.332 131.336 495.321 133.21 495.309 135.083C495.281 140.148 495.283 145.213 495.291 150.279C495.294 155.58 495.269 160.881 495.247 166.182C495.21 176.212 495.197 186.241 495.194 196.271C495.19 207.693 495.157 219.115 495.121 230.537C495.05 254.025 495.013 277.512 495 301C495.619 301.292 496.237 301.584 496.875 301.885C504.636 305.959 509.012 314.671 511.534 322.7C512.157 325.776 512.136 328.704 512.147 331.843C512.151 332.531 512.154 333.219 512.158 333.928C512.169 336.232 512.173 338.536 512.177 340.841C512.183 342.493 512.19 344.146 512.197 345.799C512.218 351.225 512.228 356.652 512.238 362.078C512.242 363.948 512.246 365.817 512.25 367.687C512.27 376.47 512.284 385.253 512.292 394.037C512.302 404.169 512.328 414.302 512.369 424.435C512.399 432.271 512.414 440.107 512.417 447.943C512.419 452.622 512.428 457.3 512.453 461.978C512.477 466.381 512.481 470.784 512.471 475.187C512.47 476.799 512.476 478.411 512.49 480.024C512.568 489.652 512.492 496.938 505.816 504.461C504.701 505.408 504.701 505.408 503.562 506.375C502.821 507.022 502.08 507.669 501.316 508.336C496.383 511.88 491.916 512.29 485.973 512.257C485.166 512.261 484.359 512.264 483.528 512.268C480.812 512.277 478.097 512.272 475.382 512.267C473.42 512.271 471.458 512.276 469.496 512.281C464.095 512.293 458.695 512.293 453.294 512.291C447.473 512.29 441.653 512.301 435.832 512.311C424.424 512.328 413.017 512.333 401.61 512.334C392.339 512.335 383.069 512.339 373.798 512.346C371.131 512.347 368.463 512.349 365.795 512.351C365.132 512.351 364.469 512.352 363.785 512.352C345.129 512.365 326.472 512.372 307.816 512.372C307.112 512.372 306.409 512.371 305.684 512.371C302.118 512.371 298.552 512.371 294.987 512.371C293.924 512.371 293.924 512.371 292.841 512.371C291.408 512.371 289.976 512.371 288.544 512.371C266.262 512.369 243.98 512.384 221.698 512.412C196.668 512.442 171.639 512.46 146.609 512.458C133.355 512.457 120.1 512.463 106.846 512.484C95.5619 512.502 84.2777 512.507 72.9935 512.493C67.2345 512.487 61.4758 512.486 55.7169 512.504C50.4459 512.519 45.1753 512.517 39.9044 512.499C37.9966 512.496 36.0888 512.5 34.181 512.511C31.5883 512.525 28.9968 512.514 26.4041 512.498C25.6629 512.508 24.9217 512.518 24.158 512.528C17.1673 512.433 11.109 509.705 6.18734 504.688C5.64465 504.155 5.10195 503.623 4.54281 503.074C0.613729 497.792 -0.375586 492.988 -0.387836 486.492C-0.393222 485.769 -0.398607 485.046 -0.404156 484.301C-0.418382 481.895 -0.411345 479.49 -0.404209 477.084C-0.409915 475.352 -0.416881 473.621 -0.425007 471.889C-0.442923 467.196 -0.44177 462.504 -0.436062 457.812C-0.432968 453.891 -0.439067 449.969 -0.445102 446.048C-0.459141 436.795 -0.457592 427.542 -0.446201 418.289C-0.43472 408.752 -0.448797 399.215 -0.475597 389.679C-0.497768 381.481 -0.504391 373.284 -0.498523 365.087C-0.495156 360.195 -0.497554 355.303 -0.514774 350.412C-0.530263 345.811 -0.526262 341.211 -0.507465 336.61C-0.503785 334.925 -0.506874 333.24 -0.517353 331.555C-0.57471 321.567 -0.479331 314.186 6.37484 306.25C13.6665 300 13.6665 300 16.9998 300C17.0328 275.599 17.0257 251.199 16.9714 226.798C16.9471 215.467 16.9357 204.136 16.9552 192.806C16.9721 182.925 16.9644 173.045 16.9275 163.165C16.9088 157.937 16.9022 152.71 16.9252 147.482C16.9464 142.552 16.9344 137.623 16.898 132.693C16.8904 130.893 16.8944 129.093 16.9117 127.293C17.0051 116.716 16.0172 109.092 10.5976 99.885C7.22079 93.7877 7.06175 86.3042 8.53109 79.5625C12.7601 65.9562 24.4373 58.3304 35.2264 49.9532C39.1991 46.8607 43.1014 43.6853 46.9998 40.5C52.5197 35.9947 58.0831 31.5539 63.702 27.1729C67.5657 24.1517 71.3745 21.0699 75.1659 17.9585C88.3549 7.14587 97.8991 -0.478853 115.512 -0.387642ZM96.9998 24C96.3201 24.5376 95.6404 25.0751 94.94 25.6289C92.8682 27.2827 90.8382 28.9779 88.8123 30.6875C87.3212 31.931 85.829 33.1732 84.3358 34.4141C83.6033 35.0229 82.8708 35.6316 82.1161 36.2588C79.0955 38.7441 76.024 41.1602 72.9373 43.5625C67.0826 48.1201 61.3185 52.7814 55.5914 57.4983C52.4718 60.0535 49.3308 62.5062 46.0272 64.8204C45.0282 65.5396 44.0291 66.2589 42.9998 67C42.9998 67.33 42.9998 67.66 42.9998 68C55.6488 71.5096 69.6695 73.5157 81.9998 68C92.1637 61.3128 100.62 52.3648 108.937 43.5625C109.766 42.6867 109.766 42.6867 110.612 41.7931C123 30.5855 123 30.5855 131 18C127.021 17.824 123.044 17.7186 119.062 17.625C117.945 17.5748 116.828 17.5245 115.678 17.4727C107.596 17.3305 103.141 18.8031 96.9998 24ZM132.775 40.6563C130.008 43.6438 127.172 46.565 124.344 49.4942C120.244 53.76 116.168 58.0467 112.149 62.3885C110.943 63.6909 110.943 63.6909 109.712 65.0196C107.891 66.6898 107.891 66.6898 108 68C130.426 70.8764 130.426 70.8764 151.828 66.5396C155.797 62.6585 157.405 57.8241 159.043 52.6182C160.727 48.0091 163.534 44.1195 166.25 40.0625C167.254 38.4844 168.254 36.9037 169.25 35.3204C170.925 32.6819 172.61 30.0507 174.312 27.4297C174.952 26.4423 175.591 25.4549 176.25 24.4375C176.791 23.6112 177.333 22.785 177.89 21.9336C179.166 20.0825 179.166 20.0825 179 18C156.858 13.126 146.572 25.6263 132.775 40.6563ZM195.998 22.8636C194.299 25.9255 192.788 29.0427 191.349 32.2344C188.737 37.5898 185.35 42.4989 182.125 47.5C180.872 49.4861 179.624 51.4756 178.383 53.4688C177.85 54.3189 177.318 55.1691 176.77 56.045C174.417 59.9737 172.224 63.9967 170 68C184.85 68 199.7 68 215 68C216.712 61.3623 218.422 54.724 220.127 48.0843C220.708 45.8248 221.29 43.5657 221.873 41.3069C222.71 38.0636 223.543 34.819 224.375 31.5743C224.637 30.5617 224.9 29.5491 225.17 28.5058C225.411 27.5651 225.651 26.6243 225.898 25.6551C226.111 24.8268 226.325 23.9985 226.544 23.1451C227.104 20.8764 227.104 20.8764 227 18C209.838 15.1712 209.838 15.1712 195.998 22.8636ZM246 18C242.894 28.9186 239.967 39.8686 237.187 50.875C236.873 52.1051 236.559 53.3352 236.236 54.6026C235.8 56.3423 235.8 56.3423 235.355 58.1172C235.094 59.1548 234.832 60.1923 234.563 61.2613C233.866 64.187 233.866 64.187 234 68C248.52 68 263.04 68 278 68C277.245 61.6198 277.245 61.6198 275.984 55.4517C275.787 54.6579 275.59 53.8642 275.388 53.0463C275.177 52.2189 274.967 51.3916 274.75 50.5391C274.532 49.6673 274.313 48.7955 274.089 47.8973C273.63 46.0698 273.17 44.2429 272.707 42.4165C271.997 39.6137 271.295 36.809 270.594 34.0039C270.146 32.2239 269.698 30.4439 269.25 28.6641C269.039 27.8246 268.829 26.985 268.612 26.1201C267.6 21.9568 267.6 21.9568 266 18C259.4 18 252.8 18 246 18ZM285 18C286.604 28.5743 289.435 38.8515 292.125 49.1875C294.538 58.4997 294.538 58.4997 297 68C311.85 68 326.7 68 342 68C337.412 59.5898 332.698 51.4993 327.431 43.5269C324.488 39.0471 321.761 34.6896 319.558 29.7969C316.402 22.9918 316.402 22.9918 311 18C302.495 15.9991 293.59 16.9525 285 18ZM333 18C334.191 21.1459 335.474 23.9725 337.293 26.8008C337.751 27.5196 338.21 28.2383 338.682 28.9788C339.179 29.7489 339.676 30.5191 340.187 31.3125C341.261 32.9944 342.334 34.6767 343.406 36.3594C343.981 37.2598 344.556 38.1602 345.148 39.0879C348.523 44.3952 351.854 49.7293 355.187 55.0625C355.847 56.1155 356.507 57.1684 357.186 58.2532C357.799 59.2331 358.412 60.2131 359.043 61.2227C359.59 62.0968 360.136 62.9708 360.7 63.8714C362 66 362 66 363 68C376.53 68 390.06 68 404 68C396.836 59.6421 389.449 51.5459 381.827 43.6056C379.419 41.0942 377.037 38.5666 374.702 35.9871C363.707 23.0565 363.707 23.0565 348.687 16.687C343.368 16.4811 338.215 16.9515 333 18ZM381 18C382.377 19.6062 383.755 21.2122 385.134 22.8177C386.406 24.306 387.674 25.7987 388.938 27.2949C394.608 33.9929 400.436 40.5348 406.437 46.9375C407.141 47.689 407.141 47.689 407.859 48.4557C418.294 59.5189 428.237 70.0488 444.265 70.9896C452.627 71.0471 460.875 69.9134 469 68C465.418 64.3652 461.732 61.1021 457.687 58C452.402 53.8995 447.18 49.7325 442 45.5C422.864 27.3386 422.864 27.3386 400.336 17.9024C398.654 17.9072 398.654 17.9072 396.937 17.9121C395.174 17.9247 395.174 17.9247 393.375 17.9375C392.191 17.942 391.008 17.9466 389.789 17.9512C386.859 17.963 383.93 17.9795 381 18ZM25.9998 86C27.1773 95.4198 29.6325 100.831 37.0467 106.746C42.4818 110.235 48.5884 111.787 54.9998 111C63.5036 108.389 68.9967 104.859 73.9842 97.4883C75.5207 94.0479 75.5207 94.0479 75.9998 86C59.4998 86 42.9998 86 25.9998 86ZM93.9998 86C96.0668 95.3013 98.0132 101.761 106.187 107C112.568 110.625 118.795 110.614 126 110C132.749 108.026 136.883 103.588 141.25 98.25C143.647 94.2826 143.647 94.2826 144 86C127.5 86 111 86 93.9998 86ZM163 86C164.264 96.1121 166.531 100.115 173.902 106.52C180.091 110.887 186.681 110.801 194 110C200.855 108.047 205.249 104.271 209.625 98.7696C211.655 94.983 211.655 94.983 213 86C196.5 86 180 86 163 86ZM231 86C232.049 94.3945 233.621 99.2127 239.875 104.813C247.116 109.882 253.185 111.179 262 110C268.86 107.835 274.179 104.128 278 98C279.985 93.9689 281 90.5535 281 86C264.5 86 248 86 231 86ZM299 86C300.776 94.8784 302.022 100.217 309.066 105.57C316.251 110.201 322.519 110.685 331 110C338.126 108.248 342.811 102.752 347 97C348.935 92.8075 349 90.7442 349 86C332.5 86 316 86 299 86ZM368 86C368.949 94.546 369.548 97.9634 375 104C382.508 109.95 389.563 110.804 399 110C406.77 107.727 412.129 101.942 416 95C416.66 92.03 417.32 89.06 418 86C401.5 86 385 86 368 86ZM436 86C437.264 96.1121 439.531 100.115 446.902 106.52C453.083 110.882 459.689 110.816 467 110C473.814 107.915 479.304 104.148 483 98C484.751 94.0051 486 90.3798 486 86C469.5 86 453 86 436 86ZM84.9998 112C84.3985 112.671 84.3985 112.671 83.785 113.356C83.2165 113.96 82.6481 114.565 82.0623 115.188C81.2444 116.075 81.2444 116.075 80.41 116.981C76.9873 119.849 72.9034 121.831 68.9998 124C68.9998 181.42 68.9998 238.84 68.9998 298C74.6098 298 80.2198 298 85.9998 298C85.9173 295.587 85.8348 293.174 85.7498 290.688C85.6686 283.407 86.7246 277.591 89.9998 271C90.4123 270.149 90.8248 269.298 91.2498 268.422C98.3549 255.261 111.022 247.646 124.699 242.648C145.053 236.635 166.457 237.964 185.437 247.777C193.323 252.261 193.323 252.261 195.515 254.656C197.589 256.534 199.309 256.55 202.062 256.875C206.436 257.515 209.364 258.636 213.125 260.938C215.499 262.356 215.499 262.356 218 263C220.737 262.169 222.668 261.022 224.992 259.367C230.881 255.357 240.129 256.311 247 257C250.589 257.944 253.73 259.264 257 261C257.748 261.374 258.495 261.748 259.265 262.133C259.838 262.419 260.41 262.705 261 263C262.299 262.072 262.299 262.072 263.625 261.125C272.268 255.683 283.172 255.603 293.015 257.617C301.399 260.596 307.943 266.369 312 274.25C315.829 282.601 315 287.756 315 298C326.22 298 337.44 298 349 298C349.037 295.517 349.075 293.035 349.113 290.477C349.159 288.04 349.211 285.605 349.262 283.168C349.295 281.491 349.323 279.813 349.346 278.135C349.65 256.453 349.65 256.453 354.603 249.87C356.199 248.122 356.199 248.122 356 246C356.536 245.753 357.072 245.505 357.625 245.25C358.8 244.631 358.8 244.631 360 244C361.025 243.53 362.049 243.059 363.105 242.574C366.33 239.706 366.455 239.259 366.762 235.191C366.768 233.315 366.742 231.438 366.687 229.563C366.702 228.621 366.717 227.679 366.732 226.709C366.676 222.044 366.636 219.765 363.582 216.09C362.73 215.4 361.878 214.711 361 214C357.655 208.876 358.672 202.505 358.687 196.625C358.671 195.406 358.655 194.186 358.639 192.93C358.638 191.749 358.637 190.568 358.637 189.352C358.632 187.74 358.632 187.74 358.628 186.096C359.206 181.284 361.106 177.227 364.937 174.188C368.757 171.459 371.494 170.884 376.107 170.839C376.904 170.829 377.702 170.82 378.525 170.81C379.806 170.803 379.806 170.803 381.113 170.797C382.001 170.791 382.889 170.786 383.803 170.78C385.68 170.77 387.557 170.764 389.434 170.76C392.292 170.75 395.148 170.719 398.006 170.688C399.833 170.681 401.661 170.676 403.488 170.672C404.76 170.653 404.76 170.653 406.058 170.634C412.036 170.657 417.047 171.457 421.742 175.5C426.802 182.201 426.281 188.055 426.375 196.188C426.412 197.395 426.45 198.602 426.488 199.846C426.559 207.089 426.114 212.54 421 218C420.34 218.33 419.68 218.66 419 219C419 225.27 419 231.54 419 238C426.92 238 434.84 238 443 238C443 200.38 443 162.76 443 124C440.03 122.35 437.06 120.7 434 119C431.59 116.981 431.59 116.981 429.937 115.188C429.085 114.281 429.085 114.281 428.215 113.356C427.814 112.908 427.413 112.461 427 112C425.546 113.299 425.546 113.299 424.062 114.625C414.501 122.763 405.504 127.603 392.75 127.5C391.926 127.495 391.103 127.49 390.255 127.485C379.275 127.175 370.9 123.549 363 116C362.34 116 361.68 116 361 116C360.34 114.68 359.68 113.36 359 112C357.546 113.299 357.546 113.299 356.062 114.625C346.43 122.824 337.466 127.603 324.625 127.438C323.795 127.43 322.965 127.422 322.11 127.415C310.302 127.099 300.347 122.44 291.937 114.125C291.298 113.424 290.659 112.723 290 112C289.657 112.424 289.314 112.848 288.961 113.285C282.089 120.986 271.422 126.612 261.058 127.238C244.415 127.639 233.528 122.922 221 112C220.072 113.299 220.072 113.299 219.125 114.625C213.262 121.63 203.674 126.136 194.674 127.301C192.315 127.436 189.987 127.468 187.625 127.438C186.795 127.429 185.965 127.421 185.11 127.412C173.844 127.103 166.439 123.289 158 116C156.989 115.196 155.979 114.391 154.937 113.563C154.298 113.047 153.659 112.531 153 112C152.629 112.928 152.629 112.928 152.25 113.875C150.74 116.441 149.642 116.729 147 118C144.878 119.457 142.79 120.954 140.707 122.465C133.947 126.298 127.329 127.538 119.625 127.438C118.793 127.429 117.962 127.419 117.105 127.41C104.186 127.047 93.8886 121.386 84.9998 112ZM34.9998 125C34.9998 182.09 34.9998 239.18 34.9998 298C40.2798 298 45.5598 298 50.9998 298C50.9998 241.9 50.9998 185.8 50.9998 128C46.7098 127.34 42.4198 126.68 37.9998 126C37.0098 125.67 36.0198 125.34 34.9998 125ZM461 128C461 184.1 461 240.2 461 298C466.28 298 471.56 298 477 298C477 241.24 477 184.48 477 126C471.625 126 466.312 127.183 461 128ZM376 188C376 193.28 376 198.56 376 204C386.89 204 397.78 204 409 204C409 198.72 409 193.44 409 188C398.11 188 387.22 188 376 188ZM384 222C384 227.28 384 232.56 384 238C389.61 238 395.22 238 401 238C401 232.72 401 227.44 401 222C395.39 222 389.78 222 384 222ZM369 259C364.165 271.086 367 284.983 367 298C392.08 298 417.16 298 443 298C443 284.14 443 270.28 443 256C431.263 255.913 431.263 255.913 419.525 255.854C414.735 255.836 409.944 255.815 405.153 255.774C401.289 255.741 397.425 255.723 393.56 255.715C392.089 255.71 390.619 255.699 389.148 255.683C387.08 255.661 385.013 255.658 382.945 255.659C381.77 255.653 380.596 255.646 379.385 255.639C375.363 256.068 372.527 257.02 369 259ZM110.223 271.723C104.315 278.064 102.635 284.239 102.797 292.801C102.932 295.176 102.932 295.176 104 298C123.47 298 142.94 298 163 298C163 292.72 163 287.44 163 282C165.242 273.873 169.099 268.93 175 263C156.934 247.994 125.29 257.119 110.223 271.723ZM182.687 280.625C180.281 284.012 179.843 285.819 179.812 289.938C179.798 290.813 179.784 291.688 179.769 292.59C179.833 295.262 179.833 295.262 182 298C184.421 298.416 184.421 298.416 187.226 298.293C188.258 298.283 189.289 298.274 190.351 298.264C191.972 298.226 191.972 298.226 193.625 298.188C194.713 298.174 195.801 298.16 196.922 298.147C199.615 298.111 202.307 298.062 205 298C204.979 297.171 204.959 296.341 204.938 295.487C204.797 288.96 205.318 283.306 207 277C198.056 271.351 189.57 272.812 182.687 280.625ZM224.625 280.75C222.744 284.511 221.767 287.784 222 292C222.66 293.98 223.32 295.96 224 298C233.9 298 243.8 298 254 298C255.45 293.65 255.511 289.547 255 285C252.507 280.013 249.006 276.503 244 274C235.675 273.072 230.259 274.226 224.625 280.75ZM271 277C271.144 277.678 271.289 278.356 271.437 279.055C271.623 279.985 271.809 280.916 272 281.875C272.185 282.78 272.371 283.685 272.562 284.617C273.135 289.044 273 293.537 273 298C280.59 298 288.18 298 296 298C298.134 293.731 298.566 290.642 298 286C295.997 280.325 292.386 276.693 287 274C280.936 273.433 276.279 273.666 271 277ZM18.9998 319C17.5542 321.891 17.8638 324.398 17.8527 327.63C17.849 328.319 17.8453 329.008 17.8415 329.717C17.8305 332.037 17.8266 334.357 17.8228 336.677C17.8166 338.336 17.8099 339.995 17.8029 341.654C17.7855 346.168 17.775 350.683 17.7667 355.197C17.7616 358.016 17.7555 360.834 17.7492 363.653C17.7302 372.466 17.7159 381.279 17.7076 390.092C17.6978 400.276 17.6715 410.46 17.6311 420.643C17.601 428.508 17.5861 436.373 17.5828 444.238C17.5805 448.939 17.5715 453.64 17.5464 458.34C17.5231 462.761 17.5188 467.181 17.5291 471.602C17.5296 473.226 17.5232 474.85 17.5096 476.474C17.4919 478.688 17.4989 480.902 17.5121 483.117C17.5097 484.357 17.5073 485.597 17.5049 486.874C17.7627 490.07 17.7627 490.07 19.7897 492.402C23.1428 494.827 26.5103 494.495 30.4842 494.391C31.7076 494.382 31.7076 494.382 32.9557 494.374C35.5544 494.351 38.1516 494.301 40.7498 494.25C42.5141 494.23 44.2785 494.212 46.0428 494.195C50.3624 494.151 54.6809 494.082 58.9998 494C59.0035 492.915 59.0071 491.831 59.0109 490.713C59.0479 480.473 59.1057 470.233 59.1837 459.993C59.2232 454.729 59.2554 449.465 59.2708 444.201C59.286 439.118 59.3205 434.034 59.3682 428.951C59.3829 427.015 59.3909 425.079 59.3917 423.143C59.3941 420.424 59.4212 417.706 59.4539 414.986C59.4464 413.795 59.4464 413.795 59.4387 412.58C59.5415 407.028 60.8187 402.611 63.9998 398C64.9061 397.341 65.8123 396.683 66.7459 396.004C69.4188 394.086 69.4188 394.086 69.3475 390.277C69.2698 388.83 69.1739 387.383 69.0623 385.938C68.709 375.753 70.4706 368.67 77.0623 360.625C83.842 353.646 91.62 350.42 101.297 349.922C106.852 350.082 112.006 351.163 117.125 353.313C120.653 354.156 122.544 353.2 125.808 351.813C133.989 348.779 143.7 349.641 151.598 353.156C154.863 354.303 156.632 353.106 159.703 351.813C168.132 348.831 177.156 349.672 185.344 352.934C193.181 356.812 199.021 362.968 202.5 371C204.376 376.66 204.205 382.195 203.678 388.074C203.476 390.471 203.476 390.471 204 394C206.5 396.452 206.5 396.452 208.399 397.508C211.952 400.819 213.151 405.478 213.399 410.183C213.425 411.746 213.435 413.309 213.432 414.873C213.448 416.162 213.448 416.162 213.463 417.477C213.493 420.296 213.502 423.115 213.512 425.934C213.528 427.897 213.547 429.86 213.566 431.823C213.613 436.973 213.643 442.123 213.669 447.274C213.705 453.463 213.761 459.651 213.815 465.839C213.893 475.226 213.944 484.613 214 494C241.72 494 269.44 494 298 494C298.026 487.74 298.051 481.481 298.078 475.031C298.103 471.057 298.129 467.083 298.16 463.109C298.208 456.807 298.252 450.504 298.271 444.201C298.286 439.118 298.321 434.034 298.368 428.951C298.383 427.015 298.391 425.079 298.392 423.143C298.394 420.424 298.421 417.706 298.454 414.986C298.449 414.192 298.444 413.398 298.439 412.58C298.541 407.03 299.815 402.607 303 398C304.355 397.033 304.355 397.033 305.738 396.047C308.136 394.287 308.136 394.287 308.365 392.143C308.421 389.827 308.337 387.562 308.187 385.25C307.871 379.032 308.226 374 310 368C309.373 367.83 308.747 367.66 308.101 367.484C307.284 367.242 306.467 367 305.625 366.75C304.813 366.518 304.001 366.286 303.164 366.047C301 365 301 365 299.699 363.113C298.615 359.836 299.217 357.311 300 354C301.659 351.38 302.703 351.071 305.73 350.344C309.29 349.969 311.692 350.418 315.125 351.375C316.138 351.651 317.151 351.927 318.195 352.211C319.851 352.677 321.503 353.161 323.14 353.688C325.989 354.166 328.13 352.824 330.734 351.777C339.14 348.893 348.027 349.767 356.062 353.375C360.001 354.213 362.253 353.423 365.828 351.672C369.3 348.999 370.786 345.518 372.672 341.637C374.91 337.193 377.1 334.647 381.937 333C385.91 333 387.835 333.571 391 336C392.051 338.704 392.265 341.119 392 344C390.625 346.813 390.625 346.813 389 349C388.67 349.99 388.34 350.98 388 352C390.071 353.351 390.071 353.351 393 354C394.916 353.306 396.83 352.602 398.711 351.816C408.159 348.447 416.902 350.695 426.117 353.688C428.991 354.164 431.157 352.84 433.781 351.777C438.474 350.133 443.087 349.552 447.937 350.688C450.472 352.301 451.214 353.091 452 356C451.824 359.333 451.656 361.943 449.875 364.813C447.1 366.57 444.168 367.223 441 368C441.33 369.134 441.66 370.269 442 371.438C442.786 374.768 443.04 377.806 442.922 381.207C442.897 381.954 442.873 382.7 442.848 383.469C442.783 384.971 442.693 386.472 442.574 387.971C442.41 390.409 442.41 390.409 443 394C445.813 396.639 445.813 396.639 449 399C451.912 404.396 452.443 408.81 452.432 414.873C452.442 415.732 452.453 416.592 452.463 417.477C452.493 420.296 452.502 423.115 452.512 425.934C452.528 427.897 452.547 429.86 452.566 431.823C452.613 436.973 452.643 442.123 452.669 447.274C452.699 452.536 452.746 457.798 452.791 463.061C452.877 473.374 452.944 483.687 453 494C458.196 494.099 463.391 494.172 468.588 494.22C470.356 494.24 472.123 494.267 473.89 494.302C476.432 494.35 478.973 494.373 481.515 494.391C482.304 494.411 483.093 494.432 483.905 494.453C487.255 494.455 489.462 494.394 492.208 492.382C494.57 489.243 494.505 487.345 494.514 483.436C494.525 482.449 494.525 482.449 494.536 481.443C494.554 479.239 494.544 477.037 494.533 474.834C494.54 473.253 494.549 471.673 494.559 470.092C494.582 465.799 494.579 461.505 494.57 457.211C494.565 453.623 494.572 450.035 494.58 446.447C494.597 437.976 494.593 429.505 494.576 421.034C494.559 412.309 494.575 403.584 494.607 394.859C494.634 387.36 494.641 379.861 494.633 372.362C494.628 367.887 494.63 363.412 494.651 358.937C494.669 354.723 494.663 350.509 494.639 346.295C494.634 344.754 494.637 343.214 494.65 341.673C494.717 332.823 494.202 325.483 489 318C486.531 315.531 485.137 315.759 481.768 315.732C481.031 315.737 480.295 315.741 479.537 315.746C478.363 315.741 478.363 315.741 477.166 315.736C474.516 315.727 471.866 315.734 469.216 315.739C467.308 315.736 465.4 315.732 463.492 315.728C458.227 315.717 452.962 315.72 447.698 315.724C442.028 315.726 436.359 315.717 430.689 315.71C419.573 315.697 408.457 315.695 397.341 315.698C388.309 315.699 379.277 315.698 370.245 315.693C368.961 315.693 367.678 315.692 366.356 315.692C363.749 315.69 361.143 315.689 358.536 315.688C341.021 315.68 323.506 315.676 305.992 315.68C305.306 315.681 304.621 315.681 303.915 315.681C300.44 315.682 296.966 315.682 293.492 315.683C292.802 315.683 292.112 315.684 291.401 315.684C290.006 315.684 288.61 315.685 287.215 315.685C265.504 315.69 243.793 315.682 222.082 315.664C197.705 315.643 173.328 315.632 148.951 315.636C136.038 315.638 123.126 315.636 110.213 315.622C99.2193 315.61 88.2255 315.608 77.2317 315.621C71.619 315.626 66.0065 315.627 60.3938 315.616C55.2598 315.605 50.1261 315.608 44.9922 315.622C43.1308 315.624 41.2694 315.622 39.408 315.614C36.8852 315.604 34.3631 315.612 31.8403 315.625C30.7467 315.614 30.7467 315.614 29.6309 315.603C25.2587 315.65 22.4784 316.312 18.9998 319ZM92.9998 370C88.4224 374.183 86.1138 377.606 85.8123 383.938C85.736 387.539 86.2371 388.475 87.9998 392C92.9498 392 97.8998 392 103 392C102.938 389.711 102.876 387.421 102.812 385.063C102.729 378.788 103.56 373.794 106 368C101.118 366.322 97.3296 367.497 92.9998 370ZM127 370C122.436 374.217 120.115 377.581 119.812 383.938C119.736 387.539 120.237 388.475 122 392C131.57 392 141.14 392 151 392C153.134 387.731 153.566 384.642 153 380C151.264 375.08 148.512 371.629 144 369C137.902 366.516 132.632 366.391 127 370ZM167 369C167.495 370.011 167.99 371.021 168.5 372.063C170.96 378.45 170.18 385.281 170 392C174.95 392 179.9 392 185 392C187.333 387.333 187.721 384.119 187 379C184.499 374.092 181.26 370.24 176.008 368.242C171.289 366.83 171.289 366.83 167 369ZM332 370C328.807 372.98 325.208 376.495 324.832 381.023C324.825 381.799 324.819 382.575 324.812 383.375C324.798 384.146 324.784 384.917 324.769 385.711C324.903 388.399 324.903 388.399 327 392C331.95 392 336.9 392 342 392C341.938 389.711 341.876 387.421 341.812 385.063C341.729 378.788 342.56 373.794 345 368C340.123 366.324 336.324 367.492 332 370ZM366 370C361.436 374.217 359.115 377.581 358.812 383.938C358.736 387.539 359.237 388.475 361 392C370.57 392 380.14 392 390 392C392.128 387.743 392.702 384.635 392 380C390.214 375.222 387.373 371.624 383 369C376.843 366.617 371.672 366.365 366 370ZM406 369C406.495 370.011 406.99 371.021 407.5 372.063C409.96 378.45 409.18 385.281 409 392C413.95 392 418.9 392 424 392C426.134 387.731 426.566 384.642 426 380C424.263 375.078 421.483 371.672 417 369C412.729 367.293 410.051 366.299 406 369ZM76.9998 410C76.9998 415.28 76.9998 420.56 76.9998 426C116.27 426 155.54 426 196 426C196 420.72 196 415.44 196 410C156.73 410 117.46 410 76.9998 410ZM316 410C316 415.28 316 420.56 316 426C355.27 426 394.54 426 435 426C435 420.72 435 415.44 435 410C395.73 410 356.46 410 316 410ZM76.9998 444C76.9998 449.28 76.9998 454.56 76.9998 460C116.27 460 155.54 460 196 460C196 454.72 196 449.44 196 444C156.73 444 117.46 444 76.9998 444ZM316 444C316 449.28 316 454.56 316 460C355.27 460 394.54 460 435 460C435 454.72 435 449.44 435 444C395.73 444 356.46 444 316 444ZM76.9998 478C76.9998 483.28 76.9998 488.56 76.9998 494C116.27 494 155.54 494 196 494C196 488.72 196 483.44 196 478C156.73 478 117.46 478 76.9998 478ZM316 478C316 483.28 316 488.56 316 494C355.27 494 394.54 494 435 494C435 488.72 435 483.44 435 478C395.73 478 356.46 478 316 478Z" fill="black" stroke="#15A455" stroke-width="8" mask="url(#path-1-inside-1_3011_38)"/>
</g>
<defs>
<clipPath id="clip0_3011_38">
<rect width="512" height="512" fill="white"/>
</clipPath>
</defs>
</svg>
