<svg width="512" height="512" viewBox="0 0 512 512" fill="none" xmlns="http://www.w3.org/2000/svg">
<g clip-path="url(#clip0_3019_10)">
<path d="M284.902 2.76153C293.282 7.70846 297.229 14.6802 302 22.9998C303.105 24.9051 304.21 26.81 305.316 28.7147C308.225 33.7339 311.119 38.7608 314.008 43.7915C317.496 49.8662 320.998 55.9331 324.5 61.9998C325.75 64.1664 327 66.3331 328.25 68.4998C328.869 69.5723 329.487 70.6448 330.125 71.7498C365.75 133.5 365.75 133.5 367.625 136.75C368.874 138.915 370.123 141.08 371.373 143.245C374.512 148.686 377.65 154.127 380.785 159.57C386.807 170.022 392.847 180.463 398.937 190.875C404.355 200.138 409.698 209.443 415.007 218.769C418.642 225.155 422.297 231.527 426.019 237.863C426.658 238.95 427.297 240.038 427.955 241.158C429.157 243.199 430.362 245.238 431.572 247.275C437.54 257.406 441.727 266.545 439.539 278.523C437.242 287.305 432.42 293.762 425 299C416.558 303.815 408.004 305.028 398.523 302.875C394.743 301.564 391.545 299.55 388.226 297.34C384.052 294.828 381.223 294.933 376.501 295.922C375.383 296.152 374.265 296.382 373.113 296.619C371.89 296.88 370.667 297.14 369.407 297.409C368.115 297.677 366.824 297.945 365.493 298.222C361.947 298.958 358.404 299.705 354.861 300.454C351.139 301.238 347.416 302.012 343.692 302.788C336.623 304.261 329.556 305.743 322.49 307.229C312.174 309.397 301.856 311.553 291.537 313.708C290.003 314.028 288.47 314.349 286.936 314.669C286.186 314.826 285.435 314.982 284.662 315.144C280.247 316.066 275.832 316.992 271.417 317.919C243.777 323.725 243.777 323.725 231 326C231.474 327.155 231.949 328.31 232.437 329.5C235.323 337.332 235.556 344.054 233 352C230.317 357.689 226.453 361.645 222 366C229.099 378.649 236.276 391.247 243.603 403.765C248.139 411.515 252.64 419.283 257.125 427.062C258.066 428.695 258.066 428.695 259.027 430.36C259.619 431.387 260.21 432.414 260.82 433.472C261.379 434.434 261.937 435.396 262.512 436.387C263.408 437.96 264.281 439.546 265.109 441.156C267.351 445.483 269.701 447.536 273.875 450C280.18 453.991 284.489 457.451 287.437 464.375C288.622 472.01 287.452 477.692 283 484C279.672 486.891 276.207 489.169 272.387 491.355C271.311 491.974 270.236 492.593 269.128 493.23C266.802 494.553 264.477 495.875 262.151 497.197C261.568 497.529 260.984 497.861 260.383 498.203C258.646 499.191 256.909 500.178 255.172 501.166C252.476 502.725 249.824 504.328 247.187 505.984C239.268 510.897 232.562 513.923 223 512C213.303 508.825 208.791 498.508 204.125 490.25C203.126 488.5 202.127 486.75 201.127 485C200.095 483.192 199.065 481.382 198.036 479.572C194.883 474.033 191.689 468.518 188.5 463C187.255 460.842 186.01 458.685 184.766 456.527C184.147 455.456 183.529 454.384 182.892 453.281C180.964 449.938 179.037 446.596 177.109 443.254C169.751 430.496 162.385 417.743 155 405C153.976 405.322 152.953 405.644 151.898 405.976C144.118 408.186 135.404 408.291 128.192 404.346C120.112 399.384 115.591 392.837 111 384.687C110.416 383.686 109.832 382.685 109.23 381.654C105 374.318 105 374.318 105 372C103.975 372.349 102.95 372.698 101.894 373.058C100.534 373.518 99.1731 373.978 97.8124 374.437C96.8021 374.782 96.8021 374.782 95.7714 375.135C76.9107 381.483 56.5395 378.826 38.8124 370.437C30.9992 366.496 25.0335 361.265 18.9999 355C18.336 354.355 17.6721 353.711 16.9882 353.047C3.33219 338.93 -0.648078 320.089 -0.468873 301.131C-0.226795 292.803 0.721546 285.736 3.99988 278C4.39457 277.044 4.39457 277.044 4.79724 276.07C12.7915 257.145 26.6599 245.157 44.4661 235.301C46.2967 234.286 48.1201 233.26 49.942 232.231C52.427 230.826 54.9135 229.425 57.4017 228.026C62.7253 225.031 68.029 222.003 73.3124 218.937C74.6345 218.189 74.6345 218.189 75.9833 217.425C81.4568 214.234 85.7644 210.707 89.9999 206C90.9222 204.987 90.9222 204.987 91.8632 203.953C92.3414 203.391 92.8196 202.829 93.3124 202.25C96.1572 198.951 99.0629 195.717 102 192.5C105.456 188.71 108.865 184.889 112.23 181.019C115.009 177.848 117.836 174.721 120.664 171.594C122.251 169.831 123.829 168.06 125.398 166.281C126.174 165.404 126.95 164.528 127.75 163.625C128.446 162.833 129.142 162.042 129.859 161.226C135.688 155.164 135.688 155.164 140.5 154.562C144.216 155.027 146.092 155.673 149 158C151.571 161.427 151.43 164.84 151 169C148.157 173.881 144.56 177.815 140.687 181.875C139.519 183.116 138.351 184.358 137.183 185.601C136.629 186.191 136.075 186.78 135.503 187.387C133.161 189.9 130.909 192.486 128.664 195.086C124.375 200.019 119.957 204.841 115.566 209.683C114.781 210.551 113.996 211.418 113.187 212.312C112.48 213.092 111.772 213.872 111.043 214.676C110.032 215.826 110.032 215.826 109 217C108.233 217.818 107.466 218.637 106.676 219.48C104.783 221.823 104.783 221.823 104.992 224.363C106.335 227.876 108.164 230.995 110.125 234.187C111.042 235.713 111.957 237.239 112.871 238.765C113.372 239.6 113.874 240.435 114.39 241.295C117.376 246.311 120.277 251.377 123.187 256.437C124.48 258.681 125.773 260.924 127.066 263.168C129.659 267.67 132.25 272.172 134.84 276.676C142.8 290.506 150.845 304.283 159 318C167.443 317.279 175.641 315.526 183.92 313.784C185.523 313.451 187.126 313.117 188.729 312.784C193.07 311.88 197.41 310.971 201.75 310.061C206.33 309.102 210.911 308.148 215.493 307.192C223.21 305.583 230.927 303.97 238.643 302.355C249.407 300.103 260.171 297.856 270.936 295.61C291.056 291.411 311.177 287.212 331.292 282.988C334.489 282.317 337.686 281.647 340.883 280.978C344.805 280.157 348.727 279.333 352.648 278.507C354.105 278.201 355.562 277.895 357.019 277.591C359.006 277.175 360.993 276.756 362.98 276.337C364.1 276.102 365.219 275.866 366.373 275.624C368.96 275.115 368.96 275.115 371 274C363.005 259.605 354.888 245.296 346.562 231.09C342.868 224.784 339.211 218.457 335.562 212.125C334.94 211.045 334.317 209.964 333.676 208.852C332.414 206.662 331.152 204.472 329.891 202.282C326.763 196.853 323.631 191.427 320.5 186C319.25 183.833 318 181.666 316.75 179.5C316.131 178.427 315.512 177.355 314.875 176.25C294.25 140.5 294.25 140.5 292.375 137.249C291.126 135.084 289.876 132.919 288.627 130.754C285.488 125.314 282.35 119.872 279.215 114.429C272.398 102.599 265.559 90.7813 258.654 79.0013C255.361 73.374 252.137 67.7153 249 61.9998C244.813 65.2676 241.356 68.7332 237.91 72.7693C235.852 75.1727 233.745 77.526 231.625 79.8748C230.488 81.1355 230.488 81.1355 229.328 82.4217C227.776 84.1404 226.224 85.8592 224.672 87.5779C221.167 91.464 217.677 95.358 214.25 99.3123C207.189 107.405 207.189 107.405 204 109C200.203 109.171 196.503 109.024 193.297 106.84C190.846 104.198 190.004 102.026 189.437 98.4998C190.576 91.4145 196.017 86.6339 200.812 81.6248C202.074 80.291 203.334 78.9564 204.594 77.6209C205.189 76.9904 205.785 76.3599 206.398 75.7103C208.787 73.159 211.083 70.5344 213.363 67.8865C215.379 65.5632 217.438 63.2823 219.5 60.9998C224.489 55.4699 224.489 55.4699 229.359 49.8357C231 47.9998 231 47.9998 232.766 46.4764C235.871 43.6175 236.937 41.9202 237.23 37.6131C237.159 35.0059 237.073 32.399 236.973 29.7928C237.034 21.3352 240.356 14.7504 246.141 8.71856C256.604 -0.95327 271.826 -3.59127 284.902 2.76153ZM259 25.9998C257.522 30.0701 257.484 33.6332 259.014 37.6876C260.587 40.7239 262.287 43.6397 264.062 46.5623C264.699 47.6529 265.336 48.7436 265.992 49.8672C267.323 52.1402 268.663 54.4074 270.013 56.6688C271.872 59.785 273.704 62.9151 275.523 66.0545C277.818 70.0122 280.123 73.9638 282.437 77.91C286.132 84.2155 289.788 90.5428 293.437 96.8748C294.06 97.955 294.682 99.0351 295.324 100.148C296.586 102.338 297.847 104.528 299.109 106.718C302.237 112.146 305.368 117.573 308.5 123C309.75 125.166 311 127.333 312.25 129.5C312.869 130.572 313.487 131.645 314.125 132.75C319.75 142.5 319.75 142.5 321.625 145.75C322.874 147.915 324.123 150.08 325.373 152.245C328.512 157.686 331.65 163.127 334.785 168.57C340.807 179.022 346.847 189.463 352.937 199.875C358.013 208.552 363.022 217.266 368 226C374.751 237.843 381.567 249.646 388.475 261.398C389.902 263.833 391.318 266.275 392.73 268.719C393.528 270.083 394.326 271.448 395.125 272.812C395.787 273.953 396.45 275.094 397.133 276.269C399.634 279.927 401.653 281.59 405.875 282.875C409.804 283.032 411.715 282.117 415 280C417.315 277.765 418.003 275.991 419.062 272.937C418.996 268.782 418.421 267.514 416.418 264.012C415.594 262.553 415.594 262.553 414.754 261.065C414.175 260.054 413.596 259.042 413 258C411.899 256.019 410.8 254.037 409.703 252.054C404.19 242.175 398.66 232.313 392.888 222.583C389.146 216.271 385.476 209.92 381.812 203.562C381.174 202.455 380.536 201.348 379.879 200.207C378.571 197.936 377.263 195.666 375.955 193.395C372.807 187.928 369.653 182.464 366.5 177C365.25 174.833 364 172.666 362.75 170.5C362.131 169.427 361.512 168.355 360.875 167.25C325.25 105.5 325.25 105.5 323.375 102.249C322.126 100.084 320.876 97.9192 319.627 95.7542C316.488 90.3137 313.35 84.8723 310.215 79.4295C301.858 64.925 293.495 50.4237 285 35.9998C284.56 35.252 284.119 34.5042 283.666 33.7337C282.557 31.8587 281.438 29.9901 280.312 28.1248C279.731 27.158 279.15 26.1912 278.551 25.1951C276.724 22.6092 275.123 21.203 271.949 20.6287C265.86 20.4499 262.923 21.1943 259 25.9998ZM80.8124 238.929C79.729 239.555 78.6456 240.181 77.5294 240.825C76.3527 241.508 75.1762 242.191 73.9999 242.875C73.4105 243.217 72.8212 243.56 72.214 243.912C68.6305 245.994 68.6305 245.994 65.048 248.078C61.6742 250.038 58.2865 251.97 54.8788 253.871C39.2959 262.621 28.3979 272.715 21.9999 289.687C18.3273 304.234 20.5874 319.954 28.1874 332.75C34.5426 342.02 41.7383 348.388 51.9999 353C53.3534 353.621 53.3534 353.621 54.7343 354.254C60.7869 356.653 66.4891 357.398 72.9374 357.5C73.64 357.518 74.3426 357.537 75.0665 357.556C87.2973 357.414 97.9008 351.856 108.25 345.875C109.427 345.206 110.604 344.539 111.782 343.873C115.199 341.934 118.601 339.97 122 338C122.954 337.447 123.907 336.895 124.89 336.326C129.612 333.581 134.315 330.808 139 328C137.709 324.61 136.242 321.478 134.453 318.324C133.945 317.426 133.438 316.529 132.914 315.604C132.09 314.16 132.09 314.16 131.25 312.687C130.674 311.673 130.097 310.658 129.503 309.612C124.278 300.437 118.958 291.319 113.625 282.207C104.651 266.863 95.792 251.449 86.9999 236C84.8615 236 82.5758 237.909 80.8124 238.929ZM133.34 354.342C129.986 356.718 126.502 358.849 123 361C126.207 367.764 129.459 374.499 133.5 380.812C134.005 381.603 134.511 382.393 135.031 383.207C138.073 385.977 139.886 386.114 144 386C147.709 384.526 151.032 382.506 154.437 380.437C155.438 379.85 156.439 379.263 157.47 378.659C159.585 377.416 161.696 376.165 163.802 374.907C167.924 372.449 172.075 370.041 176.226 367.632C179.227 365.888 182.221 364.135 185.215 362.379C189.008 360.157 192.811 357.957 196.629 355.777C197.506 355.275 198.383 354.773 199.286 354.256C200.922 353.321 202.561 352.389 204.202 351.462C204.926 351.048 205.649 350.634 206.394 350.207C207.022 349.851 207.649 349.495 208.296 349.128C210.782 347.482 212.605 345.874 213.84 343.14C214.066 340.117 212.989 338.395 211.562 335.75C211.089 334.858 210.616 333.966 210.129 333.047C209.756 332.371 209.384 331.696 209 331C183.876 329.616 153.578 339.955 133.34 354.342ZM190.25 382.75C189.152 383.384 188.053 384.018 186.922 384.672C185.86 385.29 184.797 385.909 183.703 386.547C182.244 387.395 182.244 387.395 180.755 388.261C177.995 390.003 175.506 391.914 173 394C173.518 394.886 173.518 394.886 174.047 395.79C182.781 410.73 191.458 425.7 200.096 440.696C202.015 444.026 203.937 447.355 205.859 450.683C213.609 464.102 221.327 477.537 229 491C241.474 485.146 253.205 478.102 265 471C262.211 468.11 259.592 465.621 256.187 463.5C252.555 460.823 250.519 457.967 248.211 454.105C247.867 453.534 247.524 452.962 247.17 452.373C243.502 446.239 239.961 440.03 236.437 433.812C235.039 431.353 233.638 428.895 232.238 426.437C231.886 425.819 231.534 425.201 231.172 424.564C225.165 414.014 219.086 403.504 213 393C212.47 392.083 211.94 391.167 211.394 390.223C209.975 387.771 208.551 385.322 207.125 382.875C206.714 382.164 206.303 381.452 205.879 380.72C204.948 379.129 203.979 377.561 203 376C199.098 376 193.552 380.823 190.25 382.75Z" fill="#15A455"/>
<path d="M476 64.9998C479.125 66.8748 479.125 66.8748 481 69.9998C481.815 73.5474 482.15 76.5251 481 79.9998C476.066 85.8117 468.72 89.2676 462.187 92.9373C460.461 93.9201 458.734 94.9029 457.008 95.8864C455.216 96.9066 453.421 97.9236 451.626 98.9402C445.733 102.282 439.868 105.675 434 109.062C432.946 109.669 431.892 110.275 430.805 110.9C425.208 114.124 419.658 117.402 414.181 120.827C410.615 122.744 408.06 123.067 404 123C400.778 121.866 398.787 120.965 396.625 118.312C395.696 114.874 395.235 111.481 396 108C398.613 104.282 401.031 102.09 405.016 99.9412C406.504 99.1257 406.504 99.1257 408.021 98.2937C409.087 97.7223 410.152 97.151 411.25 96.5623C413.517 95.3207 415.782 94.0771 418.047 92.8318C419.203 92.1984 420.358 91.565 421.549 90.9124C426.914 87.9393 432.208 84.8506 437.5 81.7498C438.492 81.1728 439.485 80.5959 440.507 80.0015C445.027 77.367 449.511 74.6991 453.93 71.8982C468.712 62.6044 468.712 62.6044 476 64.9998Z" fill="#1831EA"/>
<path d="M420.812 14.1252C423.476 17.6254 423.78 19.6327 424 24.0002C422.918 27.1487 422.918 27.1487 421.188 30.3752C420.71 31.2768 420.71 31.2768 420.223 32.1965C416.981 38.2305 413.477 44.12 409.961 49.9963C407.647 53.8779 405.397 57.7941 403.164 61.7229C402.49 62.9049 401.816 64.0869 401.143 65.2688C399.815 67.5981 398.494 69.9312 397.178 72.2668C396.565 73.3403 395.952 74.4138 395.32 75.5198C394.505 76.9599 394.505 76.9599 393.672 78.4292C391.633 81.5647 389.631 84.4069 386.035 85.7151C382.542 86.1094 380.49 86.2073 377.188 84.8127C373.786 81.994 372.252 80.3726 371.438 75.9377C371.988 72.0851 372.782 70.2496 374.656 66.9299C375.201 65.9569 375.747 64.9839 376.308 63.9814C376.867 62.9976 377.425 62.0138 378 61.0002C378.991 59.2229 379.982 57.4456 380.973 55.6682C386.595 45.6738 392.276 35.7132 398.062 25.8127C398.598 24.8868 399.134 23.9608 399.686 23.0068C400.193 22.1448 400.7 21.2829 401.223 20.3948C401.664 19.6404 402.105 18.8861 402.559 18.1089C404.539 15.212 406.61 12.6024 409.875 11.1877C414.405 10.788 417.15 11.3582 420.812 14.1252Z" fill="#1831EA"/>
<path d="M435.31 140.839C436.395 140.829 437.48 140.819 438.597 140.81C440.355 140.803 440.355 140.803 442.148 140.797C443.353 140.791 444.558 140.785 445.799 140.779C448.349 140.77 450.9 140.763 453.45 140.76C457.352 140.75 461.254 140.719 465.156 140.687C467.633 140.681 470.109 140.676 472.586 140.672C473.754 140.659 474.922 140.647 476.125 140.634C477.216 140.637 478.307 140.64 479.431 140.643C480.866 140.638 480.866 140.638 482.331 140.632C486.127 141.155 488.947 142.646 491.312 145.687C492.347 149.169 492.712 152.445 492 156C489.824 158.691 488.089 160.455 485 162C483.27 162.106 481.536 162.149 479.803 162.161C478.176 162.175 478.176 162.175 476.516 162.19C475.339 162.194 474.162 162.199 472.949 162.203C471.14 162.211 471.14 162.211 469.294 162.22C466.738 162.23 464.182 162.236 461.625 162.24C457.714 162.25 453.804 162.281 449.893 162.312C447.411 162.319 444.93 162.324 442.449 162.328C441.278 162.34 440.107 162.353 438.901 162.365C437.806 162.362 436.712 162.359 435.585 162.356C434.625 162.36 433.665 162.364 432.676 162.367C429.457 161.925 427.611 160.91 425 159C422.318 154.977 422.312 151.728 423 147C426.269 141.589 429.257 140.882 435.31 140.839Z" fill="#1831EA"/>
<path d="M179.437 125.125C181.475 128.875 181.862 131.818 181 136C179.206 138.81 177.981 140.509 175 142C171.941 142.421 169.053 142.485 166 142C163.244 139.818 161.564 138.128 160 135C159.874 130.348 160.093 126.98 163.312 123.5C169.218 120.204 174.071 120.446 179.437 125.125Z" fill="#1831EA"/>
<path d="M507 46.9998C510.125 48.8748 510.125 48.8748 512 51.9998C512.685 55.4796 512.708 58.5225 512 61.9998C509.631 65.4141 508.025 66.6433 504.125 67.9998C500.097 67.9998 497.527 66.8991 494 64.9998C491.16 60.7406 491.26 56.996 492 51.9998C495.552 46.0805 500.655 45.7516 507 46.9998Z" fill="#1831EA"/>
</g>
<defs>
<clipPath id="clip0_3019_10">
<rect width="512" height="512" fill="white"/>
</clipPath>
</defs>
</svg>
