<svg width="512" height="512" viewBox="0 0 512 512" fill="none" xmlns="http://www.w3.org/2000/svg">
<g clip-path="url(#clip0_3002_3)">
<path d="M506.563 93.6875C510.556 97.4762 512.157 100.3 512.38 105.814C512.398 107.812 512.399 109.811 512.388 111.809C512.396 113.462 512.396 113.462 512.404 115.149C512.418 118.851 512.411 122.552 512.404 126.254C512.41 128.905 512.417 131.557 512.425 134.208C512.442 140.667 512.443 147.127 512.438 153.587C512.434 158.841 512.435 164.095 512.44 169.348C512.441 170.096 512.442 170.844 512.443 171.615C512.444 173.135 512.446 174.654 512.447 176.174C512.461 190.429 512.456 204.684 512.444 218.94C512.434 231.964 512.447 244.989 512.471 258.014C512.495 271.398 512.505 284.782 512.498 298.166C512.495 305.676 512.497 313.186 512.515 320.696C512.529 327.093 512.53 333.49 512.513 339.888C512.504 343.148 512.504 346.408 512.517 349.668C512.53 353.213 512.519 356.757 512.501 360.302C512.511 361.318 512.52 362.335 512.53 363.381C512.407 375.506 507.995 385.287 501 395C500.55 395.636 500.1 396.271 499.637 396.926C488.129 411.693 468.882 418.888 451 422C436.059 422.917 421.204 423.095 407 418C405.931 417.626 404.863 417.252 403.762 416.867C386.927 410.407 373.509 399.375 365.578 383.078C360.508 370.66 359.636 355.26 364.668 342.672C367.078 337.839 369.846 333.38 373 329C373.45 328.364 373.9 327.729 374.363 327.074C385.872 312.307 405.118 305.112 423 302C444.084 300.706 461.953 302.477 481 312C481.33 272.07 481.66 232.14 482 191C464.675 198.425 464.675 198.425 447 206C390.901 230.042 390.901 230.042 387.284 231.593C384.858 232.632 382.431 233.672 380.005 234.712C374.002 237.285 368 239.857 361.996 242.428C351.61 246.876 341.226 251.33 330.856 255.816C328.424 256.866 325.993 257.916 323.562 258.965C321.384 259.907 319.209 260.853 317.034 261.8C315.748 262.355 314.462 262.91 313.176 263.465C312.092 263.935 311.008 264.406 309.892 264.89C307.237 265.909 304.785 266.483 302 267C302.004 267.994 302.007 268.988 302.011 270.012C302.1 294.225 302.166 318.439 302.207 342.653C302.228 354.362 302.256 366.072 302.302 377.782C302.342 387.991 302.367 398.2 302.376 408.41C302.382 413.812 302.394 419.215 302.423 424.618C302.45 429.71 302.458 434.802 302.452 439.894C302.454 441.757 302.461 443.619 302.477 445.481C302.598 460.882 300.19 472.24 291 485C290.55 485.636 290.1 486.271 289.637 486.926C278.129 501.693 258.882 508.888 241 512C226.059 512.917 211.204 513.095 197 508C195.931 507.626 194.863 507.252 193.762 506.867C176.927 500.407 163.509 489.375 155.578 473.078C150.508 460.66 149.636 445.26 154.668 432.672C157.078 427.839 159.846 423.38 163 419C163.45 418.364 163.9 417.729 164.363 417.074C175.872 402.307 195.118 395.112 213 392C234.084 390.706 251.953 392.477 271 402C271.002 400.918 271.003 399.836 271.004 398.721C271.041 372.407 271.1 346.092 271.184 319.778C271.224 307.052 271.256 294.327 271.271 281.602C271.284 270.511 271.311 259.421 271.355 248.33C271.377 242.457 271.393 236.584 271.392 230.711C271.391 225.183 271.409 219.657 271.441 214.129C271.45 212.1 271.451 210.071 271.446 208.041C271.439 205.271 271.457 202.502 271.481 199.732C271.473 198.928 271.466 198.125 271.458 197.297C271.537 192.092 272.582 189.145 276 185C278.163 183.466 278.163 183.466 280.734 182.273C281.804 181.776 282.873 181.278 283.975 180.765C285.315 180.173 286.657 179.585 288 179C288.809 178.646 289.618 178.292 290.451 177.927C296.543 175.275 302.657 172.677 308.777 170.092C314.194 167.804 319.607 165.505 325.021 163.207C326.91 162.405 328.799 161.604 330.688 160.803C343.765 155.258 356.821 149.663 369.875 144.063C372.199 143.066 374.522 142.069 376.846 141.073C380.352 139.569 383.858 138.066 387.363 136.562C395.187 133.206 403.011 129.853 410.837 126.502C412.671 125.717 414.504 124.932 416.337 124.146C422.303 121.591 428.27 119.038 434.239 116.49C444.634 112.05 455.008 107.575 465.316 102.938C467.845 101.809 470.374 100.682 472.903 99.5549C475.157 98.5418 477.399 97.5053 479.641 96.4668C488.458 92.4801 497.27 89.2859 506.563 93.6875ZM475.705 132.73C474.802 133.114 473.9 133.498 472.97 133.894C471.977 134.321 470.984 134.748 469.961 135.188C468.917 135.633 467.873 136.078 466.798 136.537C463.322 138.021 459.849 139.511 456.375 141C453.948 142.038 451.52 143.075 449.092 144.113C442.689 146.849 436.288 149.591 429.888 152.334C426.061 153.974 422.234 155.613 418.406 157.251C405.554 162.754 392.704 168.261 379.855 173.773C370.562 177.76 361.266 181.743 351.971 185.726C345.242 188.61 338.513 191.496 331.785 194.383C329.593 195.323 327.401 196.264 325.209 197.204C323.737 197.836 322.265 198.468 320.793 199.1C318.582 200.049 316.371 200.997 314.16 201.945C313.508 202.225 312.856 202.506 312.185 202.794C308.805 204.243 305.415 205.634 302 207C302 215.58 302 224.16 302 233C305.759 232.248 308.4 231.54 311.82 230.064C312.762 229.66 313.704 229.256 314.675 228.84C316.207 228.175 316.207 228.175 317.77 227.496C318.852 227.03 319.935 226.565 321.051 226.085C324.018 224.808 326.983 223.527 329.948 222.244C333.097 220.882 336.249 219.526 339.4 218.17C343.997 216.192 348.592 214.212 353.187 212.23C364.638 207.29 376.101 202.38 387.565 197.471C393.313 195.009 399.061 192.546 404.809 190.082C407.134 189.085 409.459 188.089 411.785 187.092C412.958 186.589 414.132 186.086 415.342 185.568C437.561 176.045 459.781 166.523 482 157C482 148.42 482 139.84 482 131C479.512 131 477.997 131.75 475.705 132.73ZM402 344C396.528 349.42 392.737 353.826 392.563 361.75C392.748 370.217 396.194 374.47 402.125 380.188C415.324 391.366 431.49 392.239 448 391C459.664 389.325 470.516 383.043 478 374C481.923 368.559 481.878 362.462 481 356C478.284 348.364 471.139 342.326 464.254 338.457C444.365 329.051 419.495 329.569 402 344ZM192 434C186.528 439.42 182.737 443.826 182.563 451.75C182.748 460.217 186.194 464.47 192.125 470.188C205.324 481.366 221.49 482.239 238 481C249.664 479.325 260.516 473.043 268 464C271.923 458.559 271.878 452.462 271 446C268.284 438.364 261.139 432.326 254.254 428.457C234.365 419.051 209.495 419.569 192 434Z" fill="black"/>
<path d="M141 -2.6226e-06C148.243 3.08723 153.535 10.6942 158.663 16.4937C160.626 18.7051 162.63 20.8795 164.625 23.0625C168.377 27.2448 171.967 31.5356 175.496 35.9062C177.328 38.1698 179.173 40.4176 181.035 42.6562C188.864 52.1097 196.073 61.8702 203 72C203.667 72.9649 203.667 72.9649 204.348 73.9492C210.821 83.3214 216.642 92.9485 222 103C222.353 103.661 222.707 104.323 223.071 105.004C228.204 114.705 232.627 124.548 236 135C236.318 135.975 236.318 135.975 236.642 136.969C244.048 160.674 240.481 183.596 229.484 205.418C225.96 212.105 221.712 218.107 217 224C216.527 224.596 216.054 225.193 215.567 225.807C214.122 227.614 212.661 229.404 211.188 231.188C210.744 231.729 210.3 232.27 209.842 232.828C206.395 236.882 203.456 239.633 198.098 240.434C191.949 240.442 187.687 240.447 183 236C179.135 230.548 178.98 225.491 180 219C181.5 215.841 183.624 213.542 186 211C192.834 203.135 198.283 195.249 203 186C203.531 184.961 204.062 183.922 204.609 182.852C211.389 167.73 208.447 152.382 202.924 137.352C200.702 131.697 198.024 126.333 195.101 121.013C193.959 118.926 192.858 116.82 191.758 114.711C181.769 95.8418 168.835 78.7812 155.339 62.2991C154.527 61.3071 153.715 60.3152 152.878 59.2932C152.258 58.5365 151.639 57.7797 151 57C150.999 58.1382 150.997 59.2764 150.996 60.4492C150.959 88.1678 150.899 115.886 150.816 143.605C150.808 146.276 150.8 148.946 150.793 151.617C150.79 152.612 150.79 152.612 150.787 153.628C150.758 163.692 150.74 173.755 150.729 183.819C150.716 195.505 150.689 207.191 150.645 218.877C150.623 225.062 150.607 231.247 150.608 237.433C150.609 243.26 150.591 249.088 150.559 254.915C150.55 257.048 150.549 259.182 150.554 261.315C150.591 277.575 148.727 289.494 139 303C138.55 303.636 138.1 304.271 137.637 304.926C126.129 319.693 106.882 326.888 89 330C74.059 330.917 59.2041 331.095 45 326C43.9314 325.626 42.8628 325.252 41.7618 324.867C24.9266 318.407 11.5087 307.375 3.57817 291.078C-1.49194 278.66 -2.3635 263.26 2.66801 250.672C5.07755 245.839 7.84554 241.38 11 237C11.4499 236.364 11.8998 235.729 12.3633 235.074C23.8715 220.307 43.1178 213.112 61 210C82.0837 208.706 99.9535 210.477 119 220C119.002 218.918 119.003 217.836 119.004 216.721C119.041 190.407 119.1 164.092 119.184 137.778C119.224 125.052 119.256 112.327 119.271 99.6016C119.284 88.5111 119.311 77.4208 119.355 66.3305C119.377 60.4572 119.393 54.5841 119.392 48.7107C119.391 43.1834 119.409 37.6565 119.441 32.1293C119.45 30.1001 119.451 28.0707 119.446 26.0414C119.439 23.2712 119.457 20.5021 119.481 17.7319C119.473 16.9284 119.466 16.1249 119.458 15.297C119.537 10.0887 120.583 7.14746 124 3C129.243 -1.04132 134.639 -0.974134 141 -2.6226e-06ZM40 252C34.5276 257.42 30.737 261.826 30.5625 269.75C30.7475 278.217 34.1944 282.47 40.125 288.188C53.324 299.366 69.49 300.239 86 299C97.6637 297.325 108.516 291.043 116 282C119.923 276.559 119.878 270.462 119 264C116.284 256.364 109.139 250.326 102.254 246.457C82.3652 237.051 57.4946 237.569 40 252Z" fill="black"/>
<ellipse cx="74.5" cy="271" rx="45.5" ry="32" fill="#1831EA"/>
<ellipse cx="437" cy="362" rx="45" ry="31" fill="#AFB1FF"/>
</g>
<defs>
<clipPath id="clip0_3002_3">
<rect width="512" height="512" fill="white"/>
</clipPath>
</defs>
</svg>
