<svg width="512" height="512" viewBox="0 0 512 512" fill="none" xmlns="http://www.w3.org/2000/svg">
<g clip-path="url(#clip0_3010_3)">
<rect x="19" y="17" width="228" height="234" fill="#15A455"/>
<rect x="265" y="261" width="228" height="232" fill="#013D1C"/>
<path d="M58.0188 -0.404051C59.8333 -0.409761 61.6478 -0.416728 63.4623 -0.424849C68.3673 -0.442725 73.2722 -0.441622 78.1773 -0.435906C82.2825 -0.432806 86.3876 -0.438916 90.4927 -0.444945C100.183 -0.458971 109.873 -0.457445 119.563 -0.446043C129.536 -0.434566 139.51 -0.448636 149.483 -0.47544C158.068 -0.497641 166.653 -0.504224 175.237 -0.498363C180.355 -0.495003 185.473 -0.497347 190.59 -0.514614C195.405 -0.530152 200.22 -0.526052 205.035 -0.507309C206.794 -0.503642 208.553 -0.506676 210.312 -0.517195C225.211 -0.59943 238.61 1.62187 250.176 11.9414C251.836 13.5882 253.442 15.2566 255 17C258.046 15.6371 260.117 14.0698 262.5 11.75C271.203 3.95779 282.179 -0.319297 293.822 -0.267424C294.958 -0.27422 294.958 -0.27422 296.116 -0.281154C298.637 -0.29375 301.157 -0.292181 303.678 -0.290526C305.492 -0.296514 307.306 -0.30332 309.12 -0.310881C314.038 -0.328519 318.956 -0.333235 323.873 -0.334512C326.95 -0.335936 330.026 -0.34021 333.102 -0.345507C343.847 -0.364002 354.592 -0.372178 365.336 -0.370604C375.332 -0.369403 385.328 -0.390489 395.323 -0.422091C403.921 -0.448298 412.518 -0.458969 421.115 -0.457693C426.243 -0.457184 431.371 -0.462802 436.499 -0.484049C441.326 -0.503505 446.153 -0.503506 450.98 -0.489016C452.744 -0.486935 454.508 -0.491581 456.272 -0.503737C472.787 -0.6101 486.175 2.70484 498.75 14.1875C510.77 27.0747 512.452 41.2693 512.404 58.019C512.41 59.8335 512.417 61.648 512.425 63.4625C512.442 68.3676 512.441 73.2725 512.436 78.1776C512.433 82.2827 512.439 86.3878 512.445 90.493C512.459 100.183 512.457 109.873 512.446 119.563C512.434 129.537 512.448 139.51 512.475 149.484C512.497 158.068 512.504 166.653 512.498 175.238C512.495 180.355 512.497 185.473 512.514 190.59C512.53 195.405 512.526 200.22 512.507 205.035C512.503 206.794 512.506 208.553 512.517 210.312C512.603 225.915 509.911 238.919 499.215 251.02C497.855 252.392 496.434 253.705 495 255C496.363 258.046 497.93 260.118 500.25 262.5C508.042 271.203 512.319 282.18 512.267 293.822C512.272 294.579 512.276 295.336 512.281 296.116C512.294 298.637 512.292 301.158 512.29 303.678C512.296 305.493 512.303 307.307 512.311 309.121C512.328 314.038 512.333 318.956 512.334 323.873C512.336 326.95 512.34 330.026 512.345 333.103C512.364 343.847 512.372 354.592 512.37 365.337C512.369 375.332 512.39 385.328 512.422 395.324C512.448 403.921 512.459 412.518 512.457 421.116C512.457 426.243 512.463 431.371 512.484 436.499C512.503 441.326 512.503 446.153 512.489 450.98C512.487 452.744 512.491 454.508 512.503 456.272C512.61 472.787 509.295 486.175 497.812 498.75C484.925 510.77 470.73 512.452 453.981 512.404C452.166 512.41 450.352 512.417 448.537 512.425C443.632 512.443 438.727 512.442 433.822 512.436C429.717 512.433 425.612 512.439 421.507 512.445C411.817 512.459 402.127 512.457 392.437 512.446C382.463 512.435 372.49 512.449 362.516 512.475C353.931 512.498 345.347 512.504 336.762 512.498C331.645 512.495 326.527 512.497 321.409 512.515C316.594 512.53 311.78 512.526 306.965 512.507C305.206 512.504 303.447 512.507 301.687 512.517C286.084 512.603 273.081 509.911 260.98 499.215C259.607 497.855 258.294 496.435 257 495C253.953 496.363 251.882 497.93 249.5 500.25C240.797 508.042 229.82 512.319 218.177 512.267C217.42 512.272 216.663 512.276 215.883 512.281C213.363 512.294 210.842 512.292 208.321 512.291C206.507 512.297 204.693 512.303 202.879 512.311C197.962 512.328 193.044 512.333 188.126 512.335C185.05 512.336 181.973 512.34 178.897 512.346C168.152 512.364 157.408 512.372 146.663 512.371C136.667 512.369 126.672 512.391 116.676 512.422C108.079 512.448 99.4816 512.459 90.8843 512.458C85.7564 512.457 80.6288 512.463 75.501 512.484C70.6738 512.504 65.8469 512.504 61.0197 512.489C59.2557 512.487 57.4917 512.492 55.7278 512.504C39.213 512.61 25.8247 509.295 13.2498 497.812C1.22937 484.925 -0.452008 470.731 -0.404296 453.981C-0.410006 452.166 -0.416972 450.352 -0.425093 448.537C-0.442969 443.632 -0.441868 438.728 -0.436152 433.822C-0.433052 429.717 -0.43916 425.612 -0.445189 421.507C-0.459215 411.817 -0.45769 402.127 -0.446288 392.437C-0.43481 382.463 -0.44888 372.49 -0.475684 362.516C-0.497885 353.932 -0.504467 345.347 -0.498606 336.762C-0.495246 331.645 -0.49759 326.527 -0.514857 321.41C-0.530395 316.595 -0.526299 311.78 -0.507556 306.965C-0.503888 305.206 -0.506921 303.447 -0.517439 301.688C-0.599674 286.788 1.62162 273.39 11.9412 261.824C13.588 260.164 15.2564 258.558 16.9998 257C15.6369 253.954 14.0695 251.882 11.7498 249.5C3.95754 240.797 -0.319542 229.82 -0.267668 218.178C-0.272199 217.421 -0.276729 216.664 -0.281397 215.884C-0.293993 213.363 -0.292426 210.842 -0.29077 208.322C-0.296758 206.507 -0.303565 204.693 -0.311125 202.879C-0.328764 197.962 -0.33348 193.044 -0.334757 188.127C-0.336181 185.05 -0.340454 181.974 -0.345751 178.897C-0.364246 168.153 -0.372423 157.408 -0.370848 146.663C-0.369648 136.668 -0.390733 126.672 -0.422335 116.676C-0.448542 108.079 -0.459214 99.4818 -0.457938 90.8845C-0.457429 85.7567 -0.463047 80.629 -0.484294 75.5012C-0.503749 70.674 -0.50375 65.8472 -0.48926 61.0199C-0.48718 59.256 -0.491826 57.492 -0.503981 55.7281C-0.610344 39.2132 2.7046 25.8249 14.1873 13.25C27.0745 1.22962 41.2691 -0.451763 58.0188 -0.404051ZM27.6873 30.25C21.3358 38.3658 19.8802 46.9346 19.866 57.0765C19.8638 57.7533 19.8615 58.4301 19.8592 59.1274C19.8529 61.3764 19.8537 63.6253 19.8545 65.8743C19.8515 67.4945 19.8481 69.1148 19.8443 70.735C19.8355 75.1236 19.8331 79.5121 19.8325 83.9007C19.8318 86.6461 19.8296 89.3915 19.827 92.137C19.8178 101.725 19.8137 111.313 19.8145 120.902C19.8151 129.823 19.8045 138.744 19.7887 147.665C19.7756 155.338 19.7703 163.011 19.7709 170.684C19.7712 175.261 19.7684 179.838 19.7577 184.414C19.748 188.721 19.748 193.028 19.7553 197.334C19.7563 198.909 19.754 200.483 19.7479 202.058C19.7025 214.659 19.7425 226.874 28.5662 236.754C36.7659 244.345 46.1597 246.119 57.0762 246.134C57.753 246.136 58.4298 246.138 59.1271 246.141C61.3761 246.147 63.625 246.146 65.874 246.145C67.4943 246.148 69.1145 246.152 70.7348 246.155C75.1233 246.164 79.5119 246.167 83.9004 246.167C86.6459 246.168 89.3913 246.17 92.1367 246.173C101.725 246.182 111.313 246.186 120.901 246.185C129.822 246.185 138.743 246.195 147.664 246.211C155.338 246.224 163.011 246.229 170.684 246.229C175.261 246.229 179.837 246.231 184.414 246.242C188.721 246.252 193.027 246.252 197.334 246.245C198.909 246.243 200.483 246.246 202.058 246.252C214.659 246.297 226.874 246.257 236.754 237.434C245.49 227.997 245.581 217.789 245.517 205.598C245.523 203.838 245.53 202.077 245.539 200.317C245.557 195.557 245.55 190.797 245.537 186.037C245.527 181.044 245.536 176.051 245.543 171.059C245.55 162.676 245.54 154.294 245.521 145.911C245.499 136.233 245.507 126.556 245.529 116.878C245.547 108.554 245.549 100.231 245.539 91.9067C245.533 86.9417 245.532 81.9768 245.545 77.0117C245.557 72.3429 245.548 67.6744 245.525 63.0056C245.52 61.2968 245.522 59.588 245.53 57.8793C245.585 46.2835 244.731 37.358 236.57 28.5C228.737 21.0181 219.352 19.8808 208.923 19.8663C208.246 19.864 207.57 19.8618 206.872 19.8594C204.623 19.8531 202.374 19.8539 200.125 19.8547C198.505 19.8517 196.885 19.8483 195.265 19.8446C190.876 19.8357 186.488 19.8334 182.099 19.8327C179.354 19.832 176.608 19.8299 173.863 19.8272C164.275 19.818 154.686 19.8139 145.098 19.8147C136.177 19.8153 127.256 19.8048 118.335 19.789C110.662 19.7759 102.989 19.7705 95.3154 19.7712C90.7388 19.7714 86.1622 19.7686 81.5856 19.758C77.2789 19.7483 72.9722 19.7482 68.6654 19.7555C67.0909 19.7565 65.5164 19.7542 63.9419 19.7481C50.6102 19.7001 37.3597 19.8018 27.6873 30.25ZM273.125 30.8125C266.814 38.5837 265.88 47.2646 265.866 57.0765C265.864 57.7533 265.862 58.4301 265.859 59.1274C265.853 61.3764 265.854 63.6253 265.854 65.8743C265.851 67.4945 265.848 69.1148 265.844 70.735C265.836 75.1236 265.833 79.5121 265.833 83.9007C265.832 86.6461 265.83 89.3915 265.827 92.137C265.818 101.725 265.814 111.313 265.814 120.902C265.815 129.823 265.805 138.744 265.789 147.665C265.776 155.338 265.77 163.011 265.771 170.684C265.771 175.261 265.768 179.838 265.758 184.414C265.748 188.721 265.748 193.028 265.755 197.334C265.756 198.909 265.754 200.483 265.748 202.058C265.702 214.659 265.743 226.874 274.566 236.754C282.766 244.345 292.16 246.119 303.076 246.134C303.753 246.136 304.43 246.138 305.127 246.141C307.376 246.147 309.625 246.146 311.874 246.145C313.494 246.148 315.115 246.152 316.735 246.155C321.123 246.164 325.512 246.167 329.9 246.167C332.646 246.168 335.391 246.17 338.137 246.173C347.725 246.182 357.313 246.186 366.901 246.185C375.822 246.185 384.743 246.195 393.664 246.211C401.338 246.224 409.011 246.229 416.684 246.229C421.261 246.229 425.837 246.231 430.414 246.242C434.721 246.252 439.027 246.252 443.334 246.245C444.909 246.243 446.483 246.246 448.058 246.252C460.659 246.297 472.874 246.257 482.754 237.434C491.49 227.997 491.581 217.789 491.517 205.598C491.523 203.838 491.53 202.077 491.539 200.317C491.557 195.557 491.55 190.797 491.537 186.037C491.527 181.044 491.536 176.051 491.543 171.059C491.55 162.676 491.54 154.294 491.521 145.911C491.499 136.233 491.507 126.556 491.529 116.878C491.547 108.554 491.549 100.231 491.539 91.9067C491.533 86.9417 491.532 81.9768 491.545 77.0117C491.557 72.3429 491.548 67.6744 491.525 63.0056C491.52 61.2968 491.522 59.588 491.53 57.8793C491.585 46.2835 490.731 37.358 482.57 28.5C474.737 21.0181 465.352 19.8808 454.923 19.8663C454.246 19.864 453.57 19.8618 452.872 19.8594C450.623 19.8531 448.374 19.8539 446.125 19.8547C444.505 19.8517 442.885 19.8483 441.265 19.8446C436.876 19.8357 432.488 19.8334 428.099 19.8327C425.354 19.832 422.608 19.8299 419.863 19.8272C410.275 19.818 400.686 19.8139 391.098 19.8147C382.177 19.8153 373.256 19.8048 364.335 19.789C356.662 19.7759 348.989 19.7705 341.315 19.7712C336.739 19.7714 332.162 19.7686 327.586 19.758C323.279 19.7483 318.972 19.7482 314.665 19.7555C313.091 19.7565 311.516 19.7542 309.942 19.7481C295.989 19.6978 283.213 20.0471 273.125 30.8125ZM253.273 249.531C252.333 250.506 252.333 250.506 251.375 251.5C250.743 252.15 250.111 252.799 249.461 253.469C248.979 253.974 248.496 254.479 248 255C249.721 258.765 251.992 261.151 255 264C258.817 262.445 261.192 259.964 264 257C262.444 253.181 260.044 250.74 257 248C254.865 247.779 254.865 247.779 253.273 249.531ZM27.6873 276.25C20.9584 284.298 19.8804 292.738 19.866 303.076C19.8638 303.753 19.8615 304.43 19.8592 305.127C19.8529 307.376 19.8537 309.625 19.8545 311.874C19.8515 313.495 19.8481 315.115 19.8443 316.735C19.8355 321.124 19.8331 325.512 19.8325 329.901C19.8318 332.646 19.8296 335.392 19.827 338.137C19.8178 347.725 19.8137 357.313 19.8145 366.902C19.8151 375.823 19.8045 384.744 19.7887 393.665C19.7756 401.338 19.7703 409.011 19.7709 416.684C19.7712 421.261 19.7684 425.838 19.7577 430.414C19.748 434.721 19.748 439.028 19.7553 443.334C19.7563 444.909 19.754 446.483 19.7479 448.058C19.7025 460.659 19.7425 472.874 28.5662 482.754C36.7659 490.345 46.1597 492.119 57.0762 492.134C57.753 492.136 58.4298 492.138 59.1271 492.141C61.3761 492.147 63.625 492.146 65.874 492.145C67.4943 492.148 69.1145 492.152 70.7348 492.155C75.1233 492.164 79.5119 492.167 83.9004 492.167C86.6459 492.168 89.3913 492.17 92.1367 492.173C101.725 492.182 111.313 492.186 120.901 492.185C129.822 492.185 138.743 492.195 147.664 492.211C155.338 492.224 163.011 492.229 170.684 492.229C175.261 492.229 179.837 492.231 184.414 492.242C188.721 492.252 193.027 492.252 197.334 492.245C198.909 492.243 200.483 492.246 202.058 492.252C214.659 492.297 226.874 492.257 236.754 483.434C245.49 473.997 245.581 463.789 245.517 451.598C245.523 449.838 245.53 448.077 245.539 446.317C245.557 441.557 245.55 436.797 245.537 432.037C245.527 427.044 245.536 422.051 245.543 417.059C245.55 408.676 245.54 400.294 245.521 391.911C245.499 382.233 245.507 372.556 245.529 362.878C245.547 354.554 245.549 346.231 245.539 337.907C245.533 332.942 245.532 327.977 245.545 323.012C245.557 318.343 245.548 313.674 245.525 309.006C245.52 307.297 245.522 305.588 245.53 303.879C245.584 292.495 244.823 283.283 236.754 274.566C226.286 265.217 213.04 265.704 199.785 265.741C198.164 265.738 196.544 265.735 194.923 265.731C190.547 265.722 186.171 265.725 181.795 265.731C177.201 265.736 172.606 265.732 168.012 265.729C160.298 265.725 152.585 265.73 144.872 265.739C135.973 265.75 127.074 265.747 118.175 265.736C110.515 265.726 102.854 265.725 95.1934 265.73C90.6269 265.734 86.0604 265.734 81.4939 265.727C77.1994 265.722 72.905 265.726 68.6105 265.737C67.0409 265.74 65.4712 265.739 63.9016 265.735C50.297 265.7 37.5398 265.823 27.6873 276.25ZM274.25 275.688C266.221 284.789 266.423 294.932 266.482 306.402C266.477 308.162 266.47 309.923 266.461 311.683C266.443 316.443 266.45 321.203 266.462 325.963C266.473 330.956 266.463 335.949 266.457 340.941C266.45 349.324 266.459 357.706 266.478 366.089C266.5 375.767 266.493 385.444 266.471 395.122C266.453 403.446 266.45 411.769 266.461 420.093C266.467 425.058 266.468 430.023 266.455 434.988C266.443 439.657 266.451 444.326 266.474 448.994C266.479 450.703 266.478 452.412 266.469 454.121C266.416 465.505 267.177 474.717 275.246 483.434C285.714 492.783 298.959 492.296 312.215 492.259C313.835 492.262 315.456 492.265 317.077 492.269C321.453 492.278 325.829 492.275 330.205 492.269C334.799 492.264 339.393 492.268 343.988 492.271C351.701 492.275 359.414 492.27 367.128 492.261C376.027 492.25 384.925 492.253 393.824 492.264C401.485 492.274 409.145 492.275 416.806 492.27C421.373 492.266 425.939 492.266 430.506 492.273C434.8 492.278 439.094 492.274 443.389 492.263C444.959 492.26 446.528 492.261 448.098 492.265C460.683 492.298 472.888 492.245 482.754 483.434C490.345 475.234 492.118 465.84 492.133 454.923C492.137 453.908 492.137 453.908 492.14 452.873C492.147 450.624 492.146 448.375 492.145 446.126C492.148 444.505 492.151 442.885 492.155 441.265C492.164 436.876 492.166 432.488 492.167 428.099C492.168 425.354 492.17 422.608 492.173 419.863C492.182 410.275 492.186 400.687 492.185 391.098C492.184 382.177 492.195 373.256 492.211 364.335C492.224 356.662 492.229 348.989 492.229 341.316C492.228 336.739 492.231 332.162 492.242 327.586C492.252 323.279 492.252 318.972 492.244 314.666C492.243 313.091 492.246 311.517 492.252 309.942C492.297 297.341 492.257 285.126 483.433 275.246C475.234 267.655 465.84 265.881 454.923 265.866C454.246 265.864 453.57 265.862 452.872 265.859C450.623 265.853 448.374 265.854 446.125 265.855C444.505 265.852 442.885 265.848 441.265 265.845C436.876 265.836 432.488 265.833 428.099 265.833C425.354 265.832 422.608 265.83 419.863 265.827C410.275 265.818 400.686 265.814 391.098 265.815C382.177 265.815 373.256 265.805 364.335 265.789C356.662 265.776 348.989 265.771 341.315 265.771C336.739 265.771 332.162 265.769 327.586 265.758C323.279 265.748 318.972 265.748 314.665 265.755C313.091 265.757 311.516 265.754 309.942 265.748C290.329 265.645 290.329 265.645 274.25 275.688Z" fill="black"/>
<path d="M172 95C181.075 103.425 187.726 115.089 188.336 127.637C188.365 129.32 188.378 131.004 188.375 132.687C188.375 133.569 188.375 134.45 188.375 135.358C188.25 142.504 186.807 148.422 184 155C182.629 158.016 182.629 158.016 182 161C183.01 162.966 183.01 162.966 184.812 164.437C188.071 167.823 189.09 170.158 189 175C187.424 178.649 185.532 181.136 182 183C175.315 183.729 172.302 181.79 167.187 177.812C166.466 177.214 165.744 176.616 165 176C164.359 176.338 163.719 176.675 163.059 177.023C162.194 177.469 161.329 177.915 160.437 178.375C159.591 178.816 158.744 179.257 157.871 179.711C147.028 184.579 132.807 184.914 121.437 181.437C106.974 175.636 97.3074 166.375 90.7734 152.371C85.8419 140.184 85.6463 126.702 90.3789 114.422C96.9218 100.395 106.664 90.2214 121.273 84.8164C139.585 79.3334 157.319 82.5348 172 95ZM116.207 112.703C110.664 118.779 107.809 125.756 108 134C109.379 144.149 113.011 151.021 121 157.375C126.309 161.335 131.522 162.278 138.062 162.25C139.843 162.258 139.843 162.258 141.66 162.266C144.875 162.01 147.109 161.377 150 160C149.578 159.446 149.157 158.891 148.723 158.32C148.175 157.596 147.627 156.871 147.062 156.125C146.517 155.406 145.972 154.686 145.41 153.945C142.901 150.483 142.665 148.277 143 144C145.265 139.368 145.265 139.368 148 138C152.157 137.319 155.642 137.233 159.371 139.34C161.328 140.822 163.19 142.343 165 144C168.338 138.509 167.721 132.176 167 126C164.201 117.203 159.231 110.319 151.027 105.949C138.161 100.552 126.228 103.184 116.207 112.703Z" fill="white"/>
<path d="M359 84C362.587 87.6499 363.499 89.9927 363.498 95.072C363.513 96.8743 363.513 96.8743 363.529 98.713C363.521 100.003 363.512 101.292 363.504 102.621C363.511 103.967 363.521 105.313 363.533 106.659C363.559 110.197 363.565 113.734 363.563 117.271C363.561 122.928 363.575 128.585 363.619 134.242C363.629 136.211 363.62 138.179 363.61 140.148C363.617 141.353 363.624 142.557 363.631 143.799C363.63 145.381 363.63 145.381 363.628 146.996C364.223 151.804 365.964 155.041 369.5 158.312C374.604 161.758 380.035 161.724 386 161C391.339 158.901 394.397 156.112 397 151C397.441 148.031 397.441 148.031 397.369 144.82C397.376 143.596 397.383 142.371 397.39 141.109C397.384 139.794 397.378 138.479 397.371 137.125C397.378 135.754 397.386 134.383 397.397 133.012C397.437 127.205 397.438 121.399 397.436 115.592C397.436 112.033 397.455 108.474 397.485 104.915C397.496 102.907 397.484 100.899 397.471 98.8911C397.481 97.6663 397.491 96.4415 397.502 95.1797C397.502 94.1044 397.501 93.0292 397.501 91.9214C398.126 88.2646 399.417 86.6207 402 84C406.248 82.0764 408.238 81.7841 412.75 83.0625C416.302 85.1802 417.249 86.334 419 90C419.381 92.9257 419.381 92.9257 419.388 96.1921C419.398 97.4208 419.407 98.6494 419.417 99.9153C419.412 101.25 419.405 102.584 419.399 103.918C419.401 105.299 419.403 106.681 419.407 108.062C419.412 110.956 419.405 113.85 419.391 116.744C419.374 120.428 419.384 124.111 419.402 127.795C419.413 130.65 419.409 133.504 419.402 136.358C419.399 138.369 419.408 140.379 419.417 142.39C419.325 154.522 417.222 163.34 409 172.5C400.297 180.995 389.755 183.362 378.062 183.378C366.404 183.138 358.584 178.619 350.285 170.547C341.804 161.094 341.69 149.346 341.699 137.207C341.695 135.902 341.691 134.597 341.686 133.253C341.679 130.507 341.679 127.762 341.684 125.016C341.69 121.509 341.673 118.002 341.65 114.496C341.632 111.129 341.636 107.762 341.637 104.395C341.628 103.141 341.618 101.888 341.609 100.597C341.668 89.5369 341.668 89.5369 345 85C350.211 81.793 353.417 81.472 359 84Z" fill="black"/>
<path d="M354.882 328.467C356.067 328.451 357.252 328.435 358.473 328.419C359.749 328.424 361.025 328.429 362.34 328.434C364.311 328.424 364.311 328.424 366.322 328.415C369.102 328.405 371.882 328.409 374.662 328.424C378.217 328.441 381.772 328.417 385.327 328.382C388.727 328.355 392.127 328.365 395.527 328.371C396.801 328.358 398.075 328.345 399.388 328.331C409.205 328.435 409.205 328.435 412.279 331.414C414.809 335.216 415.468 337.506 414.871 342.149C413.08 348.01 409.027 352.874 405.515 357.827C402.848 361.653 400.339 365.581 397.812 369.5C396.718 371.189 395.623 372.878 394.527 374.567C393.961 375.439 393.395 376.312 392.812 377.212C390.86 380.216 388.901 383.216 386.941 386.215C386.264 387.251 385.587 388.288 384.889 389.356C383.572 391.37 382.255 393.385 380.937 395.399C380.336 396.318 379.736 397.237 379.117 398.184C378.587 398.994 378.057 399.804 377.511 400.639C375.958 403.065 374.47 405.523 373 408C374.094 408.009 375.189 408.019 376.317 408.028C380.389 408.068 384.461 408.134 388.533 408.208C390.294 408.236 392.054 408.257 393.814 408.271C396.35 408.293 398.883 408.339 401.418 408.391C402.593 408.393 402.593 408.393 403.792 408.394C408.758 408.527 411.391 409.283 415 413C416.605 416.211 416.474 419.517 416 423C414.222 426.145 412.892 427.58 409.629 429.116C404.275 430.42 399.049 430.285 393.558 430.266C391.758 430.269 391.758 430.269 389.921 430.272C387.388 430.273 384.856 430.269 382.323 430.261C378.448 430.25 374.573 430.261 370.697 430.274C368.234 430.272 365.771 430.27 363.308 430.266C362.15 430.27 360.991 430.274 359.798 430.278C358.717 430.272 357.635 430.265 356.521 430.259C355.573 430.257 354.625 430.256 353.649 430.254C349.473 429.854 346.77 428.708 343.687 425.875C341.531 422.201 341.37 419.126 342 415C343.132 412.243 344.691 409.888 346.375 407.438C346.828 406.746 347.281 406.055 347.749 405.343C349.149 403.217 350.572 401.108 352 399C352.812 397.778 353.624 396.556 354.433 395.332C356.046 392.9 357.669 390.474 359.297 388.051C367.712 375.488 375.839 362.729 384 350C383.097 350.016 382.195 350.032 381.265 350.048C377.89 350.099 374.515 350.137 371.14 350.165C369.684 350.18 368.228 350.2 366.772 350.226C364.67 350.263 362.568 350.28 360.465 350.293C358.571 350.317 358.571 350.317 356.64 350.341C352.344 349.939 349.797 349.023 346 347C343.474 343.021 342.849 340.986 343.562 336.313C346.089 330.491 348.515 328.505 354.882 328.467Z" fill="white"/>
<path d="M133 328.375C133.825 328.362 134.65 328.349 135.5 328.336C139.215 329.323 140.62 331.001 143 334C143.722 336.919 143.684 339.754 143.647 342.75C143.66 344.056 143.66 344.056 143.673 345.388C143.695 348.259 143.681 351.129 143.664 354C143.667 355.999 143.672 357.997 143.678 359.996C143.686 364.182 143.675 368.368 143.652 372.555C143.623 377.918 143.64 383.281 143.67 388.645C143.688 392.771 143.682 396.897 143.669 401.024C143.666 403.001 143.67 404.979 143.681 406.957C143.694 409.722 143.675 412.485 143.647 415.25C143.657 416.066 143.667 416.881 143.677 417.722C143.599 421.958 143.361 423.544 140.639 426.984C137.524 429.364 135.917 430 132 430C127.65 428.55 125.567 427.851 123 424C122.789 421.128 122.696 418.351 122.693 415.477C122.685 414.607 122.677 413.737 122.668 412.84C122.644 409.958 122.635 407.077 122.629 404.195C122.62 402.194 122.611 400.192 122.601 398.191C122.585 393.992 122.577 389.794 122.574 385.596C122.569 380.217 122.531 374.838 122.486 369.459C122.456 365.324 122.449 361.189 122.448 357.054C122.443 355.071 122.431 353.088 122.41 351.105C122.383 348.33 122.388 345.557 122.4 342.782C122.386 341.963 122.371 341.144 122.355 340.3C122.41 336.03 122.633 334.463 125.381 330.993C128.224 328.829 129.477 328.32 133 328.375Z" fill="black"/>
</g>
<defs>
<clipPath id="clip0_3010_3">
<rect width="512" height="512" fill="white"/>
</clipPath>
</defs>
</svg>
